<svg width="56" height="57" viewBox="0 0 56 57" fill="none" xmlns="http://www.w3.org/2000/svg">
<circle cx="28" cy="28.5" r="27.625" fill="#FFF6F9"/>
<mask id="mask0_461_2589" style="mask-type:alpha" maskUnits="userSpaceOnUse" x="0" y="0" width="56" height="57">
<circle cx="28" cy="28.5" r="27.625" fill="#FEF5F7"/>
</mask>
<g mask="url(#mask0_461_2589)">
<path d="M31.848 16.8339C31.848 18.2735 31.0724 19.588 29.9389 20.3391C28.7457 21.0276 27.2543 21.0276 26.1208 20.3391C24.9276 19.588 24.2117 18.2735 24.2117 16.8339C24.2117 15.4569 24.9276 14.1425 26.1208 13.3914C27.2543 12.7029 28.7457 12.7029 29.9389 13.3914C31.0724 14.1425 31.848 15.4569 31.848 16.8339ZM25.6435 23.4686C25.7032 23.4686 25.7628 23.4686 25.8225 23.5312C26.5384 23.719 27.2543 23.8442 28.0298 23.8442C30.4162 23.8442 32.6235 22.5924 33.936 20.5268L35.0099 18.7743C35.5468 17.8354 36.7399 17.585 37.6348 18.2109C38.5297 18.7743 38.7683 20.0261 38.1717 20.965L37.0979 22.7175C36.024 24.4701 34.5326 25.8471 32.8025 26.7234V42.8721C32.8025 43.9987 31.9076 44.875 30.8934 44.875C29.8196 44.875 28.9844 43.9987 28.9844 42.8721V36.8633H27.0753V42.8721C27.0753 43.9987 26.1804 44.875 25.1662 44.875C24.0924 44.875 23.2572 43.9987 23.2572 42.8721V26.7234C21.5271 25.8471 20.0953 24.5327 18.9618 22.7801L17.8283 20.965C17.2317 20.0887 17.4703 18.8369 18.3652 18.2109C19.2601 17.585 20.3936 17.8354 20.9901 18.7743L22.1833 20.5894C23.0185 21.9039 24.2714 22.9053 25.6435 23.4686Z" fill="#FFB3C6"/>
</g>
</svg>
