<svg width="56" height="57" viewBox="0 0 56 57" fill="none" xmlns="http://www.w3.org/2000/svg">
<circle cx="28" cy="28.5" r="27.625" fill="#FFF6F9"/>
<mask id="mask0_459_2491" style="mask-type:alpha" maskUnits="userSpaceOnUse" x="0" y="0" width="56" height="57">
<circle cx="28" cy="28.5" r="27.625" fill="#FEF5F7"/>
</mask>
<g mask="url(#mask0_459_2491)">
<path d="M23.9815 18.0941C23.9815 16.6241 24.7339 15.2128 26.065 14.4483C27.3382 13.6839 28.9008 13.6839 30.2319 14.4483C31.5051 15.2128 32.3154 16.6241 32.3154 18.0941C32.3154 19.623 31.5051 21.0343 30.2319 21.7987C28.9008 22.5632 27.3382 22.5632 26.065 21.7987C24.7339 21.0343 23.9815 19.623 23.9815 18.0941ZM17.4417 21.4459C18.1941 20.3875 19.6409 20.1523 20.6827 20.9167L22.7661 22.4456C24.3287 23.6217 26.1807 24.2097 28.1484 24.2097C30.0583 24.2097 31.9102 23.6217 33.4728 22.4456L35.5563 20.9167C36.598 20.1523 38.0449 20.3875 38.7973 21.4459C39.5496 22.5044 39.3181 23.9745 38.2764 24.7389L36.1929 26.2678C35.3827 26.8558 34.5725 27.3263 33.7043 27.7379V29.8548H22.5925V27.7379C21.6665 27.3263 20.8563 26.8558 20.0461 26.2678L17.9626 24.7389C16.9209 23.9745 16.6894 22.5044 17.4417 21.4459ZM22.6504 32.3245L26.1807 35.4411L24.676 37.6168L26.065 39.0281C26.991 39.969 26.991 41.4391 26.065 42.3799C25.139 43.3208 23.6921 43.262 22.7661 42.3799L19.9882 39.5574C19.2358 38.7341 19.1201 37.4404 19.7567 36.5584L22.6504 32.3245ZM30.1162 35.4411L33.5886 32.3245L36.4823 36.5584C37.1189 37.4404 37.061 38.7341 36.2508 39.5574L33.4728 42.3799C32.5469 43.262 31.1 43.262 30.174 42.3799C29.3059 41.4391 29.3059 39.969 30.174 39.0281L31.6209 37.6168L30.1162 35.4411Z" fill="#FFB3C6"/>
</g>
</svg>
