<svg width="56" height="57" viewBox="0 0 56 57" fill="none" xmlns="http://www.w3.org/2000/svg">
<circle cx="28" cy="28.5" r="27.625" fill="#FFF6F9"/>
<mask id="mask0_459_2583" style="mask-type:alpha" maskUnits="userSpaceOnUse" x="0" y="0" width="56" height="57">
<circle cx="28" cy="28.5" r="27.625" fill="#FEF5F7"/>
</mask>
<g mask="url(#mask0_459_2583)">
<path d="M28.0166 13.875C29.577 13.875 31.026 14.7807 31.8619 16.1393C32.6421 17.5545 32.6421 19.3094 31.8619 20.668C31.026 22.0832 29.577 22.9323 28.0166 22.9323C26.4004 22.9323 24.9514 22.0832 24.1155 20.668C23.3353 19.3094 23.3353 17.5545 24.1155 16.1393C24.9514 14.7807 26.4004 13.875 28.0166 13.875ZM39.8312 35.556L36.3203 40.028C35.3729 41.2168 33.701 41.4433 32.5864 40.4809C31.5833 39.6884 31.3046 38.3298 31.8062 37.1976H31.7505C29.577 36.9146 27.6265 35.7824 26.2332 34.0842V31.9897C26.2332 31.0273 25.3973 30.1782 24.4499 30.1782C23.4467 30.1782 22.6665 31.0273 22.6665 31.9897V34.7069C22.6665 34.7635 22.6665 34.8201 22.6665 34.8767L28.2952 37.7637C29.6327 38.3864 30.1343 40.028 29.5213 41.3866C28.8525 42.7452 27.2364 43.2547 25.8988 42.5754L17.0378 38.1034C16.9821 38.0468 16.9264 38.0468 16.8149 37.9901C16.592 37.8203 16.3133 37.6505 16.1462 37.3675C15.8675 37.0844 15.7003 36.7448 15.5889 36.3485C15.4217 35.6692 15.4774 34.9333 15.8675 34.254C15.9232 34.1974 15.9232 34.1408 15.979 34.0842L19.7129 28.4233C21.2176 26.1024 23.7254 24.7438 26.4004 24.7438H30.5801C33.1994 24.7438 35.5958 26.0458 37.1005 28.1969L39.9427 32.2161C40.0542 32.3859 40.1656 32.5557 40.2771 32.7256C40.3885 33.1218 40.5 33.5181 40.5 33.9143C40.4443 34.4804 40.2214 35.1031 39.8312 35.556ZM33.3666 32.669C33.3666 31.8198 32.865 30.9707 32.1406 30.5178C31.3603 30.1216 30.4129 30.1216 29.6885 30.5178C28.9082 30.9707 28.4624 31.8198 28.4624 32.669C28.4624 33.5747 28.9082 34.4238 29.6885 34.8767C30.4129 35.2729 31.3603 35.2729 32.1406 34.8767C32.865 34.4238 33.3666 33.5747 33.3666 32.669Z" fill="#FFB3C6"/>
</g>
</svg>
