<svg width="56" height="57" viewBox="0 0 56 57" fill="none" xmlns="http://www.w3.org/2000/svg">
<circle cx="28" cy="28.5" r="27.625" fill="#FFF6F9"/>
<mask id="mask0_461_2595" style="mask-type:alpha" maskUnits="userSpaceOnUse" x="0" y="0" width="56" height="57">
<circle cx="28" cy="28.5" r="27.625" fill="#FEF5F7"/>
</mask>
<g mask="url(#mask0_461_2595)">
<path d="M28.515 12.875C29.5759 12.875 30.512 13.5 31.0737 14.375C31.6353 15.3125 31.6353 16.5 31.0737 17.375C30.512 18.3125 29.5759 18.875 28.515 18.875C27.3917 18.875 26.4556 18.3125 25.894 17.375C25.3323 16.5 25.3323 15.3125 25.894 14.375C26.4556 13.5 27.3917 12.875 28.515 12.875ZM24.0218 36.8125C23.1481 36.625 22.5241 35.8125 22.5241 34.875V31.4375L22.212 31.9375C21.6504 32.875 20.4023 33.1875 19.4662 32.625C18.5301 32.0625 18.2181 30.8125 18.7797 29.875L22.3993 23.8125C23.3354 22.25 24.9579 21.1875 26.7053 20.9375C26.9549 20.9375 27.2045 20.875 27.5166 20.875H28.515C28.5775 20.875 28.6399 20.875 28.7647 20.9375C30.9489 21.125 32.8211 22.75 33.2579 25L33.6323 27C36.3782 27.5625 38.5 30 38.5 32.875V34.875C38.5 36 37.5639 36.875 36.503 36.875H33.0083V42.875C33.0083 44 32.0722 44.875 31.0113 44.875C29.888 44.875 29.0143 44 29.0143 42.875V36.875H28.0158V42.875C28.0158 44 27.0797 44.875 26.0188 44.875C24.8955 44.875 24.0218 44 24.0218 42.875V36.8125Z" fill="#FFB3C6"/>
</g>
</svg>
