<svg width="305" height="305" viewBox="0 0 305 305" fill="none" xmlns="http://www.w3.org/2000/svg">
<rect width="305" height="305" rx="152.5" fill="#FDFCFC"/>
<path d="M154.31 174.605C154.31 174.605 157.29 177.429 156.739 179.021C155.475 182.683 149.815 184.385 146.139 183.372C140.271 181.756 134.905 174.884 134.958 168.688C135.035 159.595 144.157 152.235 151.729 147.429C159.524 142.482 169.427 141.137 178.606 141.292C188.601 141.462 199.267 143.389 207.634 148.963C212.291 152.065 216.136 156.973 217.955 162.332C218.986 165.369 217.955 171.975 217.955 171.975C217.955 171.975 226.166 160.419 229.136 154.003C232.674 146.355 237.87 138.287 236.876 129.893C236.421 126.049 233.927 122.317 230.855 120.029C221.001 112.723 207.557 111.455 195.378 111.043C182.789 110.618 169.987 113.353 158.181 117.838C150.139 120.887 142.266 125.196 136.035 131.206C129.017 137.975 122.291 146.211 119.909 155.754C118.364 161.94 118.694 169.185 121.629 174.824C124.279 179.914 129.5 183.634 134.744 185.783C139.88 187.888 146.033 188.832 151.3 187.098C154.785 185.952 159.571 183.596 159.686 179.864C159.855 174.369 154.311 174.603 154.311 174.603L154.31 174.605Z" fill="#18D1FF"/>
<path d="M151.452 176.91C151.452 176.91 150.684 174.495 151.34 173.628C152.405 172.225 154.803 171.844 156.44 172.467C158.804 173.38 160.921 176.119 160.925 178.694C160.93 182.001 158.083 185.21 155.194 186.709C148.886 189.98 140.661 189.049 133.967 186.709C128.29 184.724 122.729 180.757 119.745 175.445C115.415 167.739 114.404 157.677 116.349 149.019C118.335 140.177 124.788 132.771 130.996 126.275C137.67 119.292 145.745 113.374 154.559 109.596C164.654 105.271 175.904 104.115 186.824 103.314C196.22 102.626 205.803 102.825 215.057 104.614C220.862 105.737 226.734 107.406 231.825 110.462C233.828 111.664 237 115.228 237 115.228C237 115.228 235.608 96.9941 232.888 88.3685C230.532 80.8997 228.031 72.7944 222.487 67.359C218.561 63.5095 212.951 61.6049 207.628 60.4426C197.517 58.2366 186.803 58.7671 176.637 60.6435C164.762 62.8348 153.286 67.5553 142.646 73.3688C132.688 78.8106 123.308 85.6631 115.289 93.7847C108.722 100.438 102.528 107.915 98.7325 116.529C94.9082 125.208 92.9388 134.955 93.0014 144.47C93.0516 152.09 94.5959 159.939 97.8834 166.781C100.959 173.182 105.887 178.685 111.257 183.243C115.929 187.21 121.427 190.305 127.177 192.314C132.594 194.206 138.442 195.272 144.16 194.94C150.848 194.552 158.46 194.018 163.56 189.587C166.54 186.997 168.693 182.647 168.39 178.666C168.177 175.877 166.219 173.115 163.888 171.641C161.342 170.031 157.857 169.039 154.963 169.832C152.279 170.566 150.027 172.035 149.688 174.324C149.527 175.41 151.464 176.911 151.464 176.911L151.452 176.91Z" fill="#0166FE"/>
<path d="M152.548 179.471C152.548 179.471 148.399 178.616 147.318 177.034C145.767 174.747 145.875 171.522 147.397 169.217C149.905 165.422 155.275 163.968 159.759 163.791C167.341 163.474 176.605 165.152 181.331 171.203C185.276 176.255 186.073 184.72 183.209 190.479C180.335 196.259 172.877 198.504 166.789 200.364C157.258 203.275 146.803 203.426 136.974 201.846C126.821 200.214 116.904 196.188 108.131 190.719C98.4644 184.7 89.6001 176.818 82.9232 167.49C75.761 157.484 70.4137 145.754 67.8952 133.646C65.6176 122.687 65.9351 111.023 68.1388 100.039C70.6579 87.5912 75.5137 75.757 82.4388 65.1879C87.722 57.1593 94.8274 50.2895 102.556 44.6777C109.505 39.638 117.503 36.0881 125.582 33.3108C132.143 31.0548 139.027 29.4822 145.942 29.1098C154.532 28.6472 163.236 29.68 171.633 31.5809C178.669 33.1737 185.615 35.5584 191.992 38.9933C199.506 43.0463 212.595 54.3148 212.595 54.3148C212.595 54.3148 186.055 51.7288 173.086 54.0665C157.805 56.8227 142.719 62.406 129.459 70.6231C119.585 76.7416 110.877 85.0618 103.767 94.3457C98.072 101.781 93.5411 110.333 90.687 119.305C87.7843 128.41 86.2508 138.177 86.8083 147.723C87.1871 154.184 88.8469 160.697 91.6558 166.502C94.4576 172.296 98.5321 177.559 103.29 181.824C109.473 187.349 116.629 191.626 124.377 194.427C130.618 196.667 137.394 197.476 144.01 197.392C149.668 197.318 155.697 197.053 160.734 194.427C164.956 192.225 169.471 188.909 170.914 184.295C172.088 180.547 171.376 175.656 168.852 172.679C166.36 169.742 161.828 168.973 158.02 168.973C155.224 168.972 152.092 169.725 150.068 171.692C148.939 172.79 148.357 174.2 148.769 175.734C149.238 177.474 152.553 179.477 152.553 179.477L152.555 179.474L152.548 179.471ZM76.5674 214.124L67.0599 223.433L63.4996 227.105C66.878 231.034 70.2706 234.948 73.6773 238.849L77.0689 243.119V243.332L74.7651 243.203L72.4198 243.332C71.973 242.677 71.498 242.023 70.9946 241.368C70.5135 240.685 70.0249 240.041 69.5288 239.436L60.3983 228.548C60.2588 228.434 60.0772 228.363 59.8535 228.334C59.7417 228.361 59.6857 228.39 59.6857 228.42V243.322L57.8429 243.193L56 243.322V214.114L57.8429 214.242L59.6857 214.114V227.308C59.7134 227.421 59.8391 227.45 60.0628 227.394C60.3142 227.337 60.5547 227.222 60.7844 227.051C61.0069 226.852 61.4676 226.411 62.1663 225.727C62.4177 225.471 62.6829 225.215 62.9619 224.958L73.2678 214.116L74.9428 214.244L76.5674 214.124Z" fill="#0100CC"/>
<path d="M106.809 228.376C106.809 226.44 106.628 224.732 106.264 223.252C105.901 221.743 105.203 220.32 104.17 218.982C103.137 217.644 101.852 216.619 100.316 215.907C98.8088 215.196 97.1893 214.84 95.458 214.84C91.7999 214.84 88.9104 216.15 86.7894 218.769C84.6954 221.359 83.6485 224.833 83.6485 229.189C83.6485 233.373 84.7655 236.661 86.9995 239.053C89.0935 241.274 91.7876 242.384 95.0818 242.384C99.0189 242.384 102.076 240.647 104.254 237.174C105.957 234.47 106.808 231.538 106.808 228.378L106.809 228.376ZM94.9564 243.789C90.2935 243.789 86.5521 242.423 83.7324 239.69C80.9402 236.929 79.5442 233.256 79.5442 228.673C79.5442 224.09 81.038 220.375 84.0255 217.527C86.9012 214.794 90.5731 213.428 95.0412 213.428C99.3969 213.428 103.027 214.58 105.931 216.886C109.253 219.533 110.914 223.248 110.914 228.032C110.914 232.758 109.434 236.572 106.475 239.475C103.515 242.357 99.675 243.798 94.9555 243.798L94.9564 243.789Z" fill="#0100CC"/>
<path d="M143.538 214.124H144.418C145.004 219.789 145.367 223.262 145.507 224.544C145.954 228.728 146.316 231.988 146.595 234.322C146.896 236.628 147.301 239.631 147.811 243.332L145.842 243.203L143.874 243.332C143.623 240.486 143.382 237.766 143.152 235.175C142.957 232.584 142.716 230.022 142.431 227.488C142.179 224.955 141.939 222.891 141.709 221.296C140.006 224.427 138.526 227.16 137.269 229.495C135.818 232.228 134.603 234.59 133.625 236.584C132.564 238.776 131.601 240.868 130.735 242.86H130.284L127.98 238.035C126.975 235.9 126.081 234.061 125.299 232.517C124.517 230.951 123.554 229.058 122.409 226.838C121.432 224.988 120.469 223.137 119.519 221.287C119.038 225.358 118.577 229.471 118.137 233.627C117.69 237.784 117.467 241.015 117.467 243.32L116.001 243.191L114.493 243.32C115.079 239.619 115.847 234.367 116.797 227.564C117.747 220.731 118.319 216.248 118.514 214.113H119.597C121.048 217.016 122.235 219.393 123.157 221.244C124.274 223.436 125.597 225.955 127.126 228.802C128.801 231.904 130.239 234.466 131.439 236.488C135.46 229.03 139.481 221.571 143.501 214.113L143.538 214.124ZM153.888 243.348V214.139L155.731 214.268L157.574 214.139V243.348L155.731 243.219L153.888 243.348ZM190.028 214.124V243.332H188.771L186.594 240.728L168.501 220.317H168.082V243.333L166.909 243.204L165.737 243.333V214.125H167.36L187.255 236.116H187.673V214.125L188.846 214.254L190.028 214.124ZM197.876 243.348V214.139H212.744L212.618 215.421L212.744 216.702C211.906 216.53 211.222 216.416 210.692 216.36C210.161 216.274 209.589 216.231 208.974 216.231L204.786 216.145H201.561V226.855H208.053C208.584 226.855 209.282 226.826 210.148 226.769C211.041 226.683 211.583 226.64 211.771 226.64L211.645 227.75L211.771 228.946C211.269 228.946 210.571 228.917 209.677 228.86C208.783 228.775 208.242 228.732 208.053 228.732H201.561V243.336L199.718 243.207L197.876 243.348Z" fill="#0100CC"/>
<path d="M244.105 228.376C244.105 226.44 243.924 224.732 243.56 223.252C243.197 221.743 242.499 220.32 241.466 218.982C240.433 217.644 239.148 216.619 237.612 215.907C236.105 215.196 234.485 214.84 232.754 214.84C229.096 214.84 226.206 216.15 224.085 218.769C221.991 221.359 220.944 224.833 220.944 229.189C220.944 233.373 222.061 236.661 224.295 239.053C226.389 241.274 229.083 242.384 232.378 242.384C236.315 242.384 239.372 240.647 241.55 237.174C243.253 234.47 244.104 231.538 244.104 228.378L244.105 228.376ZM232.252 243.789C227.589 243.789 223.848 242.423 221.028 239.69C218.236 236.929 216.84 233.256 216.84 228.673C216.84 224.09 218.334 220.375 221.321 217.527C224.197 214.794 227.869 213.428 232.337 213.428C236.693 213.428 240.323 214.58 243.227 216.886C246.549 219.533 248.21 223.248 248.21 228.032C248.21 232.758 246.73 236.572 243.77 239.475C240.811 242.357 236.971 243.798 232.251 243.798L232.252 243.789Z" fill="#0100CC"/>
</svg>
