<svg width="56" height="57" viewBox="0 0 56 57" fill="none" xmlns="http://www.w3.org/2000/svg">
<circle cx="28" cy="28.5" r="27.625" fill="#FFF6F9"/>
<mask id="mask0_461_2601" style="mask-type:alpha" maskUnits="userSpaceOnUse" x="0" y="0" width="56" height="57">
<circle cx="28" cy="28.5" r="27.625" fill="#FEF5F7"/>
</mask>
<g mask="url(#mask0_461_2601)">
<path d="M14.4375 19.125C14.4375 17.9643 14.9844 16.9196 15.9688 16.3393C16.8984 15.7589 18.0469 15.7589 19.0312 16.3393C19.9609 16.9196 20.5625 17.9643 20.5625 19.125C20.5625 20.3438 19.9609 21.3884 19.0312 21.9688C18.0469 22.5491 16.8984 22.5491 15.9688 21.9688C14.9844 21.3884 14.4375 20.3438 14.4375 19.125ZM14 28.2946C13.4531 28.933 13.125 29.8036 13.125 30.7321C13.125 31.7188 13.4531 32.5893 14 33.2277V28.2946ZM21.875 25.4509C20.2344 26.9598 19.25 29.2232 19.25 31.6607C19.25 33.692 19.9062 35.4911 21 36.942V38.1607C21 39.2054 20.1797 40.0179 19.25 40.0179H15.75C14.7656 40.0179 14 39.2054 14 38.1607V36.6518C11.9219 35.6071 10.5 33.3438 10.5 30.7321C10.5 27.192 13.2344 24.2321 16.625 24.2321H18.375C19.6875 24.2321 20.8906 24.6964 21.875 25.4509ZM35 38.1607V36.942C36.0938 35.4911 36.75 33.692 36.75 31.6607C36.75 29.2232 35.7109 26.9598 34.0703 25.4509C35.0547 24.6964 36.3125 24.2321 37.625 24.2321H39.375C42.7109 24.2321 45.5 27.192 45.5 30.7321C45.5 33.3438 44.0234 35.6071 42 36.6518V38.1607C42 39.2054 41.1797 40.0179 40.25 40.0179H36.75C35.7656 40.0179 35 39.2054 35 38.1607ZM35.4375 19.125C35.4375 17.9643 35.9844 16.9196 36.9688 16.3393C37.8984 15.7589 39.0469 15.7589 40.0312 16.3393C40.9609 16.9196 41.5625 17.9643 41.5625 19.125C41.5625 20.3438 40.9609 21.3884 40.0312 21.9688C39.0469 22.5491 37.8984 22.5491 36.9688 21.9688C35.9844 21.3884 35.4375 20.3438 35.4375 19.125ZM42 28.2946V33.2277C42.5469 32.5893 42.875 31.7188 42.875 30.7902C42.875 29.8036 42.5469 28.933 42 28.2946ZM28 15.875C29.2031 15.875 30.3516 16.6295 31.0078 17.7321C31.6094 18.8929 31.6094 20.3438 31.0078 21.4464C30.3516 22.6071 29.2031 23.3036 28 23.3036C26.7422 23.3036 25.5938 22.6071 24.9375 21.4464C24.3359 20.3438 24.3359 18.8929 24.9375 17.7321C25.5938 16.6295 26.7422 15.875 28 15.875ZM23.625 31.6607C23.625 32.6473 23.9531 33.4598 24.5 34.1562V29.2232C23.9531 29.8616 23.625 30.7321 23.625 31.6607ZM31.5 29.2232V34.1562C32.0469 33.5179 32.375 32.6473 32.375 31.7188C32.375 30.7321 32.0469 29.8616 31.5 29.2232ZM35 31.6607C35 34.2723 33.5234 36.5357 31.5 37.5804V40.0179C31.5 41.0625 30.6797 41.875 29.75 41.875H26.25C25.2656 41.875 24.5 41.0625 24.5 40.0179V37.5804C22.4219 36.5357 21 34.2723 21 31.6607C21 28.1205 23.7344 25.1607 27.125 25.1607H28.875C32.2109 25.1607 35 28.1205 35 31.6607Z" fill="#FFB3C6"/>
</g>
</svg>
