<svg width="41" height="71" viewBox="0 0 41 71" fill="none" xmlns="http://www.w3.org/2000/svg">
<path d="M35.7109 8.99304H5.3517C4.80826 8.99304 4.38232 9.44787 4.38232 9.97606V57.1611C4.38232 57.704 4.80826 58.1148 5.3517 58.1148H35.7109C36.2397 58.1148 36.6509 57.6893 36.6509 57.1611V9.99074C36.6362 9.44787 36.2103 8.99304 35.7109 8.99304ZM12.1374 53.1704C11.7995 53.1704 11.4324 53.1263 10.9917 53.1117C10.977 53.1117 10.933 53.0677 10.933 53.0383C10.933 52.4661 10.8889 51.9232 10.8889 51.307C10.8889 50.6908 10.933 50.1333 10.933 49.5317C11.3442 49.4437 11.7702 49.3997 12.1227 49.3997C13.1508 49.3997 13.7971 49.8545 13.7971 51.307C13.8117 52.8622 13.1655 53.1704 12.1374 53.1704ZM15.9414 53.2144C14.7664 53.2144 14.2377 52.7449 14.2377 51.307C14.2377 50.0892 14.7664 49.473 15.6183 49.3997C16.7933 49.3997 17.3514 49.8692 17.3514 51.307C17.3661 52.5248 16.7933 53.1704 15.9414 53.2144ZM19.4518 52.1873L20.0099 52.1433L20.1274 53.1117C19.8777 53.1704 19.6721 53.1704 19.4224 53.1704C18.4089 53.1704 17.7627 52.8476 17.7627 51.307C17.7627 49.8545 18.4089 49.3997 19.4665 49.3997C19.7161 49.3997 19.8924 49.473 20.1421 49.5317L20.0246 50.5001L19.4665 50.456C19.2168 50.412 19.0405 50.5881 19.0405 51.2923C19.0258 52.0553 19.2021 52.1873 19.4518 52.1873ZM23.1824 50.5147C23.0943 50.5294 22.7712 50.5294 22.4333 50.5294V53.1704H21.2583C21.2437 53.1704 21.1996 53.1263 21.1996 53.1117C21.1849 52.5101 21.1849 51.9232 21.1849 51.307V50.5294C20.9058 50.5147 20.6268 50.5147 20.4946 50.5147C20.4799 50.5147 20.4358 50.4707 20.4358 50.4414V49.4877C20.6415 49.4437 21.6696 49.4437 21.8605 49.4437C22.0662 49.4437 22.9474 49.4437 23.1237 49.4877C23.1383 49.4877 23.1824 49.4877 23.1824 49.5464C23.1824 49.6931 23.2265 49.8838 23.2265 50.0452C23.2265 50.1919 23.1824 50.3387 23.1824 50.5147ZM25.1652 53.2144C24.0196 53.2144 23.4615 52.7449 23.4615 51.307C23.4615 50.0892 23.9902 49.473 24.8862 49.3997C26.0318 49.3997 26.5899 49.8692 26.5899 51.307C26.5752 52.5248 26.0612 53.1704 25.1652 53.2144ZM29.4687 53.2144H28.9693C28.9546 53.2144 28.8959 53.1704 28.8959 53.141C28.7049 52.6128 28.5434 52.0993 28.4259 51.6445H28.3377C28.3377 52.1433 28.3524 52.6715 28.3524 53.1704H27.1921C27.1481 53.1704 27.1187 53.1263 27.1187 53.1117V49.5317C27.5299 49.473 28.0587 49.3997 28.3818 49.3997C29.3218 49.3997 29.924 49.473 29.924 50.5001C29.924 50.9255 29.6596 51.307 29.2778 51.4831C29.4099 51.5271 29.5274 51.6298 29.6156 51.7618C29.8652 52.2607 29.9827 52.7009 30.1149 53.1557C29.9093 53.2144 29.6743 53.2144 29.4687 53.2144ZM20.5386 45.805C12.1814 45.805 5.38108 38.9385 5.38108 30.5168C5.38108 27.5384 6.21827 24.648 7.8339 22.1685C8.05422 21.8163 8.5389 21.699 8.8914 21.9484C9.25859 22.1685 9.36141 22.6527 9.14109 23.0048C7.70171 25.2496 6.95265 27.8319 6.95265 30.5168C6.95265 32.879 7.55484 35.1238 8.59765 37.0605C8.74453 36.5764 8.92078 36.1215 9.08235 35.7987C9.78735 34.6397 10.742 33.8034 11.9611 33.2458C12.0199 33.2311 12.0786 33.1871 12.1227 33.1725C10.4923 30.4141 9.58172 26.9809 9.58172 23.3422C9.58172 15.1553 15.1042 10.8711 20.5533 10.8711C23.4321 10.8711 26.0905 11.9861 28.0881 14.0255C30.3059 16.2997 31.4809 19.5275 31.4809 23.3422C31.4809 26.9662 30.5409 30.3848 28.9252 33.1725C28.984 33.2165 29.0134 33.2311 29.0721 33.2458C30.2912 33.7887 31.2165 34.6103 31.9068 35.7694C32.1271 36.1215 32.3034 36.591 32.4503 37.1192C33.5078 35.1678 34.11 32.923 34.11 30.5315C34.11 27.7732 33.3021 25.1175 31.7893 22.8874C31.569 22.5353 31.6571 22.0511 32.0096 21.8017C32.3621 21.5523 32.8468 21.655 33.0965 22.0071C34.7709 24.5307 35.6522 27.4651 35.6522 30.5315C35.6668 38.9532 28.8812 45.805 20.5386 45.805Z" fill="#FFF1F5"/>
<path d="M34.6924 33.8359C36.548 26.0138 31.7045 18.1701 23.8742 16.3165C16.0438 14.4629 8.19177 19.3012 6.33617 27.1233C4.48058 34.9454 9.32409 42.789 17.1545 44.6427C24.9848 46.4963 32.8368 41.6579 34.6924 33.8359Z" fill="#E09D31"/>
<path d="M32.9791 0.395264H8.06901C3.8243 0.395264 0.4021 3.88719 0.4021 8.15674V62.6631C0.4021 66.9327 3.83899 70.3953 8.06901 70.3953H32.9938C37.2385 70.3953 40.6901 66.9327 40.6901 62.6631V8.15674C40.6754 3.88719 37.2238 0.395264 32.9791 0.395264ZM39.1332 62.6631C39.1332 66.0817 36.3719 68.8547 32.9938 68.8547H8.06901C4.69087 68.8547 1.94429 66.0817 1.94429 62.6631V8.15674C1.94429 4.73817 4.69087 1.96516 8.06901 1.96516H32.9938C36.3719 1.96516 39.1332 4.73817 39.1332 8.15674V62.6631Z" fill="#0A0708"/>
<path d="M32.9792 1.96521H8.06905C4.69091 1.96521 1.94434 4.73821 1.94434 8.15678V62.6632C1.94434 66.0817 4.69091 68.8547 8.06905 68.8547H32.9939C36.372 68.8547 39.1333 66.0817 39.1333 62.6632V8.15678C39.1333 4.75288 36.3573 1.96521 32.9792 1.96521ZM20.5388 2.24398C21.9194 2.24398 23.0357 3.35905 23.0357 4.72354C23.0357 6.11738 21.9194 7.24712 20.5388 7.24712C19.1582 7.24712 18.0419 6.13205 18.0419 4.72354C18.0272 3.37372 19.1582 2.24398 20.5388 2.24398ZM20.5388 67.5196C18.7469 67.5196 17.2928 66.0671 17.2928 64.2918C17.2928 62.4871 18.7469 61.0346 20.5388 61.0346C22.316 61.0346 23.7554 62.4871 23.7554 64.2918C23.7407 66.0671 22.3013 67.5196 20.5388 67.5196ZM38.2079 57.1612C38.2079 58.5403 37.0917 59.6848 35.7111 59.6848H5.35185C3.92716 59.6848 2.8109 58.5697 2.8109 57.1612V9.99078C2.8109 8.59694 3.95653 7.43786 5.35185 7.43786H35.7111C37.0917 7.43786 38.2079 8.59694 38.2079 9.99078V57.1612Z" fill="#FFB3C6"/>
<path d="M35.7109 7.43787H5.35174C3.95642 7.43787 2.81079 8.59695 2.81079 9.99079V57.1759C2.81079 58.5697 3.92705 59.6994 5.35174 59.6994H35.7109C37.0916 59.6994 38.2078 58.555 38.2078 57.1759V9.99079C38.2078 8.58228 37.0916 7.43787 35.7109 7.43787ZM36.6363 57.1612C36.6363 57.6894 36.225 58.1149 35.6962 58.1149H5.35174C4.8083 58.1149 4.38236 57.7041 4.38236 57.1612V9.99079C4.38236 9.44793 4.8083 9.00777 5.35174 9.00777H35.7109C36.2103 9.00777 36.6509 9.4626 36.6509 9.99079V57.1612H36.6363Z" fill="#0A0708"/>
<path d="M20.5389 2.2439C19.1582 2.2439 18.042 3.35897 18.042 4.72346C18.042 6.1173 19.1582 7.24704 20.5389 7.24704C21.9195 7.24704 23.0358 6.13197 23.0358 4.72346C23.0358 3.37364 21.9195 2.2439 20.5389 2.2439ZM20.5389 5.69181C20.0101 5.69181 19.5842 5.26632 19.5842 4.72346C19.5842 4.19527 20.0101 3.78445 20.5389 3.78445C21.0676 3.78445 21.4936 4.19527 21.4936 4.72346C21.4789 5.26632 21.0529 5.69181 20.5389 5.69181Z" fill="#0A0708"/>
<path d="M21.4787 4.72343C21.4787 5.26629 21.0528 5.69178 20.524 5.69178C19.9953 5.69178 19.5693 5.26629 19.5693 4.72343C19.5693 4.19524 19.9953 3.78442 20.524 3.78442C21.0528 3.78442 21.4787 4.20991 21.4787 4.72343Z" fill="#FF7195"/>
<path d="M20.5387 61.0345C18.7468 61.0345 17.2927 62.4871 17.2927 64.2917C17.2927 66.067 18.7468 67.5196 20.5387 67.5196C22.3159 67.5196 23.7553 66.067 23.7553 64.2917C23.7406 62.4871 22.3012 61.0345 20.5387 61.0345ZM20.5387 65.9643C19.5987 65.9643 18.8349 65.2014 18.8349 64.2917C18.8349 63.338 19.5987 62.5751 20.5387 62.5751C21.4493 62.5751 22.1984 63.338 22.1984 64.2917C22.1984 65.2161 21.464 65.9643 20.5387 65.9643Z" fill="#0A0708"/>
<path d="M22.1984 64.2917C22.1984 65.2307 21.464 65.9643 20.5387 65.9643C19.5987 65.9643 18.835 65.2013 18.835 64.2917C18.835 63.338 19.5987 62.5751 20.5387 62.5751C21.4493 62.5751 22.1984 63.338 22.1984 64.2917Z" fill="#FF7195"/>
<path d="M33.1114 21.9925C32.8617 21.6403 32.3771 21.5376 32.0246 21.7871C31.6721 22.0365 31.5692 22.5207 31.8042 22.8728C33.3171 25.1176 34.1249 27.7586 34.1249 30.5169C34.1249 32.9084 33.5227 35.1386 32.4652 37.1046C32.3183 36.5764 32.1421 36.1216 31.9217 35.7548C31.2314 34.5957 30.2914 33.7741 29.087 33.2312C29.0283 33.2165 28.9989 33.1872 28.9402 33.1579C30.5705 30.3848 31.4958 26.9516 31.4958 23.3276C31.4958 19.4982 30.3208 16.2851 28.103 14.0109C26.1055 11.9715 23.4323 10.8564 20.5683 10.8564C15.1192 10.8564 9.59664 15.1407 9.59664 23.3276C9.59664 26.9663 10.5073 30.3995 12.1376 33.1579C12.0788 33.1725 12.0201 33.2165 11.976 33.2312C10.757 33.7887 9.81696 34.625 9.09726 35.7841C8.9357 36.1216 8.75945 36.5617 8.61257 37.0459C7.56976 35.1092 6.96757 32.8644 6.96757 30.5022C6.96757 27.8172 7.71663 25.2203 9.15601 22.9902C9.37633 22.638 9.2882 22.1539 8.90632 21.9338C8.55382 21.6844 8.06913 21.8017 7.84882 22.1539C6.24788 24.6334 5.396 27.5238 5.396 30.5022C5.396 38.9239 12.1963 45.7904 20.5536 45.7904C28.8961 45.7904 35.6964 38.9239 35.6964 30.5022C35.6671 27.4651 34.8005 24.5161 33.1114 21.9925ZM11.1241 23.3423C11.1241 15.8302 16.0151 12.4117 20.5536 12.4117C23.0064 12.4117 25.2976 13.3654 26.972 15.0966C28.9108 17.0774 29.9242 19.9237 29.9242 23.3423C29.9242 26.7609 29.043 30.0034 27.4714 32.5856C27.1042 32.4389 26.737 32.3069 26.3845 32.1895C28.2645 30.5316 29.4983 28.1107 29.4983 25.3817V22.8141C29.4983 22.594 29.4102 22.3886 29.2339 22.2419C29.087 22.0952 28.8667 22.0218 28.6317 22.0365C27.2511 22.1685 26.0761 21.9925 24.8864 21.479C24.4311 21.2882 24.108 21.1268 23.7995 20.9948C22.2573 20.2465 21.9636 20.3492 20.2745 21.3322L19.8045 21.611C17.4692 22.9608 15.5451 23.1075 12.3579 22.8728C12.1376 22.8581 11.932 22.9315 11.7851 23.0782C11.6235 23.2249 11.5354 23.4303 11.5354 23.6504V25.3964C11.5354 28.1254 12.7545 30.5462 14.6345 32.2042C14.2673 32.3215 13.8854 32.4536 13.5476 32.571C12.0201 30.0327 11.1241 26.7902 11.1241 23.3423ZM9.4057 38.3957C9.67008 38.3224 9.89039 38.1463 9.96383 37.8969C10.1107 37.3247 10.287 36.8699 10.4338 36.5764C10.9332 35.7401 11.6676 35.1092 12.5782 34.6691C13.5917 34.1996 14.7373 33.7741 16.206 33.3486C16.3235 33.4073 16.4264 33.4366 16.5439 33.4953V43.3255C16.5439 43.4576 16.5879 43.575 16.632 43.6777C13.6798 42.768 11.1388 40.89 9.4057 38.3957ZM20.5389 44.2499C19.5842 44.2499 18.6589 44.1618 17.7336 43.9564C17.9539 43.8244 18.1007 43.6043 18.1007 43.3255V34.1262C18.2476 34.1702 18.4239 34.1996 18.5854 34.2142C18.6736 34.2289 18.747 34.2729 18.8498 34.2729C19.3932 34.3903 19.9514 34.4637 20.5095 34.4637H20.5242C20.5389 34.4637 20.5683 34.449 20.5829 34.449C21.1117 34.449 21.6258 34.3903 22.1251 34.3023C22.2573 34.2583 22.3895 34.2436 22.5217 34.2142C22.6539 34.1996 22.7861 34.1702 22.9183 34.1409V43.3402C22.9183 43.619 23.0651 43.8391 23.2854 43.9858C22.4042 44.1472 21.4789 44.2499 20.5389 44.2499ZM23.3295 32.3216C22.977 32.4683 22.6245 32.571 22.272 32.659C22.0664 32.703 21.8754 32.7324 21.6992 32.7764H21.6404C21.4348 32.8204 21.2145 32.8351 21.0089 32.8351C20.6711 32.8791 20.3186 32.8497 19.9807 32.8351C19.7751 32.8204 19.5695 32.8204 19.3786 32.7764C19.1582 32.7324 18.9526 32.703 18.747 32.6443C18.4532 32.571 18.1742 32.4829 17.8951 32.3802C17.807 32.3362 17.7042 32.3069 17.6161 32.2629C14.9723 31.1184 13.1217 28.4628 13.1217 25.3817V24.472C16.0592 24.6188 18.2036 24.3547 20.627 22.9462L21.1117 22.6674C22.3014 21.9778 22.3014 21.9778 23.1826 22.3886C23.4764 22.5207 23.8289 22.7114 24.2989 22.8875C25.4592 23.4157 26.6636 23.6504 27.9708 23.6357V25.3964C27.9708 28.4775 26.1055 31.1184 23.4764 32.2775C23.4323 32.2922 23.3736 32.3069 23.3295 32.3216ZM24.3723 43.6777C24.4311 43.5603 24.4898 43.4282 24.4898 43.3109V33.4953C24.6073 33.4366 24.7395 33.3779 24.8423 33.3339C25.8998 33.6567 27.207 34.0969 28.4408 34.6544C29.3514 35.0652 30.0711 35.6814 30.5852 36.5618C30.7761 36.8845 30.9377 37.31 31.0552 37.8529C31.1139 38.1463 31.3342 38.3517 31.6133 38.4251C29.8802 40.9047 27.3539 42.7827 24.3723 43.6777Z" fill="#0A0708"/>
<path d="M23.3 43.9711C22.404 44.1619 21.4934 44.2499 20.5387 44.2499C19.584 44.2499 18.6587 44.1619 17.7334 43.9564C17.9537 43.8244 18.1006 43.6043 18.1006 43.3256V34.1262C18.2475 34.1702 18.4237 34.1996 18.5853 34.2143C18.6734 34.2289 18.7468 34.2729 18.8497 34.2729C19.3931 34.3903 19.9512 34.4637 20.5093 34.4637H20.524C20.5387 34.4637 20.5681 34.449 20.5828 34.449C21.1115 34.449 21.6256 34.3903 22.125 34.3023C22.2572 34.2583 22.3894 34.2436 22.5215 34.2143C22.6537 34.1996 22.7859 34.1702 22.9181 34.1409V43.3402C22.9181 43.5896 23.065 43.8097 23.3 43.9711Z" fill="#35A0CD"/>
<path d="M31.6279 38.425C29.8948 40.9046 27.3539 42.7826 24.387 43.6776C24.4457 43.5602 24.5045 43.4282 24.5045 43.3108V33.4953C24.622 33.4366 24.7542 33.3779 24.857 33.3339C25.9145 33.6566 27.2217 34.0968 28.4554 34.6543C29.366 35.0652 30.0857 35.6814 30.5998 36.5617C30.7907 36.8845 30.9523 37.31 31.0698 37.8528C31.1139 38.1463 31.3489 38.3517 31.6279 38.425Z" fill="#B9F7FF"/>
<path d="M16.6318 43.6629C13.6796 42.7679 11.1387 40.8899 9.40552 38.381C9.66989 38.3077 9.89021 38.1316 9.96365 37.8822C10.1105 37.31 10.2868 36.8551 10.4336 36.5617C10.933 35.7254 11.6674 35.0945 12.578 34.6543C13.5915 34.1848 14.7371 33.7593 16.2059 33.3339C16.3234 33.3926 16.4262 33.4219 16.5437 33.4806V43.3108C16.5437 43.4429 16.5731 43.5602 16.6318 43.6629Z" fill="#B9F7FF"/>
<path d="M29.9241 23.3422C29.9241 26.7608 29.0429 30.0033 27.4713 32.5856C27.1041 32.4389 26.7369 32.3068 26.3844 32.1894C28.2644 30.5315 29.4982 28.1106 29.4982 25.3816V22.8141C29.4982 22.594 29.41 22.3886 29.2338 22.2418C29.0869 22.0951 28.8666 22.0218 28.6316 22.0364C27.251 22.1685 26.076 21.9924 24.8863 21.4789C24.431 21.2882 24.1078 21.1268 23.7994 20.9947C22.2572 20.2465 21.9634 20.3492 20.2744 21.3322L19.8044 21.611C17.4691 22.9608 15.545 23.1075 12.3578 22.8727C12.1375 22.8581 11.9318 22.9314 11.785 23.0781C11.6234 23.2249 11.5353 23.4303 11.5353 23.6504V25.3963C11.5353 28.1253 12.7543 30.5462 14.6344 32.2041C14.2672 32.3215 13.8853 32.4535 13.5475 32.5709C12.02 30.0327 11.124 26.7902 11.124 23.3422C11.124 15.8302 16.015 12.4116 20.5534 12.4116C23.0063 12.4116 25.2975 13.3653 26.9719 15.0966C28.9107 17.0773 29.9241 19.9237 29.9241 23.3422Z" fill="#C2A886"/>
<path d="M27.956 23.6357V25.3963C27.956 28.4774 26.0907 31.1184 23.4616 32.2775C23.4176 32.2922 23.3735 32.3215 23.3294 32.3362C22.9769 32.4829 22.6244 32.5856 22.2719 32.6736C22.0663 32.7176 21.8754 32.747 21.6991 32.791H21.6404C21.4347 32.835 21.2144 32.8497 21.0088 32.8497C20.671 32.8937 20.3185 32.8644 19.9807 32.8497C19.775 32.835 19.5694 32.835 19.3785 32.791C19.1582 32.747 18.9525 32.7176 18.7469 32.659C18.4532 32.5856 18.1741 32.4976 17.895 32.3949C17.8069 32.3509 17.7041 32.3215 17.616 32.2775C14.9722 31.1331 13.1216 28.4774 13.1216 25.3963V24.4867C16.0591 24.6334 18.2035 24.3693 20.6269 22.9608L21.1116 22.682C22.3013 21.9924 22.3013 21.9924 23.1826 22.4033C23.4763 22.5353 23.8288 22.726 24.2988 22.9021C25.4445 23.4156 26.6488 23.6504 27.956 23.6357Z" fill="#F0E2BF"/>
<path d="M12.1373 49.4143C11.7848 49.4143 11.3589 49.4583 10.9476 49.5463C10.9476 50.1479 10.9036 50.7054 10.9036 51.3217C10.9036 51.9379 10.9476 52.4807 10.9476 53.053C10.9476 53.097 10.9917 53.1263 11.0064 53.1263C11.4323 53.141 11.8142 53.185 12.152 53.185C13.1801 53.185 13.8264 52.8622 13.8264 51.3217C13.8117 49.8545 13.1654 49.4143 12.1373 49.4143ZM12.2695 52.158H12.1373V50.5147H12.2695C12.4164 50.5147 12.5486 50.6027 12.5486 51.3217C12.5486 52.0553 12.4164 52.158 12.2695 52.158Z" fill="#0A0708"/>
<path d="M12.5487 51.3071C12.5487 52.0554 12.4165 52.1434 12.2696 52.1434H12.1375V50.5001H12.2696C12.4165 50.5148 12.5487 50.6028 12.5487 51.3071Z" fill="#FFF1F5"/>
<path d="M29.6304 51.7765C29.5423 51.6444 29.4248 51.5271 29.2926 51.4977C29.6892 51.307 29.9389 50.9402 29.9389 50.5147C29.9389 49.4877 29.322 49.4143 28.3967 49.4143C28.0589 49.4143 27.5448 49.4877 27.1335 49.5463V53.1263C27.1335 53.141 27.1776 53.185 27.207 53.185H28.3673C28.3673 52.6862 28.3526 52.158 28.3526 51.6591H28.4407C28.5582 52.1139 28.7198 52.6275 28.9107 53.1557C28.9107 53.1997 28.9695 53.229 28.9842 53.229H29.4836C29.6892 53.229 29.9095 53.229 30.1298 53.185C29.9976 52.7155 29.8654 52.2753 29.6304 51.7765ZM28.426 50.8962H28.3379V50.3386C28.3967 50.324 28.4261 50.324 28.4848 50.324C28.7051 50.324 28.7639 50.4413 28.7639 50.6174C28.7639 50.7935 28.6317 50.8962 28.426 50.8962Z" fill="#0A0708"/>
<path d="M28.7638 50.6174C28.7638 50.7788 28.6316 50.8962 28.426 50.8962H28.3379V50.3386C28.3966 50.324 28.426 50.324 28.4848 50.324C28.7051 50.324 28.7638 50.4414 28.7638 50.6174Z" fill="#FFF1F5"/>
<path d="M24.8864 49.4143C23.9904 49.4877 23.4617 50.1039 23.4617 51.3217C23.4617 52.7595 24.0198 53.229 25.1654 53.229C26.0614 53.185 26.5901 52.5394 26.5901 51.3217C26.5754 49.8691 26.0173 49.4143 24.8864 49.4143ZM25.0332 52.158C24.8864 52.158 24.7542 52.0699 24.7542 51.3217C24.7542 50.6174 24.8423 50.5147 25.0039 50.5147C25.1948 50.5147 25.327 50.6027 25.327 51.3217C25.3123 52.0553 25.1801 52.158 25.0332 52.158Z" fill="#0A0708"/>
<path d="M25.3123 51.3071C25.3123 52.0554 25.1801 52.1434 25.0332 52.1434C24.8863 52.1434 24.7542 52.0554 24.7542 51.3071C24.7542 50.6028 24.8423 50.5001 25.0038 50.5001C25.1801 50.5148 25.3123 50.6028 25.3123 51.3071Z" fill="#FFF1F5"/>
<path d="M15.6184 49.4143C14.7665 49.4877 14.2378 50.1039 14.2378 51.3217C14.2378 52.7595 14.7665 53.229 15.9415 53.229C16.7934 53.185 17.3662 52.5394 17.3662 51.3217C17.3662 49.8691 16.7934 49.4143 15.6184 49.4143ZM15.7653 52.158C15.6184 52.158 15.5009 52.0699 15.5009 51.3217C15.5009 50.6174 15.5744 50.5147 15.7653 50.5147C15.9269 50.5147 16.0444 50.6027 16.0444 51.3217C16.059 52.0553 15.9562 52.158 15.7653 52.158Z" fill="#0A0708"/>
<path d="M16.0591 51.3071C16.0591 52.0554 15.9709 52.1434 15.78 52.1434C15.6331 52.1434 15.5156 52.0554 15.5156 51.3071C15.5156 50.6028 15.5891 50.5001 15.78 50.5001C15.9416 50.5148 16.0591 50.6028 16.0591 51.3071Z" fill="#FFF1F5"/>
<path d="M20.0101 52.158L20.1276 53.1263C19.8779 53.185 19.6723 53.185 19.4226 53.185C18.4092 53.185 17.7629 52.8622 17.7629 51.3217C17.7629 49.8691 18.4092 49.4143 19.4667 49.4143C19.7164 49.4143 19.8926 49.4877 20.1423 49.5463L20.0248 50.5147L19.4667 50.4707C19.217 50.4267 19.0408 50.6027 19.0408 51.307C19.0408 52.0553 19.2317 52.1873 19.4667 52.1873L20.0101 52.158Z" fill="#0A0708"/>
<path d="M23.2264 50.0453C23.2264 50.192 23.1824 50.3387 23.1824 50.5148C23.0942 50.5294 22.7711 50.5294 22.4333 50.5294V53.1704H21.2583C21.2436 53.1704 21.1995 53.1264 21.1995 53.1117C21.1849 52.5102 21.1849 51.9233 21.1849 51.3071V50.5294C20.9058 50.5148 20.6267 50.5148 20.4945 50.5148C20.4799 50.5148 20.4358 50.4708 20.4358 50.4414V49.4877C20.6414 49.4437 21.6695 49.4437 21.8605 49.4437C22.0661 49.4437 22.9474 49.4437 23.1236 49.4877C23.1383 49.4877 23.1824 49.4877 23.1824 49.5464C23.1824 49.6931 23.2264 49.8692 23.2264 50.0453Z" fill="#0A0708"/>
</svg>
