<svg width="71" height="52" viewBox="0 0 71 52" fill="none" xmlns="http://www.w3.org/2000/svg">
<path d="M69.4638 44.2985H65.3058V17.0514C65.3058 13.8522 62.7356 11.2578 59.5599 11.2578H51.9033C51.8898 9.98084 51.8629 8.67695 51.8629 7.33275C51.8629 7.14456 51.7821 6.95637 51.6341 6.82195C51.4996 6.68753 51.3247 6.6472 51.1228 6.62032C45.3769 6.76818 40.3442 4.73842 35.6614 0.396628C35.3923 0.141228 34.9617 0.141228 34.706 0.396628C29.9694 4.73842 24.9233 6.76818 19.2312 6.62032C19.0428 6.66064 18.8544 6.68753 18.7199 6.82195C18.5853 6.95637 18.518 7.14456 18.518 7.33275C18.518 8.67695 18.4777 9.98084 18.4642 11.2578H10.8075C7.64528 11.2578 5.06167 13.8522 5.06167 17.0514V44.2985H0.890196C0.499961 44.2985 0.177002 44.6211 0.177002 45.0109C0.177002 48.479 2.76062 51.3152 5.92286 51.3152H64.4446C67.6069 51.3152 70.177 48.479 70.177 45.0109C70.1635 44.6211 69.854 44.2985 69.4638 44.2985ZM59.5599 12.6961C61.9552 12.6961 63.8929 14.6452 63.8929 17.0514V44.2985H61.8071V17.0514C61.8071 15.8013 60.8114 14.7931 59.5599 14.7931H51.9302C51.9302 14.1076 51.9167 13.3951 51.9167 12.6961H59.5599ZM19.8502 16.6615C19.8502 15.2501 19.8637 13.7581 19.8906 12.2257C19.904 10.8815 19.9444 9.49692 19.9444 8.05861C25.5153 8.04517 30.5346 6.00198 35.2039 1.8887C39.8329 6.00198 44.8521 8.04517 50.4365 8.05861C50.45 9.38938 50.4769 10.6664 50.4903 11.9434C50.4903 11.9568 50.4769 11.9837 50.4769 12.0106V12.2391C50.5576 17.3605 50.6114 21.8636 49.8579 25.8156C49.8175 26.0038 49.7772 26.1786 49.7368 26.3667C49.6291 26.8103 49.5484 27.2405 49.4273 27.6706C49.36 27.9395 49.2793 28.1949 49.1851 28.4503C49.0774 28.7729 48.9832 29.1224 48.8487 29.445C48.741 29.7407 48.6199 30.0095 48.5123 30.2784C48.3911 30.5875 48.2566 30.8698 48.122 31.1521C47.9875 31.4478 47.826 31.7032 47.6914 31.9721C47.5165 32.2678 47.355 32.5501 47.1801 32.8324C47.0052 33.0878 46.8437 33.3432 46.6687 33.5986C46.4669 33.8674 46.2381 34.1631 46.0228 34.432C45.8344 34.6739 45.6461 34.9159 45.4442 35.131C45.1751 35.4267 44.8925 35.709 44.6099 36.0047C44.4081 36.2063 44.1928 36.4214 43.9775 36.623C43.6411 36.9322 43.2777 37.2145 42.901 37.5237C42.6722 37.6984 42.4704 37.8597 42.2281 38.0479C41.7975 38.3571 41.34 38.6797 40.8556 38.9888C40.6268 39.1233 40.4384 39.2846 40.2097 39.419C39.6445 39.7819 39.0255 40.118 38.42 40.4675C38.2316 40.5481 38.0836 40.6557 37.8952 40.7632C37.0609 41.2068 36.1728 41.6369 35.2308 42.0402C34.2754 41.6101 33.3873 41.1799 32.5261 40.7632C32.3915 40.6825 32.2704 40.6153 32.109 40.5212C31.4361 40.1583 30.7902 39.7819 30.1712 39.4056C29.9963 39.298 29.8483 39.177 29.6733 39.0829C29.1485 38.72 28.6103 38.3839 28.1393 38.021C27.9644 37.8866 27.8029 37.7522 27.6414 37.6043C27.1974 37.2683 26.7668 36.9188 26.39 36.5558C26.2151 36.408 26.067 36.2467 25.9056 36.1122C25.5422 35.7493 25.2058 35.3998 24.8963 35.0369C24.7483 34.889 24.6272 34.7277 24.4792 34.553C24.1697 34.19 23.9006 33.8136 23.618 33.4373C23.5103 33.2894 23.3892 33.1147 23.295 32.9399C23.0394 32.5635 22.7971 32.1603 22.5818 31.757C22.5011 31.6091 22.4069 31.4344 22.3396 31.2731C22.1109 30.843 21.909 30.3994 21.7476 29.9558C21.6937 29.8213 21.6264 29.6869 21.5726 29.5391C21.3842 29.0417 21.2093 28.5309 21.0613 28.0201C21.0478 27.9126 21.0075 27.8319 20.9805 27.7513C20.1059 24.6193 19.904 21.1378 19.8637 17.2664V16.6615H19.8502ZM18.4911 20.506V20.5597C18.5449 21.3797 18.5988 22.1997 18.6795 23.0062C18.6795 23.0734 18.693 23.1406 18.693 23.2347C18.7602 23.8531 18.8275 24.4714 18.9352 25.0628C18.9755 25.3048 19.0025 25.5468 19.0563 25.7753C19.1236 26.2054 19.2043 26.6356 19.3119 27.0523C19.3927 27.3883 19.46 27.7244 19.5676 28.047C19.5811 28.1142 19.608 28.1814 19.6214 28.2486C19.6214 28.2621 19.6214 28.2889 19.6349 28.3024C19.6887 28.5443 19.7695 28.7863 19.8367 29.0014C19.9444 29.3106 20.0386 29.5928 20.1462 29.902C20.1866 29.9826 20.2135 30.0767 20.2539 30.1708C20.3615 30.4128 20.4423 30.6279 20.5499 30.8698C20.671 31.1252 20.7921 31.3806 20.9133 31.636C20.9671 31.7436 20.994 31.8242 21.0478 31.9317C21.0882 31.9855 21.1016 32.0527 21.1286 32.1065C21.2362 32.3081 21.3304 32.4963 21.4515 32.6845C21.5726 32.913 21.7072 33.1281 21.8417 33.3566C21.8956 33.4373 21.9494 33.5314 21.9898 33.612C22.0705 33.733 22.1378 33.854 22.2185 33.975C22.3396 34.1228 22.4473 34.2841 22.5549 34.4589C22.6895 34.6471 22.8241 34.8352 22.9721 35.0234C23.0259 35.0906 23.0932 35.1444 23.147 35.2116C23.2816 35.3998 23.4161 35.5746 23.5776 35.7359C23.6853 35.8703 23.8064 35.9913 23.914 36.1257C24.0486 36.2601 24.1697 36.3945 24.3043 36.5424C24.3446 36.5962 24.3715 36.623 24.4254 36.6768C24.6676 36.9322 24.9233 37.1876 25.1924 37.4296C25.3 37.5371 25.4211 37.6312 25.5153 37.7387C25.5961 37.8059 25.6634 37.8597 25.7441 37.9269C25.8517 38.0076 25.9459 38.1151 26.0536 38.1958C26.39 38.4646 26.7399 38.7603 27.1166 39.0292C27.1974 39.1098 27.3185 39.177 27.4261 39.2711C27.4665 39.2846 27.4934 39.3249 27.5338 39.3383C27.6818 39.4593 27.8298 39.5668 27.9778 39.6609C28.4219 39.9701 28.866 40.2793 29.3504 40.5616C29.4311 40.6153 29.5253 40.6691 29.6061 40.7363C29.6195 40.7363 29.6195 40.7363 29.6464 40.7498C29.8214 40.8573 29.9829 40.9514 30.1578 41.0589C30.7364 41.3815 31.315 41.731 31.934 42.0536C31.9878 42.0671 32.0417 42.094 32.082 42.1208C32.2301 42.1881 32.3915 42.2687 32.5261 42.3494C33.2931 42.7257 34.0601 43.1021 34.9079 43.4651C35.0155 43.5054 35.0963 43.5188 35.2039 43.5188C35.2443 43.5188 35.2712 43.5054 35.325 43.5054C35.3788 43.4919 35.4327 43.4919 35.4731 43.4651C36.3343 43.0887 37.1147 42.7123 37.8817 42.3359C38.0163 42.2687 38.1374 42.2015 38.272 42.1477C38.2854 42.1343 38.3123 42.1343 38.3258 42.1074C38.3662 42.094 38.3796 42.0671 38.4065 42.0536C39.0524 41.731 39.6714 41.3681 40.277 41.032C40.4115 40.9514 40.5461 40.8573 40.6941 40.7766C40.7479 40.7632 40.7748 40.7229 40.8287 40.7094C40.8825 40.6691 40.9498 40.6422 41.0036 40.6019C41.515 40.2793 41.9994 39.9567 42.4569 39.6341C42.5645 39.5534 42.6587 39.4862 42.7664 39.4056C42.8471 39.3383 42.9413 39.2711 43.0221 39.2174C43.0894 39.1636 43.1566 39.1098 43.2239 39.0695C43.6141 38.7603 44.0044 38.4512 44.3812 38.142C44.4215 38.1017 44.4484 38.0748 44.4888 38.0345C44.6368 37.9 44.7848 37.7791 44.9194 37.6581C44.9867 37.5909 45.054 37.5371 45.1213 37.4699C45.6326 36.986 46.0901 36.5155 46.5342 36.0181C46.6015 35.9509 46.6553 35.8837 46.7226 35.8165C47.1532 35.3192 47.5434 34.8084 47.9067 34.2976C47.9605 34.2304 48.0144 34.1631 48.0413 34.0959C48.4046 33.5851 48.7276 33.034 49.0371 32.4963C49.0774 32.4426 49.1043 32.3753 49.1447 32.3081C49.4407 31.757 49.7099 31.179 49.9521 30.601C49.9655 30.5472 49.9925 30.5203 50.0059 30.4666C50.2481 29.8482 50.4634 29.2568 50.6518 28.625C50.6518 28.5847 50.6653 28.5712 50.6653 28.5443C51.2304 26.6759 51.5534 24.6999 51.7418 22.603C51.7418 22.5895 51.7418 22.5895 51.7418 22.5626C51.7956 21.9174 51.8494 21.2453 51.8763 20.5866V20.4119C51.9167 19.8339 51.9302 19.229 51.9302 18.6375C51.9436 18.4359 51.9436 18.2074 51.9436 18.0058C51.9436 17.6294 51.9571 17.2396 51.9571 16.8632V16.2717H59.5734C60.0174 16.2717 60.3942 16.6481 60.3942 17.0917V44.3388H10.0001V17.0917C10.0001 16.6347 10.3366 16.2717 10.8075 16.2717H18.4238C18.4104 17.6966 18.4238 19.1214 18.4911 20.506ZM44.583 45.7368C44.3408 46.1132 43.9102 46.382 43.4392 46.382H26.9148C26.4304 46.382 26.0132 46.1132 25.771 45.7368H44.583ZM6.48804 17.0514C6.48804 14.6452 8.42576 12.6961 10.7941 12.6961H18.4373C18.4238 13.4086 18.4238 14.0941 18.3969 14.7931H10.7806C9.54264 14.7931 8.5334 15.8013 8.5334 17.0514V44.2985H6.46112V17.0514H6.48804ZM64.4311 49.8904H5.90941C3.75639 49.8904 1.95324 48.0757 1.6572 45.7368H24.237C24.5599 46.9331 25.6364 47.8069 26.9283 47.8069H43.4527C44.731 47.8069 45.8075 46.9331 46.117 45.7368H68.7103C68.3873 48.0757 66.5842 49.8904 64.4311 49.8904Z" fill="#0A0708"/>
<path d="M68.6968 45.7367C68.3873 48.0756 66.5976 49.8903 64.4446 49.8903H5.92286C3.76984 49.8903 1.96669 48.0756 1.67065 45.7367H24.2504C24.5734 46.933 25.6499 47.8068 26.9417 47.8068H43.4661C44.7445 47.8068 45.821 46.933 46.1305 45.7367H68.6968Z" fill="#FF7195"/>
<path d="M18.4508 12.6962C18.4373 13.4086 18.4373 14.0941 18.4104 14.7931H10.7941C9.55611 14.7931 8.54688 15.8013 8.54688 17.0514V44.2985H6.47461V17.0514C6.47461 14.6453 8.41233 12.6962 10.7806 12.6962H18.4508Z" fill="#FFB3C6"/>
<path d="M44.583 45.7367C44.3408 46.1131 43.9102 46.3819 43.4392 46.3819H26.9148C26.4304 46.3819 26.0132 46.1131 25.771 45.7367H44.583Z" fill="#FFB3C6"/>
<path d="M63.8929 17.0514V44.2985H61.8072V17.0514C61.8072 15.8013 60.8114 14.7931 59.56 14.7931H51.9302C51.9302 14.1076 51.9167 13.3952 51.9167 12.6962H59.56C61.9552 12.6962 63.8929 14.6453 63.8929 17.0514Z" fill="#FFB3C6"/>
<path d="M60.3809 17.0513V44.2984H10.0002V17.0513C10.0002 16.5943 10.3367 16.2313 10.8076 16.2313H18.4239C18.4239 17.6965 18.4374 19.1214 18.5047 20.5059V20.5597C18.5585 21.3796 18.6123 22.1996 18.6931 23.0061C18.6931 23.0733 18.7065 23.1405 18.7065 23.2346C18.7738 23.853 18.8411 24.4713 18.9487 25.0628C18.9891 25.3047 19.016 25.5467 19.0698 25.7752C19.1371 26.2053 19.2179 26.6355 19.3255 27.0522C19.4062 27.3883 19.4735 27.7243 19.5812 28.0469C19.5946 28.1141 19.6215 28.1813 19.635 28.2485C19.635 28.262 19.635 28.2889 19.6485 28.3023C19.7023 28.5443 19.783 28.7862 19.8503 29.0013C19.9579 29.3105 20.0521 29.5927 20.1598 29.9019C20.2002 29.9826 20.2271 30.0767 20.2675 30.1708C20.3751 30.4127 20.4558 30.6278 20.5635 30.8698C20.6846 31.1252 20.8057 31.3805 20.9268 31.6359C20.9806 31.7435 21.0075 31.8241 21.0614 31.9317C21.1017 31.9854 21.1152 32.0526 21.1421 32.1064C21.2498 32.308 21.344 32.4962 21.4651 32.6844C21.5862 32.9129 21.7207 33.128 21.8553 33.3565C21.9091 33.4372 21.9629 33.5313 22.0033 33.6119C22.0841 33.7329 22.1513 33.8539 22.2321 33.9749C22.3532 34.1227 22.4608 34.284 22.5685 34.4588C22.7031 34.647 22.8376 34.8352 22.9856 35.0233C23.0395 35.0906 23.1068 35.1443 23.1606 35.2115C23.2951 35.3997 23.4297 35.5745 23.5912 35.7358C23.6988 35.8702 23.8199 35.9912 23.9276 36.1256C24.0621 36.26 24.1833 36.3944 24.3178 36.5423C24.3582 36.5961 24.3851 36.623 24.4389 36.6767C24.6811 36.9321 24.9368 37.1875 25.2059 37.4295C25.3136 37.537 25.4347 37.6311 25.5289 37.7387C25.6096 37.8059 25.6769 37.8596 25.7576 37.9268C25.8653 38.0075 25.9595 38.115 26.0671 38.1957C26.4036 38.4645 26.7534 38.7602 27.1302 39.0291C27.2109 39.1097 27.332 39.177 27.4397 39.2711C27.4801 39.2845 27.507 39.3248 27.5473 39.3383C27.6954 39.4592 27.8434 39.5668 27.9914 39.6609C28.4355 39.97 28.8795 40.2792 29.364 40.5615C29.4447 40.6153 29.5389 40.669 29.6196 40.7362C29.6331 40.7362 29.6331 40.7362 29.66 40.7497C29.8349 40.8572 29.9964 40.9513 30.1713 41.0588C30.75 41.3815 31.3286 41.7309 31.9476 42.0536C32.0014 42.067 32.0552 42.0939 32.0956 42.1208C32.2436 42.188 32.4051 42.2686 32.5397 42.3493C33.3067 42.7257 34.0737 43.102 34.9214 43.465C35.0291 43.5053 35.1098 43.5187 35.2175 43.5187C35.2578 43.5187 35.2848 43.5053 35.3386 43.5053C35.3924 43.4919 35.4462 43.4919 35.4866 43.465C36.3478 43.0886 37.1283 42.7122 37.8953 42.3358C38.0299 42.2686 38.151 42.2014 38.2855 42.1476C38.299 42.1342 38.3259 42.1342 38.3393 42.1073C38.3797 42.0939 38.3932 42.067 38.4201 42.0536C39.066 41.7309 39.685 41.368 40.2905 41.032C40.4251 40.9513 40.5596 40.8572 40.7077 40.7766C40.7615 40.7631 40.7884 40.7228 40.8422 40.7094C40.8961 40.669 40.9633 40.6421 41.0172 40.6018C41.5285 40.2792 42.0129 39.9566 42.4705 39.634C42.5781 39.5533 42.6723 39.4861 42.7799 39.4055C42.8607 39.3383 42.9549 39.271 43.0356 39.2173C43.1029 39.1635 43.1702 39.1097 43.2375 39.0694C43.6277 38.7603 44.0179 38.4511 44.3947 38.1419C44.4351 38.1016 44.462 38.0747 44.5024 38.0344C44.6504 37.9 44.7984 37.779 44.933 37.658C45.0002 37.5908 45.0675 37.537 45.1348 37.4698C45.6462 36.9859 46.1037 36.5154 46.5477 36.0181C46.615 35.9508 46.6688 35.8836 46.7361 35.8164C47.1667 35.3191 47.557 34.8083 47.9203 34.2975C47.9741 34.2303 48.0279 34.1631 48.0549 34.0959C48.4182 33.5851 48.7411 33.0339 49.0506 32.4962C49.091 32.4425 49.1179 32.3753 49.1583 32.308C49.4543 31.7569 49.7234 31.1789 49.9656 30.6009C49.9791 30.5471 50.006 30.5203 50.0195 30.4665C50.2617 29.8482 50.477 29.2567 50.6654 28.6249C50.6654 28.5846 50.6788 28.5712 50.6788 28.5443C51.244 26.6758 51.567 24.6998 51.7554 22.6029C51.7554 22.5894 51.7554 22.5894 51.7554 22.5625C51.8092 21.9173 51.863 21.2452 51.8899 20.5866V20.4118C51.9303 19.8338 51.9437 19.2289 51.9437 18.6375C51.9572 18.4358 51.9572 18.2073 51.9572 18.0057C51.9572 17.6293 51.9706 17.2395 51.9706 16.8631V16.2716H59.587C60.0041 16.2313 60.3809 16.6077 60.3809 17.0513Z" fill="#FFF1F5"/>
<path d="M50.4636 12.2122V11.9837C50.4636 11.9434 50.4771 11.9299 50.4771 11.9165C50.4636 10.6529 50.4367 9.37594 50.4232 8.03174C44.8254 8.01829 39.8196 5.97509 35.1906 1.86182C30.5213 5.97509 25.5155 8.01829 19.9311 8.03174C19.9311 9.47004 19.8907 10.8546 19.8773 12.1988C19.8638 13.7312 19.8369 15.2232 19.8369 16.6347V17.253C19.8773 21.1378 20.0791 24.6193 20.9538 27.7378C20.9942 27.8185 21.0211 27.9126 21.0345 28.0067C21.1826 28.5175 21.3575 29.0283 21.5459 29.5256C21.5997 29.66 21.667 29.7945 21.7208 29.9423C21.8957 30.3859 22.0976 30.8295 22.3129 31.2596C22.3802 31.4075 22.4609 31.5823 22.5551 31.7436C22.7839 32.1334 23.0126 32.5501 23.2683 32.9265C23.3759 33.1012 23.497 33.2625 23.5912 33.4238C23.8604 33.8002 24.143 34.1766 24.4525 34.5395C24.587 34.7143 24.7081 34.8621 24.8696 35.0234C25.1791 35.3864 25.5155 35.7359 25.8788 36.0988C26.0268 36.2332 26.1883 36.3945 26.3633 36.5424C26.74 36.9053 27.1706 37.2414 27.6147 37.5909C27.7627 37.7253 27.9376 37.8597 28.1126 38.0076C28.597 38.3705 29.1218 38.7066 29.6466 39.0695C29.8215 39.177 29.9696 39.298 30.1445 39.3921C30.7635 39.7685 31.4094 40.1449 32.0822 40.5078C32.2302 40.5885 32.3513 40.6557 32.4993 40.7498C33.3606 41.1799 34.2487 41.6101 35.2041 42.0268C36.146 41.6101 37.0341 41.1934 37.8684 40.7498C38.0568 40.6422 38.2049 40.5481 38.3932 40.454C39.0122 40.118 39.6312 39.7685 40.1829 39.4056C40.4252 39.2711 40.6135 39.1098 40.8288 38.9754C41.3133 38.6662 41.7708 38.3436 42.2014 38.0345C42.4436 37.8463 42.6455 37.6715 42.8742 37.5102C43.251 37.201 43.6143 36.9188 43.9507 36.6096C44.1795 36.408 44.3813 36.1929 44.5832 35.9913C44.8792 35.6955 45.1483 35.4133 45.4175 35.1175C45.6193 34.889 45.8077 34.6605 45.9961 34.4185C46.2248 34.1497 46.4402 33.854 46.642 33.5851C46.8169 33.3297 46.9784 33.0743 47.1533 32.8189C47.3283 32.5501 47.4897 32.2544 47.6647 31.9586C47.7992 31.6898 47.9607 31.4344 48.0953 31.1387C48.2299 30.8698 48.3644 30.5741 48.4855 30.2649C48.6066 29.9961 48.7277 29.7138 48.8219 29.4315C48.9565 29.1089 49.0641 28.7594 49.1583 28.4368C49.2391 28.1814 49.3333 27.926 49.4006 27.6572C49.5217 27.227 49.6024 26.7969 49.7101 26.3533C49.7504 26.1651 49.7908 25.9904 49.8312 25.8022C50.5982 21.8367 50.5443 17.3337 50.4636 12.2122ZM47.7589 19.6995C47.6512 22.3475 47.3821 25.7753 46.1845 28.8266C44.5024 33.034 41.1114 36.2063 35.5001 38.8679C35.3925 38.9216 35.2983 38.9351 35.1906 38.9351C35.083 38.9351 34.9888 38.9216 34.8811 38.8679C29.2429 36.2063 25.8384 33.0071 24.1564 28.8401C22.9453 25.7753 22.6628 22.3475 22.582 19.6995C22.5013 17.3605 22.5282 14.9813 22.5686 12.6827L22.582 11.2713C22.582 10.9083 22.8377 10.6261 23.201 10.5723C27.3052 10.0077 31.1941 8.36779 34.76 5.7197C35.0157 5.53151 35.3521 5.53151 35.6212 5.7197C39.2006 8.38123 43.0761 10.0077 47.1533 10.5723C47.5167 10.6261 47.7723 10.9083 47.7723 11.2713H47.0726L47.7723 11.3116C47.8261 14.0538 47.88 16.8901 47.7589 19.6995Z" fill="#F0E2BF"/>
<path d="M47.7587 11.2981L47.059 11.2578H47.7587C47.7587 10.8949 47.503 10.6126 47.1397 10.5588C43.0759 9.99423 39.187 8.36774 35.6076 5.70621C35.3519 5.51802 35.0155 5.51802 34.7464 5.70621C31.167 8.3543 27.2916 9.99423 23.1874 10.5588C22.8241 10.6126 22.5684 10.8949 22.5684 11.2578L22.5549 12.6692C22.5146 14.9812 22.4877 17.347 22.5684 19.686C22.6491 22.3341 22.9317 25.7618 24.1428 28.8266C25.8248 32.9936 29.2158 36.1928 34.8675 38.8544C34.9752 38.9081 35.0693 38.9216 35.177 38.9216C35.2847 38.9216 35.3789 38.9081 35.4865 38.8544C41.0978 36.1928 44.5023 33.0071 46.1709 28.8131C47.3685 25.7752 47.6376 22.3341 47.7452 19.686C47.8798 16.89 47.826 14.0537 47.7587 11.2981ZM46.3458 19.6457C46.2381 22.1728 45.9825 25.4526 44.879 28.3023C43.3585 32.0661 40.277 34.9696 35.2039 37.4295C30.0905 34.9562 26.9955 32.0527 25.4884 28.3023C24.3581 25.4526 24.1159 22.1728 24.0217 19.6457C23.9544 17.3336 23.9678 14.9812 24.0082 12.6961L24.0217 11.8761C27.9778 11.2443 31.7322 9.65818 35.2039 7.15796C38.6757 9.65818 42.4165 11.2443 46.3727 11.8761C46.4131 14.4301 46.44 17.0648 46.3458 19.6457Z" fill="#0A0708"/>
<path d="M46.3593 11.8761C42.4031 11.2443 38.6623 9.65819 35.1905 7.15796C31.7188 9.65819 27.951 11.2443 24.0083 11.8761L23.9948 12.6961C23.9545 14.9812 23.941 17.3471 24.0083 19.6457C24.1159 22.1728 24.3447 25.4526 25.475 28.3023C26.9821 32.0392 30.0771 34.9427 35.1905 37.4295C40.2636 34.9696 43.3451 32.0661 44.8656 28.3023C45.9825 25.4526 46.2382 22.1728 46.3324 19.6457C46.44 17.0648 46.4131 14.4301 46.3593 11.8761ZM43.3854 23.6111C43.3854 24.4714 42.6723 25.1838 41.7976 25.1838H38.0836V28.9476C38.0836 29.8213 37.3705 30.5337 36.4958 30.5337H33.8583C32.9971 30.5337 32.2974 29.8213 32.2974 28.9476V25.1838H28.5565C27.6819 25.1838 26.9821 24.4714 26.9821 23.6111V20.9227C26.9821 20.0355 27.6684 19.3499 28.5565 19.3499H32.2974V15.5593C32.2974 14.6855 32.9837 13.9865 33.8583 13.9865H36.4958C37.3705 13.9865 38.0836 14.699 38.0836 15.5593V19.3499H41.7976C42.6857 19.3499 43.3854 20.0489 43.3854 20.9227V23.6111Z" fill="#B9F7FF"/>
<path d="M41.7976 19.35H38.0837V15.5593C38.0837 14.699 37.3705 13.9866 36.4958 13.9866H33.8584C32.9837 13.9866 32.2974 14.6856 32.2974 15.5593V19.35H28.5566C27.6685 19.35 26.9822 20.0355 26.9822 20.9227V23.6111C26.9822 24.4714 27.6819 25.1838 28.5566 25.1838H32.2974V28.9476C32.2974 29.8213 32.9972 30.5338 33.8584 30.5338H36.4958C37.3705 30.5338 38.0837 29.8213 38.0837 28.9476V25.1838H41.7976C42.6723 25.1838 43.3855 24.4714 43.3855 23.6111V20.9227C43.3855 20.0624 42.6858 19.35 41.7976 19.35ZM41.9591 23.6111C41.9591 23.6649 41.8918 23.7455 41.7842 23.7455H37.357C36.9668 23.7455 36.6439 24.0681 36.6439 24.4579V28.9342C36.6439 29.0148 36.5766 29.1089 36.4958 29.1089H33.8584C33.7777 29.1089 33.7238 29.0283 33.7238 28.9342V24.4579C33.7238 24.0681 33.4143 23.7455 33.0241 23.7455H28.5566C28.4758 23.7455 28.422 23.6783 28.422 23.6111V20.9227C28.422 20.8689 28.422 20.7883 28.5566 20.7883H33.0241C33.4143 20.7883 33.7238 20.4657 33.7238 20.0758V15.5593C33.7238 15.519 33.7373 15.4249 33.8584 15.4249H36.4958C36.5631 15.4249 36.6439 15.4786 36.6439 15.5593V20.0758C36.6439 20.4657 36.9668 20.7883 37.357 20.7883H41.7842C41.8649 20.7883 41.9591 20.8286 41.9591 20.9227V23.6111Z" fill="#0A0708"/>
<path d="M41.959 20.9227V23.6112C41.959 23.6649 41.8917 23.7456 41.784 23.7456H37.3569C36.9667 23.7456 36.6437 24.0682 36.6437 24.458V28.9342C36.6437 29.0149 36.5764 29.109 36.4957 29.109H33.8583C33.7775 29.109 33.7237 29.0283 33.7237 28.9342V24.458C33.7237 24.0682 33.4142 23.7456 33.0239 23.7456H28.5564C28.4757 23.7456 28.4219 23.6784 28.4219 23.6112V20.9227C28.4219 20.869 28.4219 20.7883 28.5564 20.7883H33.0239C33.4142 20.7883 33.7237 20.4657 33.7237 20.0759V15.5593C33.7237 15.519 33.7371 15.4249 33.8583 15.4249H36.4957C36.563 15.4249 36.6437 15.4787 36.6437 15.5593V20.0759C36.6437 20.4657 36.9667 20.7883 37.3569 20.7883H41.784C41.8782 20.7883 41.959 20.8286 41.959 20.9227Z" fill="#35A0CD"/>
</svg>
