<svg width="71" height="51" viewBox="0 0 71 51" fill="none" xmlns="http://www.w3.org/2000/svg">
<path d="M64.2507 11.6581H7.69485C6.13896 11.6581 4.83984 12.986 4.83984 14.5553V43.5577C4.83984 45.1723 6.12385 46.47 7.69485 46.47H21.5166L21.9546 42.5769C22.0906 41.4301 22.2417 40.2983 22.3323 39.1666C22.5438 37.3106 23.5106 35.6054 25.0362 34.3077C25.9577 33.5381 27.0453 32.9647 28.2235 32.678C27.6042 31.4709 27.2266 30.1279 27.2266 28.6642V25.782C27.2266 25.3595 27.5589 25.0125 27.9819 24.9974C30.8671 24.8314 33.2235 24.1674 35.2326 22.9904C35.4592 22.8546 35.7764 22.8396 36.003 22.9754C38.571 24.3183 41.1994 24.9672 43.9184 24.937C44.2054 24.9521 44.3263 25.0125 44.4773 25.1634C44.6284 25.3143 44.7341 25.5255 44.7341 25.7368V28.6642C44.7341 30.1279 44.3564 31.4709 43.7371 32.678C44.8851 32.9647 45.9879 33.5381 46.9244 34.3077C48.4652 35.5903 49.4018 37.2955 49.6133 39.1364C49.6888 39.8004 49.7643 40.4945 49.8398 41.1886C49.9154 41.7771 49.9758 42.3958 50.0513 43.0145L50.4592 46.47H64.2658C65.8519 46.47 67.151 45.1723 67.151 43.5577V14.5553C67.1208 12.9709 65.8066 11.6581 64.2507 11.6581ZM45.716 25.2086C45.2779 25.2086 44.9154 24.8465 44.9154 24.4089C44.9154 19.4444 40.9275 15.4003 35.9879 15.4003C31.0483 15.4003 27.0604 19.4444 27.0604 24.4089C27.0604 24.8465 26.6978 25.2086 26.2598 25.2086C25.8217 25.2086 25.4592 24.8465 25.4592 24.4089C25.4592 18.5541 30.1873 13.7857 36.003 13.7857C41.8187 13.7857 46.5468 18.5541 46.5468 24.4089C46.5317 24.8465 46.154 25.2086 45.716 25.2086Z" fill="#F0E2BF"/>
<path d="M26.2446 25.2086L27.2265 25.782L44.7189 25.7217L45.7159 25.2086C45.7159 25.2086 45.444 14.9174 35.9878 14.3591C35.9878 14.3742 26.8186 15.2645 26.2446 25.2086Z" fill="#E09D31"/>
<path d="M64.2506 0.642578H7.69476C4.00896 0.642578 0.987793 3.67561 0.987793 7.38767V43.5426C0.987793 47.2848 4.00896 50.333 7.69476 50.333H64.2506C67.9515 50.333 70.9878 47.2848 70.9878 43.5426V7.40276C70.9878 3.67561 67.9515 0.642578 64.2506 0.642578ZM69.3715 43.5426C69.3715 46.3946 67.0603 48.7184 64.2506 48.7184H7.69476C4.88509 48.7184 2.60414 46.3946 2.60414 43.5426V7.40276C2.60414 4.5659 4.88509 2.24209 7.69476 2.24209H64.2506C67.0754 2.24209 69.3715 4.5659 69.3715 7.40276V43.5426Z" fill="#0A0708"/>
<path d="M64.2507 2.24207H7.69487C4.88521 2.24207 2.60425 4.56588 2.60425 7.40274V43.5577C2.60425 46.4096 4.88521 48.7334 7.69487 48.7334H64.2507C67.0755 48.7334 69.3716 46.4096 69.3716 43.5577V7.40274C69.3716 4.56588 67.0604 2.24207 64.2507 2.24207ZM24.7946 2.96637C26.6224 2.96637 28.1027 4.46025 28.1027 6.30119C28.1027 8.12705 26.6224 9.60584 24.7946 9.60584C22.997 9.60584 21.5166 8.12705 21.5166 6.30119C21.5015 4.46025 22.9819 2.96637 24.7946 2.96637ZM17.9819 2.96637C19.7794 2.96637 21.2447 4.46025 21.2447 6.30119C21.2447 8.12705 19.7794 9.60584 17.9819 9.60584C16.1541 9.60584 14.6586 8.12705 14.6586 6.30119C14.6586 4.46025 16.1541 2.96637 17.9819 2.96637ZM11.1239 2.96637C12.9214 2.96637 14.3867 4.46025 14.3867 6.30119C14.3867 8.12705 12.9214 9.60584 11.1239 9.60584C9.29607 9.60584 7.81573 8.12705 7.81573 6.30119C7.81573 4.46025 9.29607 2.96637 11.1239 2.96637ZM68.722 43.5426C68.722 46.0324 66.7281 48.0695 64.2507 48.0695H7.69487C5.23264 48.0695 3.22356 46.0324 3.22356 43.5426V14.5553C3.22356 12.0805 5.23264 10.0434 7.69487 10.0434H64.2507C66.7281 10.0434 68.722 12.0805 68.722 14.5553V43.5426Z" fill="#C2A886"/>
<path d="M64.2508 10.0435H7.69495C5.23271 10.0435 3.22363 12.0806 3.22363 14.5553V43.5577C3.22363 46.0475 5.23271 48.0846 7.69495 48.0846H64.2508C66.7281 48.0846 68.7221 46.0475 68.7221 43.5577V14.5553C68.7221 12.0806 66.7281 10.0435 64.2508 10.0435ZM23.1179 46.47L23.5408 42.773C23.6768 41.596 23.8279 40.4643 23.9185 39.3326C24.0847 37.899 24.84 36.5561 26.0484 35.53C26.9245 34.8057 27.9819 34.3077 29.0846 34.1115C29.2961 34.3831 29.5529 34.6548 29.7795 34.8962C29.7946 34.8962 29.7946 34.8962 29.7946 34.8962C30.1421 35.2583 30.5499 35.5601 30.9427 35.8619C31.0182 35.9223 31.0937 35.9827 31.1692 36.0128C31.5469 36.2844 31.9699 36.5108 32.423 36.707C32.5137 36.7522 32.6345 36.7975 32.7553 36.8428C32.8762 36.888 32.9819 36.9333 33.1028 36.9786L35.2176 44.2669C35.3082 44.614 35.6255 44.8403 35.988 44.8403C36.3505 44.8403 36.6526 44.614 36.7584 44.2669L38.8278 36.9937C38.9789 36.9333 39.1149 36.8729 39.2659 36.8277C39.3415 36.7824 39.4019 36.7673 39.4774 36.7371C39.9608 36.5259 40.3989 36.2995 40.8218 36.0128C40.8671 35.9977 40.8822 35.9525 40.9124 35.9374C41.6375 35.4394 42.3022 34.8509 42.846 34.1417C43.9336 34.3379 44.991 34.8358 45.8671 35.5601C47.0756 36.5711 47.846 37.9141 47.9971 39.3627C48.0726 40.0267 48.1481 40.7208 48.2236 41.3999C48.2992 42.0185 48.3596 42.6221 48.4351 43.2408L48.8128 46.5002H23.1179V46.47ZM36.0635 35.8619C36.0182 35.8619 35.988 35.877 35.9729 35.877C35.4291 35.8619 34.9004 35.8016 34.4019 35.6658C34.2508 35.6507 34.13 35.5903 33.9789 35.545C33.6164 35.4243 33.2539 35.2885 32.8913 35.1225C32.7554 35.0471 32.6043 34.9716 32.4684 34.8962C32.136 34.7 31.8339 34.4888 31.562 34.2624C31.411 34.1719 31.275 34.0512 31.139 33.9305C30.8671 33.6588 30.6254 33.3721 30.3686 33.0703C29.4321 31.8481 28.8279 30.324 28.8279 28.6641V26.5365C31.4563 26.3102 33.707 25.6764 35.6556 24.5748C38.0877 25.782 40.5348 26.4309 43.1028 26.5063V28.6491C43.1028 30.2938 42.5439 31.7877 41.6224 33.0251C41.3656 33.3269 41.1239 33.6437 40.8369 33.9003C40.6859 34.0361 40.5046 34.1719 40.3535 34.3077C40.0967 34.5039 39.84 34.6698 39.5681 34.8509C39.4019 34.9415 39.2206 35.0471 39.0242 35.1376C38.7221 35.2885 38.3747 35.4092 38.0424 35.5149C37.8762 35.5601 37.71 35.6356 37.559 35.6658C37.0756 35.7865 36.5771 35.8619 36.0635 35.8619ZM37.0454 37.4162L35.988 41.1584L34.9004 37.4162C35.2629 37.4614 35.6255 37.4765 35.988 37.4765C36.1995 37.4765 36.3958 37.4614 36.6073 37.4313C36.7584 37.4313 36.9094 37.4313 37.0454 37.4162ZM67.1209 43.5426C67.1209 45.1572 65.8369 46.4549 64.2357 46.4549H50.4291L50.0212 42.9994C49.9457 42.3807 49.8853 41.7771 49.8097 41.1735C49.7342 40.4794 49.6587 39.7853 49.5832 39.1213C49.3717 37.2804 48.4351 35.5752 46.8943 34.2926C45.9578 33.523 44.855 32.9496 43.707 32.6629C44.3263 31.4557 44.704 30.1128 44.704 28.6491V25.7217C44.704 25.5104 44.6134 25.2991 44.4472 25.1482C44.2962 24.9974 44.1753 24.937 43.8883 24.9219C41.1843 24.9672 38.556 24.3032 35.9729 22.9602C35.7463 22.8244 35.4291 22.8395 35.2025 22.9753C33.1934 24.1674 30.8218 24.8163 27.9517 24.9823C27.5288 24.9973 27.1964 25.3444 27.1964 25.7669V28.6491C27.1964 30.1128 27.5741 31.4557 28.1934 32.6629C27.0152 32.9496 25.9275 33.523 25.0061 34.2926C23.4653 35.5752 22.5137 37.2804 22.3022 39.1515C22.2115 40.2832 22.0454 41.4149 21.9245 42.5618L21.4865 46.4549H7.66474C6.09374 46.4549 4.80974 45.1572 4.80974 43.5426V14.5553C4.80974 12.9859 6.10885 11.6581 7.66474 11.6581H64.2206C65.7765 11.6581 67.1058 12.9859 67.1058 14.5553V43.5426H67.1209Z" fill="#0A0708"/>
<path d="M37.0452 37.4161L35.9878 41.1584L34.9001 37.4161C35.2627 37.4614 35.6253 37.4765 35.9878 37.4765C36.1993 37.4765 36.3956 37.4614 36.6071 37.4312C36.7582 37.4312 36.9092 37.4312 37.0452 37.4161Z" fill="#F25050"/>
<path d="M48.8277 46.4699H23.1177L23.5406 42.7729C23.6766 41.5959 23.8277 40.4642 23.9183 39.3325C24.0845 37.899 24.8398 36.556 26.0482 35.5299C26.9243 34.8056 27.9817 34.3076 29.0844 34.1115C29.2959 34.3831 29.5527 34.6547 29.7793 34.8961C29.7944 34.8961 29.7944 34.8961 29.7944 34.8961C30.1419 35.2583 30.5497 35.5601 30.9425 35.8619C31.018 35.9222 31.0935 35.9826 31.169 36.0128C31.5467 36.2844 31.9697 36.5107 32.4228 36.7069C32.5135 36.7521 32.6343 36.7974 32.7551 36.8427C32.876 36.888 32.9817 36.9332 33.1026 36.9785L35.2174 44.2668C35.308 44.6139 35.6253 44.8402 35.9878 44.8402C36.3503 44.8402 36.6524 44.6139 36.7582 44.2668L38.8276 36.9936C38.9787 36.9332 39.1147 36.8729 39.2657 36.8276C39.3413 36.7823 39.4017 36.7672 39.4772 36.7371C39.9606 36.5258 40.3987 36.2995 40.8216 36.0128C40.8669 35.9977 40.882 35.9524 40.9122 35.9373C41.6373 35.4393 42.302 34.8508 42.8458 34.1416C43.9334 34.3378 44.9908 34.8358 45.8669 35.5601C47.0754 36.5711 47.8458 37.9141 47.9969 39.3627C48.0724 40.0266 48.1479 40.7207 48.2234 41.3998C48.299 42.0185 48.3594 42.622 48.4349 43.2407L48.8277 46.4699Z" fill="#F6A6A6"/>
<path d="M43.1025 26.5214V28.6641C43.1025 30.3089 42.5436 31.8027 41.6221 33.0401C41.3653 33.3419 41.1237 33.6588 40.8366 33.9153C40.6856 34.0511 40.5043 34.1869 40.3533 34.3227C40.0965 34.5189 39.8397 34.6849 39.5678 34.866C39.4016 34.9565 39.2203 35.0621 39.024 35.1527C38.7218 35.3036 38.3744 35.4243 38.0421 35.5299C37.8759 35.5752 37.7098 35.6506 37.5587 35.6808C37.0602 35.7713 36.5617 35.8468 36.0481 35.8468C36.0028 35.8468 35.9726 35.8619 35.9575 35.8619C35.4137 35.8468 34.885 35.7864 34.3865 35.6506C34.2354 35.6355 34.1146 35.5752 33.9635 35.5299C33.601 35.4092 33.2385 35.2734 32.8759 35.1074C32.74 35.0319 32.5889 34.9565 32.453 34.881C32.1206 34.6849 31.8185 34.4736 31.5466 34.2473C31.3956 34.1567 31.2596 34.036 31.1236 33.9153C30.8517 33.6437 30.6101 33.357 30.3533 33.0552C29.4167 31.8329 28.8125 30.3089 28.8125 28.649V26.5214C31.4409 26.295 33.6916 25.6612 35.6403 24.5597C38.1025 25.797 40.5345 26.4459 43.1025 26.5214Z" fill="#C2A886"/>
<path d="M24.7945 2.96643C22.997 2.96643 21.5166 4.46031 21.5166 6.30126C21.5166 8.12711 22.997 9.6059 24.7945 9.6059C26.6223 9.6059 28.1027 8.12711 28.1027 6.30126C28.0876 4.46031 26.6072 2.96643 24.7945 2.96643ZM24.7945 7.9913C23.8731 7.9913 23.1178 7.23682 23.1178 6.30126C23.1178 5.33551 23.8731 4.58103 24.7945 4.58103C25.7613 4.58103 26.5015 5.33551 26.5015 6.30126C26.5015 7.23682 25.7311 7.9913 24.7945 7.9913Z" fill="#0A0708"/>
<path d="M26.5014 6.30128C26.5014 7.23684 25.731 7.99132 24.7944 7.99132C23.873 7.99132 23.1177 7.23684 23.1177 6.30128C23.1177 5.33554 23.873 4.58105 24.7944 4.58105C25.7461 4.58105 26.5014 5.32045 26.5014 6.30128Z" fill="#E09D31"/>
<path d="M11.1238 2.96643C9.29602 2.96643 7.81567 4.46031 7.81567 6.30126C7.81567 8.12711 9.29602 9.6059 11.1238 9.6059C12.9214 9.6059 14.3867 8.12711 14.3867 6.30126C14.3867 4.46031 12.9214 2.96643 11.1238 2.96643ZM11.1238 7.9913C10.2024 7.9913 9.41686 7.22173 9.41686 6.30126C9.41686 5.33551 10.1873 4.58103 11.1238 4.58103C12.0453 4.58103 12.8006 5.3506 12.8006 6.30126C12.7855 7.23682 12.0453 7.9913 11.1238 7.9913Z" fill="#0A0708"/>
<path d="M12.7853 6.30128C12.7853 7.23684 12.03 7.99132 11.1085 7.99132C10.1871 7.99132 9.40161 7.22175 9.40161 6.30128C9.40161 5.33554 10.172 4.58105 11.1085 4.58105C12.0451 4.58105 12.7853 5.35063 12.7853 6.30128Z" fill="#E09D31"/>
<path d="M17.9817 2.96643C16.1539 2.96643 14.6584 4.46031 14.6584 6.30126C14.6584 8.12711 16.1539 9.6059 17.9817 9.6059C19.7793 9.6059 21.2446 8.12711 21.2446 6.30126C21.2446 4.46031 19.7793 2.96643 17.9817 2.96643ZM17.9817 7.9913C17.0452 7.9913 16.2748 7.23682 16.2748 6.30126C16.2748 5.32043 17.03 4.58103 17.9817 4.58103C18.9032 4.58103 19.6585 5.3506 19.6585 6.30126C19.6434 7.23682 18.9032 7.9913 17.9817 7.9913Z" fill="#0A0708"/>
<path d="M19.6434 6.30128C19.6434 7.23684 18.8882 7.99132 17.9667 7.99132C17.0302 7.99132 16.2598 7.23684 16.2598 6.30128C16.2598 5.32045 17.0151 4.58105 17.9667 4.58105C18.9033 4.58105 19.6434 5.35063 19.6434 6.30128Z" fill="#E09D31"/>
<path d="M46.5315 24.4089C46.5315 24.8465 46.169 25.2087 45.7309 25.2087C45.2929 25.2087 44.9303 24.8465 44.9303 24.4089C44.9303 19.4444 40.9424 15.4004 36.0028 15.4004C31.0632 15.4004 27.0753 19.4444 27.0753 24.4089C27.0753 24.8465 26.7128 25.2087 26.2747 25.2087C25.8367 25.2087 25.4741 24.8465 25.4741 24.4089C25.4741 18.5541 30.2022 13.7858 36.0179 13.7858C41.8336 13.7858 46.5315 18.5541 46.5315 24.4089Z" fill="#0A0708"/>
</svg>
