<svg width="71" height="51" viewBox="0 0 71 51" fill="none" xmlns="http://www.w3.org/2000/svg">
<path d="M63.3411 0.499512H8.29225C4.16394 0.499512 0.81665 3.88504 0.81665 8.0229V42.7698C0.81665 46.9355 4.16394 50.3071 8.29225 50.3071H63.355C67.4694 50.3071 70.8167 46.9216 70.8167 42.7698V8.0229C70.8167 3.88504 67.4554 0.499512 63.3411 0.499512ZM69.3383 42.7698C69.3383 46.1135 66.6465 48.8303 63.3411 48.8303H8.29225C4.97286 48.8303 2.29504 46.1275 2.29504 42.7698V12.2583H69.3383V42.7698ZM69.3383 10.7675H2.29504V8.0229C2.29504 4.6931 4.97286 1.96239 8.29225 1.96239H63.355C66.6465 1.96239 69.3522 4.6931 69.3522 8.0229V10.7675H69.3383Z" fill="#0A0708"/>
<path d="M63.3409 1.97632H8.29213C4.97275 1.97632 2.29492 4.70703 2.29492 8.03682V10.7815H69.3382V8.03682C69.3382 4.6931 66.6464 1.97632 63.3409 1.97632ZM39.6868 9.16533H9.40789C7.90162 9.16533 6.67427 7.91144 6.67427 6.37889C6.67427 4.83242 7.90162 3.59245 9.40789 3.59245H39.6868C41.1931 3.59245 42.4204 4.83242 42.4204 6.37889C42.4065 7.8975 41.1931 9.16533 39.6868 9.16533ZM51.8207 9.16533C50.3284 9.16533 49.0871 7.91144 49.0871 6.37889C49.0871 4.83242 50.3284 3.59245 51.8207 3.59245C53.341 3.59245 54.5822 4.83242 54.5822 6.37889C54.5962 7.8975 53.3549 9.16533 51.8207 9.16533ZM57.6645 9.16533C56.1582 9.16533 54.9309 7.91144 54.9309 6.37889C54.9309 4.83242 56.1582 3.59245 57.6645 3.59245C59.1847 3.59245 60.426 4.83242 60.426 6.37889C60.426 7.8975 59.1847 9.16533 57.6645 9.16533ZM63.4944 9.16533C61.9741 9.16533 60.7328 7.91144 60.7328 6.37889C60.7328 4.83242 61.9741 3.59245 63.4944 3.59245C65.0146 3.59245 66.2559 4.83242 66.2559 6.37889C66.2559 7.8975 65.0146 9.16533 63.4944 9.16533Z" fill="#C2A886"/>
<path d="M2.29492 12.2583V42.7698C2.29492 46.1135 4.97275 48.8303 8.29213 48.8303H63.3549C66.6464 48.8303 69.3521 46.1275 69.3521 42.7698V12.2583H2.29492ZM39.8821 42.6584H10.691C10.2866 42.6584 9.96577 42.324 9.96577 41.9199C9.96577 41.5159 10.2866 41.1815 10.691 41.1815H39.8821C40.2865 41.1815 40.6213 41.5159 40.6213 41.9199C40.6213 42.324 40.2865 42.6584 39.8821 42.6584ZM39.8821 38.0189H10.691C10.2866 38.0189 9.96577 37.6846 9.96577 37.2805C9.96577 36.8765 10.2866 36.5421 10.691 36.5421H39.8821C40.2865 36.5421 40.6213 36.8765 40.6213 37.2805C40.6213 37.6846 40.2865 38.0189 39.8821 38.0189ZM39.8821 33.3516H10.691C10.2866 33.3516 9.96577 33.0173 9.96577 32.6132C9.96577 32.2092 10.2866 31.8888 10.691 31.8888H39.8821C40.2865 31.8888 40.6213 32.2092 40.6213 32.6132C40.6213 33.0173 40.2865 33.3516 39.8821 33.3516ZM39.8821 28.6983H10.691C10.2866 28.6983 9.96577 28.3639 9.96577 27.9599C9.96577 27.5559 10.2866 27.2215 10.691 27.2215H39.8821C40.2865 27.2215 40.6213 27.5559 40.6213 27.9599C40.6213 28.35 40.2865 28.6983 39.8821 28.6983ZM39.8821 24.0171H10.691C10.2866 24.0171 9.96577 23.6827 9.96577 23.2787C9.96577 22.8746 10.2866 22.5403 10.691 22.5403H39.8821C40.2865 22.5403 40.6213 22.8746 40.6213 23.2787C40.6213 23.6827 40.2865 24.0171 39.8821 24.0171ZM39.8821 19.3359H10.691C10.2866 19.3359 9.96577 19.0154 9.96577 18.6114C9.96577 18.1795 10.2866 17.873 10.691 17.873H39.8821C40.2865 17.873 40.6213 18.1934 40.6213 18.6114C40.6213 19.0293 40.2865 19.3359 39.8821 19.3359ZM63.3967 39.9694C63.3967 41.9896 61.7092 43.6893 59.7147 43.6893H50.8305C48.7942 43.6893 47.1485 42.0314 47.1485 39.9694V23.2229C47.1485 21.5371 48.4595 20.1997 50.1052 20.1579V17.1624C50.1052 16.1036 50.9421 15.2259 51.9881 15.2259H58.5432C59.5892 15.2259 60.4539 16.0897 60.4539 17.1624V20.1579C62.0718 20.2136 63.3967 21.5929 63.3967 23.2229V39.9694Z" fill="#F0E2BF"/>
<path d="M40.6213 41.9199C40.6213 42.324 40.2866 42.6583 39.8821 42.6583H10.6911C10.2866 42.6583 9.96582 42.324 9.96582 41.9199C9.96582 41.5159 10.2866 41.1815 10.6911 41.1815H39.8821C40.2866 41.1815 40.6213 41.5159 40.6213 41.9199Z" fill="#0A0708"/>
<path d="M40.6213 23.2786C40.6213 23.6827 40.2866 24.017 39.8821 24.017H10.6911C10.2866 24.017 9.96582 23.6827 9.96582 23.2786C9.96582 22.8746 10.2866 22.5402 10.6911 22.5402H39.8821C40.2866 22.5263 40.6213 22.8607 40.6213 23.2786Z" fill="#0A0708"/>
<path d="M40.6213 32.5993C40.6213 33.0034 40.2866 33.3378 39.8821 33.3378H10.6911C10.2866 33.3378 9.96582 33.0034 9.96582 32.5993C9.96582 32.1953 10.2866 31.8749 10.6911 31.8749H39.8821C40.2866 31.8749 40.6213 32.1953 40.6213 32.5993Z" fill="#0A0708"/>
<path d="M40.6213 18.6113C40.6213 19.0154 40.2866 19.3358 39.8821 19.3358H10.6911C10.2866 19.3358 9.96582 19.0154 9.96582 18.6113C9.96582 18.1794 10.2866 17.8729 10.6911 17.8729H39.8821C40.2866 17.8729 40.6213 18.1934 40.6213 18.6113Z" fill="#0A0708"/>
<path d="M40.6213 37.2805C40.6213 37.6846 40.2866 38.0189 39.8821 38.0189H10.6911C10.2866 38.0189 9.96582 37.6846 9.96582 37.2805C9.96582 36.8765 10.2866 36.5421 10.6911 36.5421H39.8821C40.2866 36.5421 40.6213 36.8765 40.6213 37.2805Z" fill="#0A0708"/>
<path d="M40.6213 27.9459C40.6213 28.35 40.2866 28.6843 39.8821 28.6843H10.6911C10.2866 28.6843 9.96582 28.35 9.96582 27.9459C9.96582 27.5419 10.2866 27.2075 10.6911 27.2075H39.8821C40.2866 27.2075 40.6213 27.5419 40.6213 27.9459Z" fill="#0A0708"/>
<path d="M39.6869 3.60632H9.40793C7.90166 3.60632 6.67432 4.84629 6.67432 6.39276C6.67432 7.91137 7.90166 9.1792 9.40793 9.1792H39.6869C41.1932 9.1792 42.4205 7.9253 42.4205 6.39276C42.4065 4.84629 41.1932 3.60632 39.6869 3.60632ZM39.6869 7.67453H9.40793C8.71058 7.67453 8.1527 7.08938 8.1527 6.37883C8.1527 5.65436 8.72453 5.0692 9.40793 5.0692H39.6869C40.3563 5.0692 40.9282 5.66829 40.9282 6.37883C40.9282 7.08938 40.3563 7.67453 39.6869 7.67453Z" fill="#0A0708"/>
<path d="M40.928 6.37897C40.928 7.08951 40.3562 7.67466 39.6868 7.67466H9.40782C8.71047 7.67466 8.15259 7.08951 8.15259 6.37897C8.15259 5.65449 8.72441 5.06934 9.40782 5.06934H39.6868C40.3562 5.06934 40.928 5.66842 40.928 6.37897Z" fill="#E09D31"/>
<path d="M63.4947 3.60632C61.9744 3.60632 60.7332 4.84629 60.7332 6.39276C60.7332 7.91137 61.9744 9.1792 63.4947 9.1792C65.0149 9.1792 66.2562 7.9253 66.2562 6.39276C66.2562 4.84629 65.0149 3.60632 63.4947 3.60632ZM63.4947 7.67453C62.7834 7.67453 62.2115 7.08938 62.2115 6.37883C62.2115 5.65436 62.7834 5.0692 63.4947 5.0692C64.206 5.0692 64.7778 5.65436 64.7778 6.37883C64.7638 7.08938 64.206 7.67453 63.4947 7.67453Z" fill="#0A0708"/>
<path d="M64.7635 6.37897C64.7635 7.08951 64.1917 7.67466 63.4804 7.67466C62.7691 7.67466 62.1973 7.08951 62.1973 6.37897C62.1973 5.65449 62.7691 5.06934 63.4804 5.06934C64.1917 5.06934 64.7635 5.65449 64.7635 6.37897Z" fill="#E09D31"/>
<path d="M57.6648 3.60632C56.1585 3.60632 54.9312 4.84629 54.9312 6.39276C54.9312 7.91137 56.1585 9.1792 57.6648 9.1792C59.185 9.1792 60.4263 7.9253 60.4263 6.39276C60.4263 4.84629 59.185 3.60632 57.6648 3.60632ZM57.6648 7.67453C56.9674 7.67453 56.4235 7.10331 56.4235 6.37883C56.4235 5.65436 56.9674 5.0692 57.6648 5.0692C58.3761 5.0692 58.9479 5.65436 58.9479 6.37883C58.9339 7.08938 58.3621 7.67453 57.6648 7.67453Z" fill="#0A0708"/>
<path d="M58.9338 6.37897C58.9338 7.08951 58.362 7.67466 57.6507 7.67466C56.9534 7.67466 56.4094 7.10344 56.4094 6.37897C56.4094 5.65449 56.9534 5.06934 57.6507 5.06934C58.362 5.06934 58.9338 5.65449 58.9338 6.37897Z" fill="#E09D31"/>
<path d="M51.821 3.60632C50.3287 3.60632 49.0874 4.84629 49.0874 6.39276C49.0874 7.91137 50.3287 9.1792 51.821 9.1792C53.3413 9.1792 54.5825 7.9253 54.5825 6.39276C54.5965 4.84629 53.3552 3.60632 51.821 3.60632ZM51.821 7.67453C51.1516 7.67453 50.5797 7.08938 50.5797 6.37883C50.5797 5.66829 51.1516 5.0692 51.821 5.0692C52.5323 5.0692 53.1181 5.65436 53.1181 6.37883C53.1181 7.08938 52.5323 7.67453 51.821 7.67453Z" fill="#0A0708"/>
<path d="M53.1179 6.37897C53.1179 7.08951 52.5322 7.67466 51.8209 7.67466C51.1514 7.67466 50.5796 7.08951 50.5796 6.37897C50.5796 5.66842 51.1514 5.06934 51.8209 5.06934C52.5322 5.06934 53.1179 5.65449 53.1179 6.37897Z" fill="#E09D31"/>
<path d="M60.4541 20.1578V17.1624C60.4541 16.1036 59.5894 15.2258 58.5434 15.2258H51.9883C50.9423 15.2258 50.1054 16.0896 50.1054 17.1624V20.1578C48.4597 20.1996 47.1487 21.5371 47.1487 23.2229V39.9694C47.1487 42.0174 48.7944 43.6893 50.8307 43.6893H59.7149C61.7233 43.6893 63.3969 41.9896 63.3969 39.9694V23.2229C63.3969 21.5928 62.072 20.2136 60.4541 20.1578ZM51.5838 17.1624C51.5838 16.9116 51.7791 16.7166 51.9883 16.7166H58.5434C58.7805 16.7166 58.9757 16.9116 58.9757 17.1624V20.1439H51.5838V17.1624ZM61.9325 39.9694C61.9325 41.1954 60.9283 42.2125 59.7149 42.2125H50.8307C49.6033 42.2125 48.6131 41.2094 48.6131 39.9694V23.2229C48.6131 22.3591 49.3244 21.6346 50.1612 21.6346H60.3565C61.2073 21.6346 61.9325 22.3591 61.9325 23.2229V39.9694Z" fill="#0A0708"/>
<path d="M58.9757 17.1624V20.1439H51.5837V17.1624C51.5837 16.9116 51.779 16.7166 51.9882 16.7166H58.5433C58.7804 16.7166 58.9757 16.9116 58.9757 17.1624Z" fill="#FFB3C6"/>
<path d="M60.3564 21.6207H50.1612C49.3243 21.6207 48.613 22.3452 48.613 23.209V39.9555C48.613 41.1955 49.6033 42.1986 50.8306 42.1986H59.7148C60.9143 42.1986 61.9324 41.1676 61.9324 39.9555V23.2229C61.9324 22.3591 61.2072 21.6207 60.3564 21.6207ZM60.2867 31.4847C60.2867 32.1953 59.7149 32.7665 59.0036 32.7665H57.4973V34.313C57.4973 35.0096 56.8975 35.6087 56.2002 35.6087H54.3592C53.634 35.6087 53.0482 35.0235 53.0482 34.313V32.7665H51.5419C50.8306 32.7665 50.2448 32.1953 50.2448 31.4847V29.5899C50.2448 28.8794 50.8306 28.2942 51.5419 28.2942H53.0482V26.7617C53.0482 26.0512 53.634 25.4799 54.3592 25.4799H56.2002C56.9115 25.4799 57.4973 26.0651 57.4973 26.7617V28.3082H59.0036C59.7149 28.3082 60.2867 28.8933 60.2867 29.6039V31.4847Z" fill="#FFF1F5"/>
<path d="M59.0034 28.3082H57.4971V26.7617C57.4971 26.0651 56.9113 25.48 56.2 25.48H54.359C53.6338 25.48 53.048 26.0512 53.048 26.7617V28.3082H51.5417C50.8304 28.3082 50.2446 28.8934 50.2446 29.6039V31.4987C50.2446 32.2092 50.8304 32.7805 51.5417 32.7805H53.048V34.3269C53.048 35.0375 53.6338 35.6226 54.359 35.6226H56.2C56.8973 35.6226 57.4971 35.0235 57.4971 34.3269V32.7805H59.0034C59.7147 32.7805 60.2865 32.2092 60.2865 31.4987V29.6039C60.2865 28.8934 59.7147 28.3082 59.0034 28.3082ZM58.7941 31.2758H56.7579C56.3534 31.2758 56.0187 31.6102 56.0187 32.0142V34.1179H54.5543V32.0142C54.5543 31.6102 54.2195 31.2758 53.8151 31.2758H51.737V29.7711H53.8151C54.2195 29.7711 54.5543 29.4507 54.5543 29.0466V26.9707H56.0187V29.0466C56.0187 29.4507 56.3534 29.7711 56.7579 29.7711H58.7941V31.2758Z" fill="#0A0708"/>
<path d="M58.7943 29.771V31.2756H56.758C56.3535 31.2756 56.0188 31.61 56.0188 32.014V34.1178H54.5544V32.014C54.5544 31.61 54.2196 31.2756 53.8152 31.2756H51.7371V29.771H53.8152C54.2196 29.771 54.5544 29.4505 54.5544 29.0465V26.9706H56.0188V29.0465C56.0188 29.4505 56.3535 29.771 56.758 29.771H58.7943Z" fill="#B9F7FF"/>
</svg>
