<svg width="68" height="71" viewBox="0 0 68 71" fill="none" xmlns="http://www.w3.org/2000/svg">
<path d="M59.2359 18.1551H54.6043V15.4075H55.0627C56.4696 15.4075 57.6394 14.2706 57.6394 12.8337V11.3336C57.6394 9.91239 56.4696 8.74388 55.0627 8.74388H45.4202V6.17001C45.4202 3.23295 43.0491 0.832764 40.1405 0.832764H28.3798C25.4712 0.832764 23.1001 3.24874 23.1001 6.17001V8.74388H13.4101C11.9874 8.74388 10.8335 9.91239 10.8335 11.3336V12.8337C10.8335 14.239 12.0033 15.4075 13.4101 15.4075H13.9002V18.1551H9.23697C4.43151 18.1551 0.51123 22.087 0.51123 26.9189V52.4524C0.51123 57.2844 4.43151 61.2162 9.23697 61.2162H23.5269C23.3846 61.5005 23.2898 61.7531 23.1475 62.0532L21.6458 65.2271H16.8087C15.2754 65.2271 14.0582 66.4903 14.0582 68.0378C14.0582 69.5853 15.2912 70.8328 16.8087 70.8328H51.7273C53.2607 70.8328 54.4936 69.5853 54.4936 68.0378C54.4936 66.4903 53.2449 65.2271 51.7273 65.2271H46.8587L45.8154 62.9532C45.515 62.3374 45.2463 61.7689 44.9934 61.2005H59.2517C64.0572 61.2005 67.9458 57.2686 67.9458 52.4366V26.9031C67.9458 22.087 64.0413 18.1551 59.2359 18.1551ZM45.4202 10.4335H55.0627C55.5686 10.4335 55.948 10.8283 55.948 11.3336V12.8337C55.948 13.3232 55.5528 13.7337 55.0627 13.7337H45.4202V10.4335ZM54.6043 23.3502H59.2517C61.196 23.3502 62.7925 24.9609 62.7925 26.9189V52.4524C62.7925 54.4263 61.2118 56.0211 59.2517 56.0211H54.6043V23.3502ZM24.7599 6.17001C24.7599 4.1646 26.3881 2.52238 28.3798 2.52238H40.1405C42.1323 2.52238 43.7446 4.1646 43.7446 6.17001V17.9972C43.7446 20.0026 42.1323 21.6449 40.1405 21.6449H28.3798C26.3881 21.6449 24.7599 20.0026 24.7599 17.9972V6.17001ZM28.3798 23.3187H40.1405C43.0491 23.3187 45.4202 20.9343 45.4202 17.9972V15.4075H52.9287V56.0369H39.9351V42.2832C39.9351 40.9252 38.7969 39.7567 37.4374 39.7567H31.0671C29.676 39.7567 28.5537 40.8937 28.5537 42.2832V56.0369H15.5599V15.4075H23.1001V17.9972C23.1001 20.9185 25.4712 23.3187 28.3798 23.3187ZM38.2594 42.2832V56.0369H30.245V42.2832C30.245 41.8253 30.6086 41.4464 31.0671 41.4464H37.4374C37.8642 41.4306 38.2594 41.8253 38.2594 42.2832ZM13.4101 13.7337C12.9517 13.7337 12.5091 13.2916 12.5091 12.8337V11.3336C12.5091 10.8283 12.9359 10.4335 13.4101 10.4335H23.1001V13.7495H13.4101V13.7337ZM45.5309 66.4272C45.6731 66.7272 45.9576 66.9325 46.2896 66.9325H51.6958C52.2965 66.9325 52.7865 67.4378 52.7865 68.0536C52.7865 68.6694 52.2965 69.159 51.6958 69.159H16.7771C16.1765 69.159 15.6864 68.6694 15.6864 68.0536C15.6864 67.4378 16.1765 66.9325 16.7771 66.9325H34.2285C34.687 66.9325 35.0663 66.5535 35.0663 66.0956C35.0663 65.6376 34.687 65.2587 34.2285 65.2587H23.4795L24.6176 62.7953C24.8863 62.2584 25.1234 61.7373 25.3447 61.2478H43.0807C43.4443 62.0058 43.8395 62.8269 44.2505 63.6954L45.5309 66.4272ZM66.2702 52.4524C66.2702 56.3685 63.1087 59.5424 59.2359 59.5424H9.23697C5.36415 59.5424 2.20266 56.3685 2.20266 52.4524V26.9189C2.20266 23.0029 5.36415 19.8289 9.23697 19.8289H13.9002V21.6606H9.23697C6.34421 21.6606 4.02051 24.0293 4.02051 26.9189V52.4524C4.02051 55.3421 6.34421 57.7107 9.23697 57.7107H59.2517C62.1287 57.7107 64.4682 55.3421 64.4682 52.4524V26.9189C64.4682 24.0293 62.1128 21.6606 59.2517 21.6606H54.6043V19.8447H59.2517C63.1245 19.8447 66.286 23.0186 66.286 26.9347V52.4524H66.2702ZM13.9002 23.3502V56.0211H9.23697C7.26104 56.0211 5.68029 54.4105 5.68029 52.4524V26.9189C5.68029 24.9451 7.26104 23.3502 9.23697 23.3502H13.9002Z" fill="#0A0708"/>
<path d="M51.7116 66.9325H46.3054C45.9577 66.9325 45.689 66.7272 45.5467 66.4272L45.4044 66.0956H35.098C35.0821 66.5535 34.7185 66.9167 34.2601 66.9167H16.8087C16.208 66.9167 15.718 67.422 15.718 68.0378C15.718 68.6537 16.208 69.1432 16.8087 69.1432H51.7273C52.328 69.1432 52.8181 68.6537 52.8181 68.0378C52.8181 67.422 52.3123 66.9325 51.7116 66.9325Z" fill="#FFB3C6"/>
<path d="M44.2663 63.6796C43.8711 62.8111 43.4602 61.99 43.0966 61.2321H25.3606C25.1393 61.7216 24.9022 62.2427 24.6335 62.7795L23.4954 65.2429H34.2444C34.7028 65.2429 35.0822 65.6219 35.0822 66.0798V66.0956H45.3887L44.2663 63.6796Z" fill="#FF7195"/>
<path d="M40.1404 2.52234H28.3797C26.3879 2.52234 24.7598 4.16456 24.7598 6.16998V17.9972C24.7598 20.0026 26.3879 21.6448 28.3797 21.6448H40.1404C42.1321 21.6448 43.7444 20.0026 43.7444 17.9972V6.16998C43.7286 4.16456 42.1163 2.52234 40.1404 2.52234ZM41.895 13.181C41.895 13.9074 41.2785 14.5074 40.5514 14.5074H36.6311V18.4393C36.6311 19.1815 36.0462 19.7973 35.3033 19.7973H33.1693C32.4105 19.7973 31.8098 19.1973 31.8098 18.4393V14.5074H27.937C27.194 14.5074 26.5776 13.9074 26.5776 13.181V10.9861C26.5776 10.244 27.194 9.64392 27.937 9.64392H31.8098V5.69626C31.8098 4.96989 32.4263 4.36984 33.1693 4.36984H35.3033C36.0304 4.36984 36.6311 4.96989 36.6311 5.69626V9.64392H40.5514C41.2785 9.64392 41.895 10.2598 41.895 10.9861V13.181Z" fill="#B9F7FF"/>
<path d="M38.2595 42.2833V56.0369H30.2451V42.2833C30.2451 41.8253 30.6087 41.4464 31.0671 41.4464H37.4375C37.8643 41.4306 38.2595 41.8253 38.2595 42.2833Z" fill="#C2A886"/>
<path d="M55.9479 11.3336V12.8337C55.9479 13.3232 55.5527 13.7338 55.0627 13.7338H45.4202V10.4177H55.0627C55.5685 10.4335 55.9479 10.8283 55.9479 11.3336Z" fill="#C2A886"/>
<path d="M23.1003 10.4335V13.7495H13.4103C12.9518 13.7495 12.5093 13.3074 12.5093 12.8494V11.3493C12.5093 10.844 12.936 10.4493 13.4103 10.4493H23.1003V10.4335Z" fill="#C2A886"/>
<path d="M45.4203 15.4076V17.9973C45.4203 20.9343 43.0492 23.3187 40.1406 23.3187H28.3799C25.4713 23.3187 23.1002 20.9343 23.1002 17.9973V15.4076H15.5601V56.037H28.5538V42.2833C28.5538 40.8937 29.6761 39.7568 31.0672 39.7568H37.4375C38.7812 39.7568 39.9352 40.9253 39.9352 42.2833V56.037H52.9288V15.4076H45.4203ZM27.9215 48.6943C27.9215 50.0839 26.7991 51.205 25.4239 51.205H19.0377C17.6466 51.205 16.5402 50.0997 16.5402 48.6943V42.2675C16.5402 40.8779 17.6624 39.741 19.0377 39.741H25.4239C26.7675 39.741 27.9215 40.9095 27.9215 42.2675V48.6943ZM27.9215 33.63C27.9215 34.988 26.7833 36.1407 25.4239 36.1407H19.0377C17.6783 36.1407 16.5402 35.0196 16.5402 33.63V27.2032C16.5402 25.7821 17.6466 24.6767 19.0377 24.6767H25.4239C26.7833 24.6767 27.9215 25.8136 27.9215 27.2032V33.63ZM39.9352 33.63C39.9352 34.988 38.797 36.1407 37.4375 36.1407H31.0672C29.6761 36.1407 28.5538 35.0196 28.5538 33.63V27.2032C28.5538 25.7821 29.6603 24.6767 31.0672 24.6767H37.4375C38.797 24.6767 39.9352 25.8136 39.9352 27.2032V33.63ZM51.9488 48.6943C51.9488 50.0839 50.8264 51.205 49.4512 51.205H43.0808C41.674 51.205 40.5675 50.0997 40.5675 48.6943V42.2675C40.5675 40.8779 41.6898 39.741 43.0808 39.741H49.4512C50.7948 39.741 51.9488 40.9095 51.9488 42.2675V48.6943ZM51.9488 33.63C51.9488 34.988 50.8106 36.1407 49.4512 36.1407H43.0808C41.6898 36.1407 40.5675 35.0196 40.5675 33.63V27.2032C40.5675 25.7821 41.674 24.6767 43.0808 24.6767H49.4512C50.8106 24.6767 51.9488 25.8136 51.9488 27.2032V33.63Z" fill="#F0E2BF"/>
<path d="M66.2704 26.919V52.4525C66.2704 56.3686 63.1089 59.5425 59.2361 59.5425H9.23719C5.36437 59.5425 2.20288 56.3686 2.20288 52.4525V26.919C2.20288 23.0029 5.36437 19.829 9.23719 19.829H13.9004V21.6607H9.23719C6.34443 21.6607 4.02074 24.0293 4.02074 26.919V52.4525C4.02074 55.3422 6.34443 57.7108 9.23719 57.7108H59.2519C62.1289 57.7108 64.4684 55.3422 64.4684 52.4525V26.919C64.4684 24.0293 62.1131 21.6607 59.2519 21.6607H54.6045V19.8448H59.2519C63.1247 19.8448 66.2704 23.0187 66.2704 26.919Z" fill="#FFB3C6"/>
<path d="M62.7767 26.9189V52.4524C62.7767 54.4263 61.1959 56.0211 59.2358 56.0211H54.6042V23.3502H59.2516C61.1959 23.3502 62.7767 24.9609 62.7767 26.9189Z" fill="#FFF1F5"/>
<path d="M13.9003 23.3502V56.0211H9.23709C7.26116 56.0211 5.68042 54.4105 5.68042 52.4524V26.9189C5.68042 24.9451 7.26116 23.3502 9.23709 23.3502H13.9003Z" fill="#FFF1F5"/>
<path d="M40.5516 9.64396H36.6313V5.69629C36.6313 4.96992 36.0307 4.36987 35.3035 4.36987H33.1695C32.4266 4.36987 31.8101 4.96992 31.8101 5.69629V9.64396H27.9373C27.1943 9.64396 26.5779 10.244 26.5779 10.9862V13.1811C26.5779 13.9074 27.1943 14.5075 27.9373 14.5075H31.8101V18.4393C31.8101 19.1973 32.4108 19.7973 33.1695 19.7973H35.3035C36.0465 19.7973 36.6313 19.1815 36.6313 18.4393V14.5075H40.5516C41.2788 14.5075 41.8953 13.9074 41.8953 13.1811V10.9862C41.8953 10.2598 41.2788 9.64396 40.5516 9.64396ZM40.2197 12.8337H35.8252C35.3668 12.8337 34.9874 13.2126 34.9874 13.6706V18.1077H33.5173V13.6864C33.5173 13.2284 33.1379 12.8494 32.6795 12.8494H28.2851V11.3493H32.6795C33.1379 11.3493 33.5173 10.9704 33.5173 10.5124V6.05947H34.9874V10.5124C34.9874 10.9704 35.3668 11.3493 35.8252 11.3493H40.2197V12.8337Z" fill="#0A0708"/>
<path d="M40.2195 11.3335V12.8336H35.8251C35.3667 12.8336 34.9873 13.2126 34.9873 13.6706V18.1077H33.5172V13.6863C33.5172 13.2284 33.1378 12.8494 32.6793 12.8494H28.2849V11.3493H32.6793C33.1378 11.3493 33.5172 10.9704 33.5172 10.5124V6.05945H34.9873V10.5124C34.9873 10.9704 35.3667 11.3493 35.8251 11.3493H40.2195V11.3335Z" fill="#35A0CD"/>
<path d="M49.4511 24.6766H43.0808C41.6739 24.6766 40.5674 25.782 40.5674 27.2031V33.63C40.5674 35.0195 41.6897 36.1407 43.0808 36.1407H49.4511C50.7948 36.1407 51.9487 35.0037 51.9487 33.63V27.2031C51.9487 25.8294 50.8264 24.6766 49.4511 24.6766ZM50.2731 33.63C50.2731 34.0721 49.8779 34.4668 49.4511 34.4668H43.0808C42.6223 34.4668 42.2587 34.0879 42.2587 33.63V27.2031C42.2587 26.7136 42.6065 26.3662 43.0808 26.3662H49.4511C49.8937 26.3662 50.2731 26.7452 50.2731 27.2031V33.63Z" fill="#0A0708"/>
<path d="M50.2732 27.2031V33.6299C50.2732 34.0721 49.878 34.4668 49.4512 34.4668H43.0808C42.6224 34.4668 42.2588 34.0878 42.2588 33.6299V27.2031C42.2588 26.7136 42.6066 26.3662 43.0808 26.3662H49.4512C49.8938 26.3662 50.2732 26.7452 50.2732 27.2031Z" fill="#C2A886"/>
<path d="M25.4238 24.6766H19.0376C17.6465 24.6766 16.54 25.782 16.54 27.2031V33.63C16.54 35.0195 17.6623 36.1407 19.0376 36.1407H25.4238C26.7674 36.1407 27.9214 35.0037 27.9214 33.63V27.2031C27.9214 25.8294 26.799 24.6766 25.4238 24.6766ZM26.2458 33.63C26.2458 34.0721 25.8506 34.4668 25.4238 34.4668H19.0376C18.595 34.4668 18.2314 34.0879 18.2314 33.63V27.2031C18.2314 26.7136 18.5792 26.3662 19.0376 26.3662H25.4238C25.8664 26.3662 26.2458 26.7452 26.2458 27.2031V33.63Z" fill="#0A0708"/>
<path d="M26.2458 27.2031V33.6299C26.2458 34.0721 25.8506 34.4668 25.4238 34.4668H19.0376C18.595 34.4668 18.2314 34.0878 18.2314 33.6299V27.2031C18.2314 26.7136 18.5792 26.3662 19.0376 26.3662H25.4238C25.8664 26.3662 26.2458 26.7452 26.2458 27.2031Z" fill="#C2A886"/>
<path d="M37.4374 24.6766H31.0671C29.6602 24.6766 28.5537 25.782 28.5537 27.2031V33.63C28.5537 35.0195 29.676 36.1407 31.0671 36.1407H37.4374C38.7811 36.1407 39.9351 35.0037 39.9351 33.63V27.2031C39.9351 25.8294 38.8127 24.6766 37.4374 24.6766ZM38.2595 33.63C38.2595 34.0721 37.8642 34.4668 37.4374 34.4668H31.0671C30.6087 34.4668 30.2451 34.0879 30.2451 33.63V27.2031C30.2451 26.7136 30.5929 26.3662 31.0671 26.3662H37.4374C37.8801 26.3662 38.2595 26.7452 38.2595 27.2031V33.63Z" fill="#0A0708"/>
<path d="M38.2595 27.2031V33.6299C38.2595 34.0721 37.8643 34.4668 37.4375 34.4668H31.0671C30.6087 34.4668 30.2451 34.0878 30.2451 33.6299V27.2031C30.2451 26.7136 30.5929 26.3662 31.0671 26.3662H37.4375C37.8801 26.3662 38.2595 26.7452 38.2595 27.2031Z" fill="#C2A886"/>
<path d="M49.4511 39.7567H43.0808C41.6897 39.7567 40.5674 40.8936 40.5674 42.2832V48.71C40.5674 50.1154 41.6739 51.2207 43.0808 51.2207H49.4511C50.8106 51.2207 51.9487 50.0996 51.9487 48.71V42.2832C51.9487 40.9094 50.7948 39.7567 49.4511 39.7567ZM50.2731 48.6942C50.2731 49.1522 49.8937 49.5311 49.4511 49.5311H43.0808C42.5907 49.5311 42.2587 49.1679 42.2587 48.6942V42.2674C42.2587 41.8095 42.6223 41.4305 43.0808 41.4305H49.4511C49.8779 41.4305 50.2731 41.8253 50.2731 42.2674V48.6942Z" fill="#0A0708"/>
<path d="M50.2732 42.2833V48.7101C50.2732 49.168 49.8938 49.547 49.4512 49.547H43.0808C42.5908 49.547 42.2588 49.1838 42.2588 48.7101V42.2833C42.2588 41.8253 42.6224 41.4464 43.0808 41.4464H49.4512C49.878 41.4306 50.2732 41.8411 50.2732 42.2833Z" fill="#C2A886"/>
<path d="M25.4238 39.7567H19.0376C17.6781 39.7567 16.54 40.8936 16.54 42.2832V48.71C16.54 50.1154 17.6465 51.2207 19.0376 51.2207H25.4238C26.7832 51.2207 27.9214 50.0996 27.9214 48.71V42.2832C27.9214 40.9094 26.7674 39.7567 25.4238 39.7567ZM26.2458 48.6942C26.2458 49.1522 25.8664 49.5311 25.4238 49.5311H19.0376C18.5792 49.5311 18.2314 49.1679 18.2314 48.6942V42.2674C18.2314 41.8095 18.595 41.4305 19.0376 41.4305H25.4238C25.8506 41.4305 26.2458 41.8253 26.2458 42.2674V48.6942Z" fill="#0A0708"/>
<path d="M26.2458 42.2833V48.7101C26.2458 49.168 25.8664 49.547 25.4238 49.547H19.0376C18.5792 49.547 18.2314 49.1838 18.2314 48.7101V42.2833C18.2314 41.8253 18.595 41.4464 19.0376 41.4464H25.4238C25.8506 41.4306 26.2458 41.8411 26.2458 42.2833Z" fill="#C2A886"/>
</svg>
