<svg width="17" height="16" viewBox="0 0 17 16" fill="none" xmlns="http://www.w3.org/2000/svg">
<g clip-path="url(#clip0_274_450)">
<g clip-path="url(#clip1_274_450)">
<path d="M8.39095 -0.000732422C3.97095 -0.000732422 0.390945 3.57927 0.390945 7.99927C0.390945 11.5393 2.68095 14.5293 5.86095 15.5893C6.26095 15.6593 6.41095 15.4193 6.41095 15.2093C6.41095 15.0193 6.40095 14.3893 6.40095 13.7193C4.39095 14.0893 3.87095 13.2293 3.71095 12.7793C3.62095 12.5493 3.23095 11.8393 2.89095 11.6493C2.61095 11.4993 2.21095 11.1293 2.88095 11.1193C3.51095 11.1093 3.96095 11.6993 4.11095 11.9393C4.83095 13.1493 5.98095 12.8093 6.44095 12.5993C6.51095 12.0793 6.72095 11.7293 6.95095 11.5293C5.17095 11.3293 3.31095 10.6393 3.31095 7.57927C3.31095 6.70927 3.62095 5.98927 4.13095 5.42927C4.05095 5.22927 3.77095 4.40927 4.21095 3.30927C4.21095 3.30927 4.88095 3.09927 6.41095 4.12927C7.05095 3.94927 7.73095 3.85927 8.41095 3.85927C9.09095 3.85927 9.77095 3.94927 10.4109 4.12927C11.9409 3.08927 12.6109 3.30927 12.6109 3.30927C13.0509 4.40927 12.7709 5.22927 12.6909 5.42927C13.2009 5.98927 13.5109 6.69927 13.5109 7.57927C13.5109 10.6493 11.6409 11.3293 9.86095 11.5293C10.1509 11.7793 10.4009 12.2593 10.4009 13.0093C10.4009 14.0793 10.3909 14.9393 10.3909 15.2093C10.3909 15.4193 10.5409 15.6693 10.9409 15.5893C12.5292 15.0533 13.9093 14.0326 14.887 12.671C15.8647 11.3094 16.3907 9.67551 16.3909 7.99927C16.3909 3.57927 12.8109 -0.000732422 8.39095 -0.000732422Z" fill="#FFB3C6"/>
</g>
</g>
<defs>
<clipPath id="clip0_274_450">
<rect width="16" height="16" fill="white" transform="translate(0.391296)"/>
</clipPath>
<clipPath id="clip1_274_450">
<rect width="16" height="16" fill="white" transform="translate(0.391296)"/>
</clipPath>
</defs>
</svg>
