<svg width="71" height="59" viewBox="0 0 71 59" fill="none" xmlns="http://www.w3.org/2000/svg">
<path d="M61.2445 0.211426H8.84979C4.00872 0.211426 0.0546875 4.17628 0.0546875 9.07228V41.7072C0.0546875 46.5882 4.00872 50.5681 8.84979 50.5681H26.9211V54.4279H19.2987C18.0508 54.4279 17.0435 55.4641 17.0435 56.7256C17.0435 57.9722 18.0809 58.9934 19.2987 58.9934H50.7656C52.0285 58.9934 53.0358 57.9872 53.0358 56.7256C53.0358 55.4641 52.0285 54.4279 50.7656 54.4279H43.1582V50.5681H61.2596C66.1157 50.5681 70.0547 46.6032 70.0547 41.7072V9.07228C70.0396 4.1913 66.1006 0.211426 61.2445 0.211426ZM50.7807 56.0348C51.1565 56.0348 51.4722 56.3352 51.4722 56.7256C51.4722 57.0861 51.1415 57.3865 50.7807 57.3865H19.3137C18.9679 57.3865 18.6673 57.0861 18.6673 56.7256C18.6673 56.3502 18.9529 56.0348 19.3137 56.0348H50.7807ZM28.5298 54.4279V50.5681H41.5495V54.4279H28.5298ZM68.461 41.7072C68.461 45.7172 65.2287 48.9762 61.2596 48.9762H8.86484C4.9108 48.9762 1.67844 45.7172 1.67844 41.7072V9.07228C1.67844 5.06237 4.9108 1.81839 8.86484 1.81839H61.2596C65.2287 1.81839 68.461 5.06237 68.461 9.07228V41.7072Z" fill="#0A0708"/>
<path d="M41.5495 50.5681H28.5298V54.4279H41.5495V50.5681Z" fill="#FF7195"/>
<path d="M51.4722 56.7106C51.4722 57.0711 51.1415 57.3714 50.7806 57.3714H19.3137C18.9679 57.3714 18.6672 57.0711 18.6672 56.7106C18.6672 56.3352 18.9529 56.0198 19.3137 56.0198H50.7806C51.1565 56.0348 51.4722 56.3352 51.4722 56.7106Z" fill="#FFB3C6"/>
<path d="M61.2447 1.81848H8.84997C4.89593 1.81848 1.66357 5.06246 1.66357 9.07238V41.7073C1.66357 45.7172 4.89593 48.9763 8.84997 48.9763H61.2447C65.2138 48.9763 68.4463 45.7172 68.4463 41.7073V9.07238C68.4613 5.06246 65.2288 1.81848 61.2447 1.81848ZM35.0549 48.3605C33.5515 48.3605 32.3036 47.099 32.3036 45.5671C32.3036 44.0653 33.5515 42.8337 35.0549 42.8337C36.5583 42.8337 37.7911 44.0502 37.7911 45.5671C37.7911 47.099 36.5583 48.3605 35.0549 48.3605ZM65.5446 37.6073C65.5446 40.0253 63.6202 42.0227 61.2298 42.0227H8.89512C6.48962 42.0227 4.5201 40.0403 4.5201 37.6073V8.74194C4.5201 6.339 6.48962 4.35658 8.89512 4.35658H61.2298C63.6202 4.35658 65.5446 6.339 65.5446 8.74194V37.6073Z" fill="#FFB3C6"/>
<path d="M52.6147 33.4172C52.6147 33.8527 52.254 34.2131 51.818 34.2131H18.2612C17.8252 34.2131 17.4795 33.8527 17.4795 33.4172C17.4795 32.9816 17.8252 32.6212 18.2612 32.6212H51.818C52.254 32.6062 52.6147 32.9666 52.6147 33.4172Z" fill="#0A0708"/>
<path d="M61.2297 4.35657H8.89503C6.48954 4.35657 4.52002 6.33899 4.52002 8.74193V37.6073C4.52002 40.0253 6.48954 42.0227 8.89503 42.0227H61.2297C63.6201 42.0227 65.5445 40.0403 65.5445 37.6073V8.74193C65.5445 6.33899 63.6201 4.35657 61.2297 4.35657ZM63.9659 37.6073C63.9659 39.1542 62.7481 40.4158 61.2297 40.4158H8.89503C7.36153 40.4158 6.12873 39.1542 6.12873 37.6073V8.74193C6.12873 7.21006 7.37656 5.94853 8.89503 5.94853H61.2297C62.7331 5.94853 63.9659 7.21006 63.9659 8.74193V37.6073Z" fill="#0A0708"/>
<path d="M61.2296 5.9635H8.89497C7.36147 5.9635 6.12866 7.22506 6.12866 8.75694V37.6223C6.12866 39.1692 7.3765 40.4307 8.89497 40.4307H61.2296C62.733 40.4307 63.9658 39.1692 63.9658 37.6223V8.75694C63.9658 7.22506 62.7481 5.9635 61.2296 5.9635ZM51.803 37.9377H18.2463C17.8103 37.9377 17.4646 37.5773 17.4646 37.1417C17.4646 36.7062 17.8103 36.3457 18.2463 36.3457H51.803C52.239 36.3457 52.5998 36.7062 52.5998 37.1417C52.6148 37.5773 52.2541 37.9377 51.803 37.9377ZM51.803 34.2131H18.2463C17.8103 34.2131 17.4646 33.8527 17.4646 33.4171C17.4646 32.9816 17.8103 32.6212 18.2463 32.6212H51.803C52.239 32.6212 52.5998 32.9816 52.5998 33.4171C52.5998 33.8527 52.2541 34.2131 51.803 34.2131ZM57.8168 20.9218H49.5929L46.6763 26.9142C46.4207 27.3197 46.12 27.575 45.7592 27.6952C45.6088 27.7552 45.4284 27.7852 45.248 27.7852C45.0375 27.7852 44.8271 27.7402 44.6166 27.6501C44.2107 27.4849 43.91 27.1695 43.7596 26.779L39.5951 15.9207L37.4151 20.0808C37.1445 20.6215 36.6183 20.9519 36.0169 20.9519H28.4847C26.5152 23.5801 23.7038 26.1633 20.9525 28.7014C20.8021 28.8365 20.6068 28.9116 20.4113 28.9116C20.2008 28.9116 20.0053 28.8365 19.855 28.7014C14.8486 24.0607 9.67671 19.2548 9.67671 14.3288C9.67671 11.3551 12.2627 8.95218 15.45 8.95218C17.9006 8.95218 19.3138 9.98846 20.4113 11.6255C21.5539 9.94341 22.9521 8.95218 25.4027 8.95218C28.5749 8.95218 31.1609 11.3551 31.1609 14.3288C31.1609 16.0259 30.5444 17.7079 29.5522 19.3449H36.0169L38.9937 13.5929C39.1441 13.3075 39.4297 13.1273 39.7454 13.1723C40.0762 13.1874 40.3318 13.3826 40.4521 13.6679L45.248 26.1933L48.4052 19.7654C48.5406 19.4951 48.8112 19.3299 49.1119 19.3299H57.8318C58.2678 19.3299 58.6286 19.6753 58.6286 20.1109C58.6136 20.5614 58.2528 20.9218 57.8168 20.9218Z" fill="#FFF1F5"/>
<path d="M52.6147 37.1266C52.6147 37.5622 52.254 37.9226 51.818 37.9226H18.2612C17.8252 37.9226 17.4795 37.5622 17.4795 37.1266C17.4795 36.6911 17.8252 36.3307 18.2612 36.3307H51.818C52.254 36.3307 52.6147 36.6911 52.6147 37.1266Z" fill="#0A0708"/>
<path d="M35.0548 42.8336C33.5514 42.8336 32.3035 44.0501 32.3035 45.567C32.3035 47.0989 33.5514 48.3604 35.0548 48.3604C36.5582 48.3604 37.791 47.0989 37.791 45.567C37.791 44.0652 36.5582 42.8336 35.0548 42.8336ZM35.0548 46.7534C34.4234 46.7534 33.8821 46.2128 33.8821 45.567C33.8821 44.9362 34.4234 44.4256 35.0548 44.4256C35.6862 44.4256 36.1824 44.9362 36.1824 45.567C36.1824 46.2128 35.6862 46.7534 35.0548 46.7534Z" fill="#0A0708"/>
<path d="M36.1824 45.5671C36.1824 46.2129 35.6862 46.7535 35.0548 46.7535C34.4234 46.7535 33.8821 46.2129 33.8821 45.5671C33.8821 44.9363 34.4234 44.4257 35.0548 44.4257C35.6862 44.4257 36.1824 44.9363 36.1824 45.5671Z" fill="#FF7195"/>
<path d="M57.8167 19.3449H49.0967C48.796 19.3449 48.5254 19.5101 48.3901 19.7804L45.2329 26.2083L40.4369 13.683C40.3166 13.3976 40.0611 13.2024 39.7303 13.1873C39.4297 13.1423 39.144 13.3225 38.9786 13.6079L36.0018 19.3599H29.537C30.5293 17.7229 31.1457 16.0408 31.1457 14.3438C31.1457 11.3701 28.5598 8.96716 25.3875 8.96716C22.9369 8.96716 21.5538 9.95838 20.3961 11.6404C19.2836 10.0034 17.8704 8.96716 15.4348 8.96716C12.2475 8.96716 9.66162 11.3701 9.66162 14.3438C9.66162 19.2698 14.8334 24.0757 19.8398 28.7164C19.9902 28.8515 20.1857 28.9266 20.3961 28.9266C20.5916 28.9266 20.772 28.8515 20.9374 28.7164C23.6887 26.1783 26.5 23.5951 28.4695 20.9669H36.0018C36.5881 20.9669 37.1294 20.6215 37.4 20.0958L39.58 15.9357L43.7445 26.794C43.8948 27.1995 44.2106 27.4999 44.6015 27.6651C44.8119 27.7552 45.0224 27.8003 45.2329 27.8003C45.4283 27.8003 45.5937 27.7552 45.7441 27.7101C46.1049 27.59 46.4055 27.3347 46.6611 26.9292L49.5779 20.9369H57.8016C58.2376 20.9369 58.5985 20.5764 58.5985 20.1409C58.6135 19.6903 58.2526 19.3449 57.8167 19.3449ZM27.6427 19.3599H21.3884C20.9524 19.3599 20.5916 19.7203 20.5916 20.1559C20.5916 20.5914 20.9524 20.9519 21.3884 20.9519H26.4399C24.726 23.0094 22.5159 25.0819 20.4262 27.0193C15.8407 22.7691 11.2703 18.3987 11.2703 14.3288C11.2703 12.2262 13.1496 10.5291 15.4499 10.5291C17.4494 10.5291 18.4868 11.25 19.7045 13.5478C19.8399 13.8181 20.1105 13.9683 20.3961 13.9683C20.6668 13.9533 20.9674 13.8181 21.1027 13.5628C22.3656 11.25 23.418 10.5291 25.4026 10.5291C27.7028 10.5291 29.5521 12.2262 29.5521 14.3288C29.5521 15.9658 28.8003 17.6628 27.6427 19.3599Z" fill="#0A0708"/>
<path d="M20.5916 20.1709C20.5916 20.6064 20.9524 20.9669 21.3884 20.9669H26.4399C24.726 23.0244 22.516 25.0969 20.4262 27.0343C15.8407 22.7841 11.2703 18.4137 11.2703 14.3437C11.2703 12.2412 13.1496 10.5441 15.4499 10.5441C17.4494 10.5441 18.4868 11.265 19.7046 13.5628C19.8399 13.8331 20.1105 13.9833 20.3962 13.9833C20.6668 13.9683 20.9674 13.8331 21.1027 13.5778C22.3656 11.265 23.418 10.5441 25.4026 10.5441C27.7028 10.5441 29.5521 12.2412 29.5521 14.3437C29.5521 15.9657 28.8003 17.6628 27.6427 19.3599H21.3884C20.9524 19.3599 20.5916 19.7203 20.5916 20.1709Z" fill="#F6A6A6"/>
</svg>
