<svg width="17" height="16" viewBox="0 0 17 16" fill="currentColor" xmlns="http://www.w3.org/2000/svg">
<g clip-path="url(#clip0_274_437)">
<g clip-path="url(#clip1_274_437)">
<path d="M8.39095 -0.000732422C6.21995 -0.000732422 5.94695 0.00926758 5.09395 0.0472676C4.24095 0.0872676 3.65995 0.221268 3.15095 0.419268C2.61704 0.620087 2.13344 0.935094 1.73395 1.34227C1.32702 1.74196 1.01205 2.22551 0.810945 2.75927C0.612945 3.26727 0.477945 3.84927 0.438945 4.69927C0.400945 5.55427 0.390945 5.82627 0.390945 8.00027C0.390945 10.1723 0.400945 10.4443 0.438945 11.2973C0.478945 12.1493 0.612945 12.7303 0.810945 13.2393C1.01595 13.7653 1.28895 14.2113 1.73395 14.6563C2.17795 15.1013 2.62395 15.3753 3.14995 15.5793C3.65995 15.7773 4.23995 15.9123 5.09195 15.9513C5.94595 15.9893 6.21795 15.9993 8.39095 15.9993C10.5639 15.9993 10.8349 15.9893 11.6889 15.9513C12.5399 15.9113 13.1229 15.7773 13.6319 15.5793C14.1655 15.3783 14.6488 15.0633 15.0479 14.6563C15.4929 14.2113 15.7659 13.7653 15.9709 13.2393C16.1679 12.7303 16.3029 12.1493 16.3429 11.2973C16.3809 10.4443 16.3909 10.1723 16.3909 7.99927C16.3909 5.82627 16.3809 5.55427 16.3429 4.70027C16.3029 3.84927 16.1679 3.26727 15.9709 2.75927C15.7699 2.22549 15.4549 1.74194 15.0479 1.34227C14.6486 0.934943 14.1649 0.619913 13.6309 0.419268C13.1209 0.221268 12.5389 0.0862676 11.6879 0.0472676C10.8339 0.00926758 10.5629 -0.000732422 8.38895 -0.000732422H8.39195H8.39095ZM7.67395 1.44127H8.39195C10.5279 1.44127 10.7809 1.44827 11.6239 1.48727C12.4039 1.52227 12.8279 1.65327 13.1099 1.76227C13.4829 1.90727 13.7499 2.08127 14.0299 2.36127C14.3099 2.64127 14.4829 2.90727 14.6279 3.28127C14.7379 3.56227 14.8679 3.98627 14.9029 4.76627C14.9419 5.60927 14.9499 5.86227 14.9499 7.99727C14.9499 10.1323 14.9419 10.3863 14.9029 11.2293C14.8679 12.0093 14.7369 12.4323 14.6279 12.7143C14.4997 13.0616 14.295 13.3757 14.0289 13.6333C13.7489 13.9133 13.4829 14.0863 13.1089 14.2313C12.8289 14.3413 12.4049 14.4713 11.6239 14.5073C10.7809 14.5453 10.5279 14.5543 8.39195 14.5543C6.25595 14.5543 6.00195 14.5453 5.15895 14.5073C4.37895 14.4713 3.95595 14.3413 3.67395 14.2313C3.32644 14.1032 3.01207 13.8988 2.75395 13.6333C2.4877 13.3753 2.28267 13.0609 2.15395 12.7133C2.04495 12.4323 1.91395 12.0083 1.87895 11.2283C1.84095 10.3853 1.83295 10.1323 1.83295 7.99527C1.83295 5.85927 1.84095 5.60727 1.87895 4.76427C1.91495 3.98427 2.04495 3.56027 2.15495 3.27827C2.29995 2.90527 2.47395 2.63827 2.75395 2.35827C3.03395 2.07827 3.29995 1.90527 3.67395 1.76027C3.95595 1.65027 4.37895 1.52027 5.15895 1.48427C5.89695 1.45027 6.18295 1.44027 7.67395 1.43927V1.44127ZM12.6619 2.76927C12.5359 2.76927 12.411 2.7941 12.2946 2.84234C12.1781 2.89059 12.0723 2.9613 11.9831 3.05045C11.894 3.13959 11.8233 3.24542 11.775 3.36189C11.7268 3.47836 11.7019 3.6032 11.7019 3.72927C11.7019 3.85534 11.7268 3.98017 11.775 4.09664C11.8233 4.21312 11.894 4.31895 11.9831 4.40809C12.0723 4.49723 12.1781 4.56795 12.2946 4.61619C12.411 4.66444 12.5359 4.68927 12.6619 4.68927C12.9166 4.68927 13.1607 4.58813 13.3408 4.40809C13.5208 4.22806 13.6219 3.98388 13.6219 3.72927C13.6219 3.47466 13.5208 3.23048 13.3408 3.05045C13.1607 2.87041 12.9166 2.76927 12.6619 2.76927ZM8.39195 3.89127C7.84702 3.88277 7.30584 3.98275 6.79992 4.18541C6.29401 4.38806 5.83346 4.68934 5.4451 5.07169C5.05673 5.45404 4.74831 5.90983 4.53779 6.41253C4.32726 6.91522 4.21885 7.45477 4.21885 7.99977C4.21885 8.54476 4.32726 9.08431 4.53779 9.58701C4.74831 10.0897 5.05673 10.5455 5.4451 10.9278C5.83346 11.3102 6.29401 11.6115 6.79992 11.8141C7.30584 12.0168 7.84702 12.1168 8.39195 12.1083C9.47049 12.0914 10.4992 11.6512 11.2559 10.8825C12.0127 10.1139 12.4368 9.07844 12.4368 7.99977C12.4368 6.92109 12.0127 5.88568 11.2559 5.11702C10.4992 4.34835 9.47049 3.90809 8.39195 3.89127ZM8.39195 5.33227C9.09928 5.33227 9.77764 5.61325 10.2778 6.11341C10.778 6.61357 11.0589 7.29193 11.0589 7.99927C11.0589 8.7066 10.778 9.38496 10.2778 9.88512C9.77764 10.3853 9.09928 10.6663 8.39195 10.6663C7.68461 10.6663 7.00625 10.3853 6.50609 9.88512C6.00593 9.38496 5.72495 8.7066 5.72495 7.99927C5.72495 7.29193 6.00593 6.61357 6.50609 6.11341C7.00625 5.61325 7.68461 5.33227 8.39195 5.33227Z" fill="#FFB3C6"/>
</g>
</g>
<defs>
<clipPath id="clip0_274_437">
<rect width="16" height="16" fill="white" transform="translate(0.391296)"/>
</clipPath>
<clipPath id="clip1_274_437">
<rect width="16" height="16" fill="white" transform="translate(0.391296)"/>
</clipPath>
</defs>
</svg>
