<svg width="71" height="66" viewBox="0 0 71 66" fill="none" xmlns="http://www.w3.org/2000/svg">
<path d="M12.6519 46.6286V37.4224L58.1764 19.5647H60.8412C60.8412 19.5647 69.5496 21.1175 69.5496 27.5508C69.5496 33.984 69.5496 49.9561 69.5496 49.9561C69.5496 49.9561 66.6944 55.1534 64.7433 55.8665C62.7923 56.5795 62.0785 56.5795 62.0785 56.5795C62.0785 56.5795 65.2668 62.9493 65.584 63.599C65.9013 64.2487 64.5372 64.7716 64.5372 64.7716C64.5372 64.7716 56.7329 63.7258 54.0046 61.0004C51.2763 58.275 50.4991 56.7696 50.4991 56.7696H19.7422C19.7422 56.7696 14.8725 54.1076 13.8256 51.5724C12.7787 49.0371 12.6519 46.6286 12.6519 46.6286Z" fill="#FFB3C6"/>
<path d="M60.3018 20.5471C64.9495 20.5471 68.7247 24.3659 68.7247 29.0403V47.4526C68.7247 51.509 65.8536 55.0267 61.9039 55.8031C61.4757 55.8823 61.1743 56.2943 61.2377 56.738C61.5391 59.0831 62.6019 61.444 64.4101 63.7892C62.3481 63.9476 55.5115 63.8525 51.5301 56.4052C51.3873 56.1358 51.1018 55.9616 50.7845 55.9616H21.9153C17.2677 55.9616 13.4924 52.1428 13.4924 47.4684C13.4924 47.0089 13.1118 46.6286 12.6518 46.6286C12.1918 46.6286 11.811 47.0089 11.811 47.4684C11.811 53.0777 16.3477 57.657 21.9153 57.657H50.2928C54.2583 64.6131 60.5398 65.5163 63.4902 65.5163C64.315 65.5163 64.8702 65.4529 65.0764 65.4212C65.4095 65.4212 65.7109 65.2945 65.8854 65.1202C66.4723 64.6131 66.5357 63.7575 66.0598 63.187C64.1405 60.8261 63.3474 58.7662 63.0302 57.2926C67.3447 56.0725 70.4061 52.0636 70.4061 47.4843V29.0403C70.4061 23.431 65.8695 18.8517 60.3018 18.8517C59.8418 18.8517 59.4612 19.232 59.4612 19.6915C59.4612 20.1668 59.8418 20.5471 60.3018 20.5471Z" fill="#0A0708"/>
<path d="M48.9129 0.486938H10.5105C4.94287 0.486938 0.40625 5.06625 0.40625 10.6755V29.0878C0.40625 33.6672 3.46766 37.6602 7.78218 38.8961C7.46493 40.3697 6.67187 42.4138 4.73668 44.7748C4.72082 44.7906 4.68905 44.8223 4.68905 44.8381C4.24491 45.4561 4.38768 46.3435 4.86355 46.6921C5.10148 46.9297 5.4346 47.0565 5.59322 47.0565C5.60909 47.0565 6.19596 47.1516 7.14769 47.1516C10.0981 47.1516 16.5064 46.2801 20.5196 39.2764H48.9129C54.4806 39.2764 59.0171 34.6971 59.0171 29.0878V10.6755C59.0171 5.0504 54.4806 0.486938 48.9129 0.486938ZM57.3199 29.0878C57.3199 33.7781 53.5447 37.581 48.9129 37.581H20.0437C19.7265 37.581 19.4409 37.7553 19.2982 38.0246C15.2692 45.5353 8.43253 45.6146 6.35458 45.4403C8.63874 42.5247 9.38431 40.0053 9.57466 38.3732C9.6381 37.9296 9.33669 37.5334 8.90841 37.4542C4.95872 36.6619 2.08766 33.1601 2.08766 29.1037V10.6755C2.08766 5.98528 5.86287 2.18239 10.4946 2.18239H48.8971C53.5288 2.18239 57.304 5.98528 57.304 10.6755V29.0878H57.3199Z" fill="#0A0708"/>
<path d="M48.9127 2.18237H10.5102C5.87848 2.18237 2.10327 5.98526 2.10327 10.6755V29.0878C2.10327 33.1601 4.95847 36.6619 8.92402 37.4383C9.3523 37.5176 9.65364 37.9295 9.59019 38.3574C9.38398 39.9894 8.63849 42.5089 6.37019 45.4244C8.44814 45.5987 15.2848 45.5195 19.3138 38.0088C19.4565 37.7394 19.742 37.5651 20.0592 37.5651H48.9285C53.5602 37.5651 57.3354 33.7622 57.3354 29.072V10.6755C57.3196 5.98526 53.5603 2.18237 48.9127 2.18237ZM29.7035 34.9031C21.471 34.9031 14.8089 28.1529 14.8089 19.8817C14.8089 11.6104 21.4869 4.86024 29.7035 4.86024C37.9043 4.86024 44.5981 11.6104 44.5981 19.8817C44.5981 28.1529 37.9043 34.9031 29.7035 34.9031Z" fill="#FFF1F5"/>
<path d="M29.7037 4.86023C21.4712 4.86023 14.8091 11.6104 14.8091 19.8816C14.8091 28.1529 21.4871 34.9031 29.7037 34.9031C37.9044 34.9031 44.5983 28.1529 44.5983 19.8816C44.5983 11.6104 37.9044 4.86023 29.7037 4.86023ZM29.7037 33.2076C22.4071 33.2076 16.4746 27.2339 16.4746 19.8816C16.4746 12.5135 22.4071 6.524 29.7037 6.524C36.9844 6.524 42.9169 12.4977 42.9169 19.8816C42.9169 27.2339 36.9844 33.2076 29.7037 33.2076Z" fill="#0A0708"/>
<path d="M29.7037 6.52405C22.4071 6.52405 16.4746 12.4978 16.4746 19.8817C16.4746 27.234 22.4071 33.2077 29.7037 33.2077C36.9844 33.2077 42.9169 27.234 42.9169 19.8817C42.9169 12.5136 36.9844 6.52405 29.7037 6.52405ZM38.2534 23.542H33.3361V28.5174C33.3361 29.6583 32.4161 30.5932 31.2581 30.5932H28.1333C27.0071 30.5932 26.0554 29.6424 26.0554 28.5174V23.542H21.1698C19.996 23.542 19.0919 22.6229 19.0919 21.4504V18.2813C19.0919 17.1404 19.996 16.2531 21.1698 16.2531H26.0554V11.2777C26.0554 10.1526 27.0071 9.18607 28.1333 9.18607H31.2581C32.4002 9.18607 33.3361 10.1368 33.3361 11.2777V16.2531H38.2534C39.3955 16.2531 40.3314 17.1563 40.3314 18.2813V21.4504C40.3314 22.5913 39.3955 23.542 38.2534 23.542Z" fill="#B9F7FF"/>
<path d="M38.2533 16.2531H33.336V11.2776C33.336 10.1368 32.416 9.18604 31.2581 9.18604H28.1333C27.007 9.18604 26.0553 10.1526 26.0553 11.2776V16.2531H21.1697C19.9959 16.2531 19.0918 17.1404 19.0918 18.2813V21.4504C19.0918 22.6229 19.9959 23.5419 21.1697 23.5419H26.0553V28.5174C26.0553 29.6424 27.007 30.5931 28.1333 30.5931H31.2581C32.4001 30.5931 33.336 29.6741 33.336 28.5174V23.5419H38.2533C39.3954 23.5419 40.3313 22.5912 40.3313 21.4504V18.2813C40.3313 17.1563 39.3954 16.2531 38.2533 16.2531ZM38.6499 21.4504C38.6499 21.7197 38.4437 21.8465 38.2533 21.8465H32.5112C32.0512 21.8465 31.6705 22.2268 31.6705 22.6863V28.5174C31.6705 28.6917 31.5277 28.9135 31.2739 28.9135H28.1491C27.9428 28.9135 27.7684 28.7075 27.7684 28.5174V22.7021C27.7684 22.2426 27.3877 21.8623 26.9277 21.8623H21.2014C20.9635 21.8623 20.8049 21.7039 20.8049 21.4662V18.2971C20.8049 18.0911 20.9794 17.9327 21.2014 17.9327H26.9277C27.3877 17.9327 27.7684 17.5524 27.7684 17.0929V11.2935C27.7684 11.0716 27.9428 10.8973 28.1491 10.8973H31.2739C31.5436 10.8973 31.6705 11.1033 31.6705 11.2935V17.0929C31.6705 17.5524 32.0512 17.9327 32.5112 17.9327H38.2533C38.4754 17.9327 38.6499 18.0911 38.6499 18.2971V21.4504Z" fill="#0A0708"/>
<path d="M38.6499 18.2813V21.4504C38.6499 21.7197 38.4437 21.8465 38.2534 21.8465H32.5112C32.0512 21.8465 31.6705 22.2268 31.6705 22.6863V28.5174C31.6705 28.6917 31.5278 28.9135 31.274 28.9135H28.1491C27.9429 28.9135 27.7684 28.7075 27.7684 28.5174V22.7021C27.7684 22.2426 27.3878 21.8623 26.9278 21.8623H21.2015C20.9636 21.8623 20.8049 21.7039 20.8049 21.4662V18.2971C20.8049 18.0911 20.9794 17.9327 21.2015 17.9327H26.9278C27.3878 17.9327 27.7684 17.5524 27.7684 17.0929V11.2935C27.7684 11.0716 27.9429 10.8973 28.1491 10.8973H31.274C31.5436 10.8973 31.6705 11.1033 31.6705 11.2935V17.0929C31.6705 17.5524 32.0512 17.9327 32.5112 17.9327H38.2534C38.4754 17.9168 38.6499 18.0911 38.6499 18.2813Z" fill="#35A0CD"/>
</svg>
