<svg width="46" height="71" viewBox="0 0 46 71" fill="none" xmlns="http://www.w3.org/2000/svg">
<path d="M8.84985 14.4332H28.7699L36.3247 41.6874V63.7678C36.3247 63.7678 35.7198 69.6785 29.9798 69.6785C24.2399 69.6785 6.84307 69.6785 6.84307 69.6785C6.84307 69.6785 1.42773 69.3837 1.42773 62.5444C1.42773 55.7051 1.42773 19.5775 1.42773 19.5775C1.42773 19.5775 3.99525 14.4332 8.84985 14.4332Z" fill="#FFB3C6"/>
<path d="M3.05103 57.5034V23.4394C3.05103 22.437 3.89212 21.6263 4.92502 21.6263H28.9029C29.7882 21.6263 30.5555 22.2307 30.7326 23.0709L34.7313 41.9232C34.7609 42.0412 34.7756 42.1591 34.7756 42.2917V58.9774C34.7756 59.9797 33.9346 60.7904 32.9017 60.7904H6.37104C6.35628 60.7756 3.05103 61.3652 3.05103 57.5034Z" fill="#FFF1F5"/>
<path d="M32.6065 44.8417V42.1L9.41068 24.4563C9.41068 24.4563 5.54468 24.0288 5.54468 28.6277C5.54468 33.2266 5.54468 55.646 5.54468 55.646C5.54468 55.646 7.30065 57.5033 9.66155 57.5033C12.0224 57.5033 28.8438 57.5033 28.8438 57.5033C28.8438 57.5033 32.1786 56.4862 32.6212 54.6142C33.0639 52.7423 32.6065 44.8417 32.6065 44.8417Z" fill="#C2A886"/>
<path d="M8.06781 70.5777H29.5372C33.7426 70.5777 37.1659 67.1285 37.1659 62.8834V44.0015C37.1659 43.5741 36.8117 43.2203 36.3838 43.2203C35.9559 43.2203 35.6018 43.5741 35.6018 44.0015V62.8834C35.6018 66.2589 32.8867 69.0152 29.5372 69.0152H8.06781C4.70354 69.0152 1.97378 66.2736 1.97378 62.8834V21.3462C1.97378 17.9708 4.70354 15.2144 8.06781 15.2144C8.49573 15.2144 8.84991 14.8607 8.84991 14.4332C8.84991 14.0057 8.49573 13.652 8.06781 13.652C3.84771 13.652 0.409668 17.1011 0.409668 21.3462V62.8834C0.409668 67.1285 3.83295 70.5777 8.06781 70.5777Z" fill="#0A0708"/>
<path d="M32.7688 60.8787C32.7688 60.4513 32.4147 60.0975 31.9868 60.0975H5.61852C4.64465 60.0975 3.83315 59.2721 3.83315 58.2845C3.83315 57.8571 3.47897 57.5033 3.05106 57.5033C2.62315 57.5033 2.26904 57.8571 2.26904 58.2845C2.26904 60.1417 3.77407 61.66 5.61852 61.66H31.9868C32.4147 61.66 32.7688 61.3209 32.7688 60.8787Z" fill="#0A0708"/>
<path d="M4.83643 21.6263C4.83643 22.0538 5.19053 22.4075 5.61844 22.4075H14.4718C14.8997 22.4075 15.2539 22.0538 15.2539 21.6263C15.2539 21.1989 14.8997 20.8451 14.4718 20.8451H5.61844C5.19053 20.8451 4.83643 21.1841 4.83643 21.6263Z" fill="#0A0708"/>
<path d="M18.7805 61.9547C16.9213 61.9547 15.4163 63.4729 15.4163 65.3302C15.4163 67.2021 16.9213 68.7351 18.7805 68.7351C20.6692 68.7351 22.1743 67.2316 22.1743 65.3302C22.1743 63.4729 20.6545 61.9547 18.7805 61.9547ZM18.7805 67.1579C17.7919 67.1579 16.9951 66.3472 16.9951 65.3154C16.9951 64.3278 17.7771 63.5024 18.7805 63.5024C19.7986 63.5024 20.5954 64.3131 20.5954 65.3154C20.5954 66.3472 19.7986 67.1579 18.7805 67.1579Z" fill="#0A0708"/>
<path d="M20.5952 65.3302C20.5952 66.362 19.7837 67.1727 18.7803 67.1727C17.7917 67.1727 16.9949 66.362 16.9949 65.3302C16.9949 64.3426 17.7769 63.5172 18.7803 63.5172C19.7985 63.5024 20.5952 64.3131 20.5952 65.3302Z" fill="#FF7195"/>
<path d="M36.2215 28.6277L33.6835 24.4711L35.9116 20.7861C35.9263 20.7271 35.9706 20.6682 36.0001 20.5945V20.3881C36.0001 20.1228 35.9263 19.9754 35.7345 19.828C35.5427 19.6953 35.3804 19.6364 35.159 19.6364C35.0262 19.6364 34.9082 19.6511 34.7901 19.6953C34.6721 19.7543 34.5836 19.8427 34.495 19.9754L32.7096 22.9676C32.0308 21.7442 31.3521 20.5355 30.6438 19.3121C31.3521 19.1205 31.9128 18.7667 32.2817 18.2803C32.6506 17.7791 32.8424 17.1748 32.8424 16.5557C32.8424 16.143 32.7539 15.7745 32.5916 15.3913C32.3997 15.0228 32.1784 14.7132 31.8833 14.4037C31.5586 14.1236 31.234 13.9025 30.7914 13.7109C30.393 13.5193 29.9356 13.4603 29.4191 13.4603H27.132C26.8811 13.4603 26.7041 13.5193 26.5565 13.6519C26.3647 13.7993 26.3057 13.991 26.3057 14.2563V22.776C26.3057 23.0265 26.3647 23.2034 26.5565 23.3803C26.7041 23.4982 26.8959 23.5867 27.132 23.5867C27.3681 23.5867 27.6041 23.4982 27.7517 23.3803C27.8992 23.2182 28.0026 23.0265 28.0026 22.776V19.6806H28.9027L31.7948 24.5005L29.2863 28.6277C29.1978 28.7604 29.1535 28.8783 29.1535 29.0404C29.1535 29.2468 29.2421 29.4384 29.4339 29.6006C29.6257 29.748 29.8027 29.8069 30.0388 29.8069C30.3339 29.8069 30.5848 29.689 30.7766 29.3795L32.7244 25.9745L34.7164 29.3795C34.8049 29.5269 34.9377 29.6595 35.0557 29.7185C35.1885 29.7922 35.3214 29.8069 35.4689 29.8069C35.6755 29.8069 35.8673 29.748 36.0444 29.6006C36.2362 29.4384 36.3247 29.2468 36.3247 29.0404V28.8193C36.2804 28.7604 36.2657 28.6719 36.2215 28.6277ZM29.4339 18.1181H28.0026V15.0228H29.4339C29.6995 15.0228 29.906 15.0965 30.1274 15.1849C30.3192 15.2439 30.4963 15.3765 30.6586 15.4797C30.8061 15.6418 30.9389 15.804 31.0275 15.9809C31.116 16.1725 31.1455 16.3494 31.1455 16.541C31.1455 16.7326 31.1307 16.9537 31.0275 17.1453C30.9389 17.2927 30.8061 17.4843 30.6586 17.617C30.511 17.7644 30.3192 17.8971 30.1274 17.956C29.906 18.0592 29.6995 18.1181 29.4339 18.1181Z" fill="#0A0708"/>
<path d="M40.9728 0.577637H20.7724C18.441 0.577637 16.5523 2.49383 16.5523 4.83748V23.8962H8.51048C6.4447 23.8962 4.77734 25.5766 4.77734 27.6402V54.0394C4.77734 56.3831 6.66608 58.2993 8.99746 58.2993H29.1536C31.4997 58.2993 33.3885 56.3831 33.3885 54.0394V45.6229C33.3885 45.1954 33.0343 44.8417 32.6064 44.8417C32.1785 44.8417 31.8243 45.1954 31.8243 45.6229V54.0394C31.8243 55.5134 30.6439 56.7221 29.1683 56.7221H9.01216C7.55135 56.7221 6.35615 55.5282 6.35615 54.0394V27.6549C6.35615 26.461 7.33005 25.4881 8.52525 25.4881C9.7057 25.4881 10.6796 26.461 10.6796 27.6549V38.9162C10.6796 40.9798 12.3469 42.6602 14.398 42.6602H41.4745C43.5255 42.6602 45.1634 40.9798 45.1634 38.9162V4.82274C45.1486 2.49383 43.2747 0.577637 40.9728 0.577637ZM16.5523 38.9015C16.5523 40.1249 15.5932 41.0978 14.3833 41.0978C13.2028 41.0978 12.2289 40.1102 12.2289 38.9015V27.6402C12.2289 26.8295 11.9633 26.063 11.5354 25.4734H16.5671V38.9015H16.5523ZM43.5994 38.9015C43.5994 40.0954 42.6402 41.0978 41.445 41.0978H17.4376C17.4376 41.083 17.4376 41.083 17.4524 41.0535C17.6442 40.7882 17.777 40.4934 17.8803 40.1691C17.8951 40.0954 17.9246 40.0217 17.9541 39.948C18.0426 39.609 18.1016 39.27 18.1016 38.9015V4.82274C18.1016 3.34875 19.2968 2.14007 20.7576 2.14007H40.9581C42.3893 2.14007 43.5846 3.36349 43.5846 4.82274V38.9015H43.5994Z" fill="#0A0708"/>
<path d="M16.5523 25.4735V38.9016C16.5523 40.125 15.5932 41.0979 14.3833 41.0979C13.2028 41.0979 12.2289 40.1103 12.2289 38.9016V27.6403C12.2289 26.8296 11.9633 26.0631 11.5354 25.4735H16.5523Z" fill="#E09D31"/>
<path d="M40.9728 2.15479H20.7724C19.3116 2.15479 18.1164 3.34872 18.1164 4.83746V38.9162C18.1164 39.2847 18.0574 39.6237 17.9688 39.9627C17.9246 40.0364 17.9098 40.1101 17.8951 40.1838C17.777 40.5081 17.6442 40.8029 17.4672 41.0682C17.4524 41.083 17.4524 41.083 17.4524 41.1125H41.4598C42.655 41.1125 43.6141 40.1249 43.6141 38.9162V4.82272C43.5993 3.36346 42.3894 2.15479 40.9728 2.15479ZM36.31 29.0404C36.31 29.2468 36.2215 29.4384 36.0297 29.6006C35.8379 29.748 35.6608 29.8069 35.4542 29.8069C35.3067 29.8069 35.1739 29.7922 35.0411 29.7185C34.9231 29.6595 34.7902 29.5269 34.7017 29.3795L32.7097 25.9745L30.762 29.3795C30.5702 29.7037 30.3341 29.8069 30.0242 29.8069C29.8029 29.8069 29.611 29.748 29.4192 29.6006C29.2274 29.4384 29.1389 29.2468 29.1389 29.0404C29.1389 28.8783 29.1831 28.7604 29.2716 28.6277L31.7801 24.5005L28.888 19.6806H27.9879V22.776C27.9879 23.0265 27.8994 23.2034 27.7371 23.3803C27.5895 23.4982 27.3682 23.5867 27.1173 23.5867C26.8665 23.5867 26.6894 23.4982 26.5419 23.3803C26.35 23.2182 26.291 23.0265 26.291 22.776V14.2563C26.291 13.991 26.35 13.7993 26.5419 13.6519C26.6894 13.5193 26.8812 13.4603 27.1173 13.4603H29.4044C29.9061 13.4603 30.3783 13.5193 30.7767 13.7109C31.2046 13.9025 31.544 14.1236 31.8687 14.4037C32.1638 14.728 32.3998 15.0228 32.5769 15.3913C32.7244 15.7598 32.8278 16.143 32.8278 16.5557C32.8278 17.1748 32.6359 17.7791 32.267 18.2803C31.9129 18.7667 31.3521 19.1205 30.6291 19.3121C31.3374 20.5355 32.0161 21.7442 32.6949 22.9676L34.4804 19.9754C34.5689 19.8427 34.6722 19.7543 34.7755 19.6953C34.9083 19.6511 35.0263 19.6364 35.1444 19.6364C35.3657 19.6364 35.5427 19.6953 35.7198 19.828C35.9116 19.9754 35.9855 20.1228 35.9855 20.3881V20.5945C35.9412 20.6682 35.9117 20.7271 35.8969 20.7861L33.6688 24.4711L36.2068 28.6277C36.2511 28.6867 36.2658 28.7604 36.2953 28.8193V29.0404H36.31Z" fill="#F0E2BF"/>
<path d="M31.1456 16.5558C31.1456 16.7474 31.1309 16.9685 31.0276 17.1601C30.9391 17.3075 30.8063 17.4991 30.6587 17.6318C30.5111 17.7792 30.3193 17.9119 30.1275 17.9708C29.9061 18.0593 29.6996 18.1182 29.434 18.1182H28.0027V15.0228H29.434C29.6996 15.0228 29.9061 15.0965 30.1275 15.185C30.3193 15.2439 30.4964 15.3766 30.6587 15.4798C30.8063 15.6419 30.9391 15.804 31.0276 15.9809C31.1161 16.1873 31.1456 16.3642 31.1456 16.5558Z" fill="#F0E2BF"/>
</svg>
