<svg width="17" height="16" viewBox="0 0 17 16" fill="none" xmlns="http://www.w3.org/2000/svg">
<g clip-path="url(#clip0_274_421)">
<g clip-path="url(#clip1_274_421)">
<path d="M0.390945 1.14527C0.390945 0.512268 0.916945 -0.000732422 1.56595 -0.000732422H15.2159C15.8649 -0.000732422 16.3909 0.512268 16.3909 1.14527V14.8533C16.3909 15.4863 15.8649 15.9993 15.2159 15.9993H1.56595C0.916945 15.9993 0.390945 15.4863 0.390945 14.8533V1.14527ZM5.33395 13.3933V6.16827H2.93295V13.3933H5.33395ZM4.13395 5.18127C4.97095 5.18127 5.49195 4.62727 5.49195 3.93327C5.47695 3.22427 4.97195 2.68527 4.14995 2.68527C3.32795 2.68527 2.79095 3.22527 2.79095 3.93327C2.79095 4.62727 3.31195 5.18127 4.11795 5.18127H4.13395ZM9.04195 13.3933V9.35827C9.04195 9.14227 9.05795 8.92627 9.12195 8.77227C9.29495 8.34127 9.68995 7.89427 10.3539 7.89427C11.2229 7.89427 11.5699 8.55627 11.5699 9.52827V13.3933H13.9709V9.24927C13.9709 7.02927 12.7869 5.99727 11.2069 5.99727C9.93295 5.99727 9.36195 6.69727 9.04195 7.19027V7.21527H9.02595C9.03126 7.20692 9.03659 7.19859 9.04195 7.19027V6.16827H6.64195C6.67195 6.84627 6.64195 13.3933 6.64195 13.3933H9.04195Z" fill="#FFB3C6"/>
</g>
</g>
<defs>
<clipPath id="clip0_274_421">
<rect width="16" height="16" fill="white" transform="translate(0.391296)"/>
</clipPath>
<clipPath id="clip1_274_421">
<rect width="16" height="16" fill="white" transform="translate(0.391296)"/>
</clipPath>
</defs>
</svg>
