<svg width="71" height="54" viewBox="0 0 71 54" fill="none" xmlns="http://www.w3.org/2000/svg">
<path d="M50.7323 44.5535H44.4507V50.4024H50.7323V44.5535Z" fill="#F0E2BF"/>
<path d="M62.0491 12.2121H51.372V3.5287C51.372 1.59542 49.7811 0.022583 47.7473 0.022583H17.4381C15.5027 0.022583 13.9118 1.57903 13.9118 3.5287V12.2121H8.51585C3.97274 12.2121 0.282471 15.9476 0.282471 20.5186V44.8484C0.282471 49.4359 3.97274 53.155 8.51585 53.155H62.0491C66.5922 53.155 70.2825 49.4195 70.2825 44.8484V20.5186C70.2825 15.9476 66.5922 12.2121 62.0491 12.2121ZM51.372 16.3244H58.2112C58.8017 16.3244 59.2773 16.7995 59.2773 17.3729V48.0105C59.2773 48.6003 58.8017 49.059 58.2112 49.059H51.372V16.3244ZM15.6667 3.5287C15.6667 2.54567 16.454 1.75926 17.4381 1.75926C18.3893 1.75926 19.193 2.54567 19.193 3.5287V12.2121H15.6667V3.5287ZM68.5276 44.8484C68.5276 48.4692 65.6082 51.4019 62.0491 51.4019H8.51585C4.924 51.4019 2.00459 48.4692 2.00459 44.8484V20.5186C2.00459 16.8978 4.924 13.9651 8.51585 13.9651H19.193V14.5877H12.3701C10.812 14.5877 9.53271 15.8329 9.53271 17.3566V48.0105C9.53271 49.5505 10.812 50.7793 12.3701 50.7793H19.3734C19.5374 50.9923 19.767 51.1398 20.0622 51.1398C20.3411 51.1398 20.5871 50.9923 20.7347 50.7793H45.8612C46.3368 50.7793 46.7305 50.4025 46.7305 49.9274C46.7305 49.4522 46.3368 49.059 45.8612 49.059H20.9315V13.277C20.9479 13.2115 20.9807 13.1459 20.9807 13.0968C20.9807 13.0312 20.9643 12.9985 20.9315 12.9493V3.54508C20.9315 2.90612 20.7511 2.29992 20.4559 1.77564H47.8621C48.8462 1.77564 49.6335 2.56206 49.6335 3.54508V50.2714C49.6335 50.7466 50.0271 51.1398 50.5027 51.1398C50.7979 51.1398 51.0276 50.9923 51.1916 50.7793H58.2112C59.7529 50.7793 60.9994 49.5505 60.9994 48.0105V17.3566C60.9994 15.8329 59.7529 14.5877 58.2112 14.5877H51.372V13.9651H62.0491C65.6082 13.9651 68.5276 16.8978 68.5276 20.5186V44.8484ZM19.1766 16.3244V49.059H12.3537C11.7633 49.059 11.2712 48.5839 11.2712 48.0105V17.3566C11.2712 16.7995 11.7797 16.308 12.3537 16.308H19.1766V16.3244Z" fill="#0A0708"/>
<path d="M19.1766 3.52872V12.2121H15.6504V3.52872C15.6504 2.54569 16.4376 1.75928 17.4217 1.75928C18.3894 1.75928 19.1766 2.54569 19.1766 3.52872Z" fill="#C2A886"/>
<path d="M20.9151 12.9493C20.9315 12.9985 20.9643 13.0313 20.9643 13.0968C20.9643 13.1623 20.9479 13.2279 20.9151 13.277V49.0591H45.8448V46.9619H49.6171V3.52872C49.6171 2.54569 48.8298 1.75928 47.8457 1.75928H20.4395C20.7347 2.28356 20.9151 2.88975 20.9151 3.52872V12.9493ZM41.9413 43.7343H28.5744C28.0988 43.7343 27.7216 43.3411 27.7216 42.866C27.7216 42.3909 28.0988 41.9977 28.5744 41.9977H41.9413C42.417 41.9977 42.8106 42.3909 42.8106 42.866C42.827 43.3411 42.4334 43.7343 41.9413 43.7343ZM41.9413 38.9175H28.5744C28.0988 38.9175 27.7216 38.5243 27.7216 38.0492C27.7216 37.5741 28.0988 37.1809 28.5744 37.1809H41.9413C42.417 37.1809 42.8106 37.5741 42.8106 38.0492C42.827 38.5079 42.4334 38.9175 41.9413 38.9175ZM41.9413 34.0352H28.5744C28.0988 34.0352 27.7216 33.6584 27.7216 33.1832C27.7216 32.7081 28.0988 32.3149 28.5744 32.3149H41.9413C42.417 32.3149 42.8106 32.7081 42.8106 33.1832C42.8106 33.6584 42.4334 34.0352 41.9413 34.0352ZM41.9413 29.1856H28.5744C28.0988 29.1856 27.7216 28.7924 27.7216 28.3173C27.7216 27.8421 28.0988 27.4489 28.5744 27.4489H41.9413C42.417 27.4489 42.8106 27.8421 42.8106 28.3173C42.827 28.7924 42.4334 29.1856 41.9413 29.1856ZM41.9413 24.3196H28.5744C28.0988 24.3196 27.7216 23.9264 27.7216 23.4513C27.7216 22.9762 28.0988 22.5994 28.5744 22.5994H41.9413C42.417 22.5994 42.8106 22.9762 42.8106 23.4513C42.8106 23.9264 42.4334 24.3196 41.9413 24.3196ZM35.2825 4.51174C39.842 4.51174 43.565 8.26361 43.565 12.8838C43.565 17.4876 39.8584 21.2395 35.2825 21.2395C30.723 21.2395 26.9999 17.4876 26.9999 12.8838C26.9999 8.26361 30.7066 4.51174 35.2825 4.51174Z" fill="#F0E2BF"/>
<path d="M62.0492 13.9652H51.3721V14.5878H58.2113C59.753 14.5878 60.9995 15.833 60.9995 17.3566V48.0106C60.9995 49.5506 59.753 50.7794 58.2113 50.7794H51.1753C51.0112 50.9924 50.7816 51.1399 50.4864 51.1399C50.0108 51.1399 49.6171 50.7466 49.6171 50.2715V49.9438H46.7142C46.7142 50.419 46.3205 50.7958 45.8449 50.7958H20.7184C20.5708 51.0088 20.3247 51.1562 20.0459 51.1562C19.7507 51.1562 19.5211 51.0088 19.3571 50.7958H12.3538C10.7957 50.7958 9.5164 49.567 9.5164 48.0269V17.3566C9.5164 15.833 10.7957 14.5878 12.3538 14.5878H19.1767V13.9652H8.49954C4.90769 13.9652 1.98828 16.8979 1.98828 20.5187V44.8485C1.98828 48.4693 4.90769 51.402 8.49954 51.402H62.0328C65.5918 51.402 68.5112 48.4693 68.5112 44.8485V20.5187C68.5276 16.8979 65.6082 13.9652 62.0492 13.9652ZM7.9419 40.5724C7.9419 41.7847 6.95782 42.7514 5.76054 42.7514C4.57966 42.7514 3.612 41.7684 3.612 40.5724V24.8276C3.612 23.6152 4.56326 22.6486 5.76054 22.6486C6.97422 22.6486 7.9419 23.6316 7.9419 24.8276V40.5724ZM66.9695 40.5724C66.9695 41.7847 65.9855 42.7514 64.8046 42.7514C63.5909 42.7514 62.6232 41.7684 62.6232 40.5724V24.8276C62.6232 23.6152 63.6073 22.6486 64.8046 22.6486C65.9855 22.6486 66.9695 23.6316 66.9695 24.8276V40.5724Z" fill="#FFB3C6"/>
<path d="M19.1766 16.3244V49.059H12.3537C11.7633 49.059 11.2712 48.5839 11.2712 48.0105V17.3565C11.2712 16.7995 11.7797 16.308 12.3537 16.308H19.1766V16.3244Z" fill="#FFF1F5"/>
<path d="M59.2772 17.3565V48.0104C59.2772 48.6003 58.8015 49.059 58.2111 49.059H51.3718V16.3243H58.2111C58.7851 16.3243 59.2772 16.7995 59.2772 17.3565Z" fill="#FFF1F5"/>
<path d="M5.76036 22.6486C4.57948 22.6486 3.61182 23.6316 3.61182 24.8276V40.5723C3.61182 41.7847 4.56308 42.7514 5.76036 42.7514C6.97404 42.7514 7.94172 41.7683 7.94172 40.5723V24.8276C7.94172 23.6316 6.97404 22.6486 5.76036 22.6486ZM6.2032 40.5723C6.2032 41.0475 5.36673 41.0802 5.36673 40.5723V24.8276C5.36673 24.5491 5.57995 24.3688 5.76036 24.3688C6.00638 24.3688 6.2032 24.5818 6.2032 24.8276V40.5723Z" fill="#0A0708"/>
<path d="M6.20342 24.8275V40.5723C6.20342 41.0474 5.36694 41.0802 5.36694 40.5723V24.8275C5.36694 24.549 5.58016 24.3688 5.76057 24.3688C6.00659 24.3688 6.20342 24.5818 6.20342 24.8275Z" fill="#FF7195"/>
<path d="M64.788 22.6486C63.5744 22.6486 62.6067 23.6316 62.6067 24.8276V40.5723C62.6067 41.7847 63.5908 42.7514 64.788 42.7514C65.9689 42.7514 66.953 41.7683 66.953 40.5723V24.8276C66.9694 23.6316 65.9853 22.6486 64.788 22.6486ZM65.2309 40.5723C65.2309 41.0802 64.3616 41.0802 64.3616 40.5723V24.8276C64.3616 24.5818 64.542 24.3688 64.8045 24.3688C65.0341 24.3688 65.2473 24.5818 65.2473 24.8276V40.5723H65.2309Z" fill="#0A0708"/>
<path d="M65.2308 24.8275V40.5723C65.2308 41.0802 64.3616 41.0802 64.3616 40.5723V24.8275C64.3616 24.5818 64.542 24.3688 64.8044 24.3688C65.0176 24.3688 65.2308 24.5818 65.2308 24.8275Z" fill="#FF7195"/>
<path d="M42.8268 42.8659C42.8268 43.341 42.4332 43.7342 41.9576 43.7342H28.5907C28.115 43.7342 27.7378 43.341 27.7378 42.8659C27.7378 42.3908 28.115 41.9976 28.5907 41.9976H41.9576C42.4332 41.9976 42.8268 42.3908 42.8268 42.8659Z" fill="#0A0708"/>
<path d="M35.2826 4.51172C30.7231 4.51172 27 8.26359 27 12.8838C27 17.4876 30.7067 21.2395 35.2826 21.2395C39.8421 21.2395 43.5651 17.4876 43.5651 12.8838C43.5487 8.26359 39.8421 4.51172 35.2826 4.51172ZM35.2826 19.4864C31.6743 19.4864 28.7385 16.5374 28.7385 12.8838C28.7385 9.21385 31.6743 6.24839 35.2826 6.24839C38.8908 6.24839 41.8102 9.23023 41.8102 12.8838C41.7938 16.521 38.8908 19.4864 35.2826 19.4864Z" fill="#0A0708"/>
<path d="M35.2826 6.23206C31.6743 6.23206 28.7385 9.21389 28.7385 12.8675C28.7385 16.5046 31.6743 19.4701 35.2826 19.4701C38.8908 19.4701 41.8102 16.521 41.8102 12.8675C41.7938 9.21389 38.8908 6.23206 35.2826 6.23206ZM38.8252 14.9973H37.3819V16.4555C37.3819 17.3566 36.6931 18.0611 35.791 18.0611H34.7414C33.8393 18.0611 33.1504 17.3566 33.1504 16.4555V14.9973H31.7071C30.8379 14.9973 30.0998 14.2765 30.0998 13.3917V12.3432C30.0998 11.4421 30.8051 10.7376 31.7071 10.7376H33.1504V9.26304C33.1504 8.36194 33.8557 7.65744 34.7414 7.65744H35.791C36.6603 7.65744 37.3819 8.36194 37.3819 9.26304V10.7376H38.8252C39.7273 10.7376 40.4325 11.4421 40.4325 12.3432V13.3917C40.4325 14.2765 39.6945 14.9973 38.8252 14.9973Z" fill="#B9F7FF"/>
<path d="M42.8268 38.0328C42.8268 38.5079 42.4332 38.9011 41.9576 38.9011H28.5907C28.115 38.9011 27.7378 38.5079 27.7378 38.0328C27.7378 37.5576 28.115 37.1644 28.5907 37.1644H41.9576C42.4332 37.1644 42.8268 37.5576 42.8268 38.0328Z" fill="#0A0708"/>
<path d="M42.8268 23.435C42.8268 23.9101 42.4332 24.3033 41.9576 24.3033H28.5907C28.115 24.3033 27.7378 23.9101 27.7378 23.435C27.7378 22.9598 28.115 22.583 28.5907 22.583H41.9576C42.4332 22.583 42.8268 22.9598 42.8268 23.435Z" fill="#0A0708"/>
<path d="M42.8268 28.3172C42.8268 28.7923 42.4332 29.1855 41.9576 29.1855H28.5907C28.115 29.1855 27.7378 28.7923 27.7378 28.3172C27.7378 27.8421 28.115 27.4489 28.5907 27.4489H41.9576C42.4332 27.4325 42.8268 27.8257 42.8268 28.3172Z" fill="#0A0708"/>
<path d="M42.8268 33.1833C42.8268 33.6584 42.4332 34.0352 41.9576 34.0352H28.5907C28.115 34.0352 27.7378 33.6584 27.7378 33.1833C27.7378 32.7081 28.115 32.3149 28.5907 32.3149H41.9576C42.4332 32.3149 42.8268 32.7081 42.8268 33.1833Z" fill="#0A0708"/>
<path d="M38.8252 10.754H37.382V9.27944C37.382 8.37833 36.6767 7.67383 35.791 7.67383H34.7414C33.8721 7.67383 33.1505 8.37833 33.1505 9.27944V10.754H31.7072C30.8051 10.754 30.0999 11.4585 30.0999 12.3596V13.4081C30.0999 14.2765 30.8215 15.0137 31.7072 15.0137H33.1505V16.4719C33.1505 17.373 33.8393 18.0775 34.7414 18.0775H35.791C36.6931 18.0775 37.382 17.373 37.382 16.4719V15.0137H38.8252C39.6945 15.0137 40.4326 14.2928 40.4326 13.4081V12.3596C40.4326 11.4585 39.7109 10.754 38.8252 10.754ZM38.6776 13.2607H36.5127C36.0371 13.2607 35.6598 13.6539 35.6598 14.129V16.308H34.9054V14.129C34.9054 13.6539 34.5118 13.2607 34.0361 13.2607H31.8876V12.507H34.0361C34.5118 12.507 34.9054 12.1138 34.9054 11.6387V9.4105H35.6598V11.6387C35.6598 12.1138 36.0371 12.507 36.5127 12.507H38.6776V13.2607Z" fill="#0A0708"/>
<path d="M38.6775 12.5069V13.2606H36.5126C36.0369 13.2606 35.6597 13.6538 35.6597 14.1289V16.3079H34.9053V14.1289C34.9053 13.6538 34.5116 13.2606 34.036 13.2606H31.8875V12.5069H34.036C34.5116 12.5069 34.9053 12.1137 34.9053 11.6386V9.4104H35.6597V11.6386C35.6597 12.1137 36.0369 12.5069 36.5126 12.5069H38.6775Z" fill="#35A0CD"/>
</svg>
