<svg width="71" height="58" viewBox="0 0 71 58" fill="none" xmlns="http://www.w3.org/2000/svg">
<path d="M62.3305 0.49707H9.41069C4.70288 0.49707 0.870605 4.35395 0.870605 9.09978V41.0589C0.870605 45.7903 4.70288 49.6616 9.41069 49.6616H27.3234V53.074H20.319C18.9842 53.074 17.8934 54.1636 17.8934 55.4971C17.8934 56.8592 18.9842 57.9632 20.319 57.9632H51.3934C52.7426 57.9632 53.8335 56.8735 53.8335 55.4971C53.8335 54.1636 52.7426 53.074 51.3934 53.074H44.4035V49.6616H62.3305C67.0383 49.6616 70.8706 45.8047 70.8706 41.0589V9.09978C70.8706 4.36829 67.0383 0.49707 62.3305 0.49707ZM51.3934 54.5938C51.9102 54.5938 52.3264 55.0096 52.3264 55.5114C52.3264 56.0419 51.9102 56.4577 51.3934 56.4577H20.319C19.831 56.4577 19.4292 56.0419 19.4292 55.5114C19.4292 55.0239 19.831 54.5938 20.319 54.5938H51.3934ZM28.8591 53.074V49.6616H42.8821V53.074H28.8591ZM69.3348 41.0732C69.3348 44.9731 66.1915 48.1417 62.3305 48.1417H9.41069C5.54971 48.1417 2.39205 44.9731 2.39205 41.0732V9.11413C2.39205 5.21424 5.54971 2.03125 9.41069 2.03125H62.3305C66.1915 2.03125 69.3348 5.21424 69.3348 9.11413V41.0732Z" fill="#0A0708"/>
<path d="M42.8819 49.6615H28.8589V53.0739H42.8819V49.6615Z" fill="#FF7195"/>
<path d="M52.3121 55.4971C52.3121 56.0276 51.8958 56.4434 51.3791 56.4434H20.3047C19.8167 56.4434 19.4148 56.0276 19.4148 55.4971C19.4148 55.0096 19.8167 54.5795 20.3047 54.5795H51.3791C51.8958 54.5938 52.3121 55.0096 52.3121 55.4971Z" fill="#FFB3C6"/>
<path d="M62.3306 2.01697H9.41073C5.54975 2.01697 2.39209 5.19996 2.39209 9.09985V41.0589C2.39209 44.9588 5.54975 48.1275 9.41073 48.1275H62.3306C66.1915 48.1275 69.3348 44.9588 69.3348 41.0589V9.09985C69.3348 5.19996 66.2059 2.01697 62.3306 2.01697ZM38.9494 47.2242H32.7632C31.6006 47.2242 30.6103 46.2349 30.6103 45.0735C30.6103 43.8691 31.5719 42.8798 32.7632 42.8798H38.9494C40.1551 42.8798 41.088 43.8405 41.088 45.0735C41.0737 46.2636 40.1264 47.2242 38.9494 47.2242ZM66.292 37.9906C66.292 40.1986 64.4979 41.9765 62.3306 41.9765H9.41073C7.21471 41.9765 5.44934 40.1843 5.44934 37.9906V9.09985C5.44934 6.90616 7.21471 5.11396 9.41073 5.11396H62.3306C64.4979 5.11396 66.292 6.9205 66.292 9.09985V37.9906Z" fill="#FFB3C6"/>
<path d="M62.3302 5.11389H9.41037C7.21435 5.11389 5.44897 6.92043 5.44897 9.09978V37.9905C5.44897 40.1986 7.21435 41.9765 9.41037 41.9765H62.3302C64.4975 41.9765 66.2917 40.1842 66.2917 37.9905V9.09978C66.2917 6.92043 64.4975 5.11389 62.3302 5.11389ZM64.7559 37.9905C64.7559 39.324 63.6363 40.4567 62.3302 40.4567H9.41037C8.06118 40.4567 6.97035 39.367 6.97035 37.9905V9.09978C6.97035 7.75203 8.06118 6.63368 9.41037 6.63368H62.3302C63.6507 6.63368 64.7559 7.76636 64.7559 9.09978V37.9905Z" fill="#0A0708"/>
<path d="M62.3303 6.64795H9.41048C8.06129 6.64795 6.97046 7.76629 6.97046 9.11405V38.0048C6.97046 39.3669 8.06129 40.4709 9.41048 40.4709H62.3303C63.6508 40.4709 64.756 39.3382 64.756 38.0048V9.11405C64.756 7.76629 63.6508 6.64795 62.3303 6.64795ZM35.8632 38.0621C27.9403 38.0621 21.4814 31.5384 21.4814 23.5523C21.4814 15.5517 27.9403 9.04236 35.8632 9.04236C43.8005 9.04236 50.2594 15.5517 50.2594 23.5523C50.2594 31.5384 43.8005 38.0621 35.8632 38.0621Z" fill="#FFF1F5"/>
<path d="M38.9493 42.894H32.7631C31.5718 42.894 30.6101 43.8833 30.6101 45.0877C30.6101 46.2491 31.6005 47.2384 32.7631 47.2384H38.9493C40.1406 47.2384 41.0879 46.2777 41.0879 45.0877C41.0735 43.8547 40.1549 42.894 38.9493 42.894ZM38.9493 45.7186H32.7631C32.4329 45.7186 32.1459 45.4318 32.1459 45.0877C32.1459 44.7293 32.4329 44.4138 32.7631 44.4138H38.9493C39.2937 44.4138 39.5664 44.7006 39.5664 45.0877C39.5664 45.4462 39.2937 45.7186 38.9493 45.7186Z" fill="#0A0708"/>
<path d="M39.5663 45.0734C39.5663 45.4319 39.2936 45.7043 38.9491 45.7043H32.7629C32.4328 45.7043 32.1458 45.4175 32.1458 45.0734C32.1458 44.715 32.4328 44.3995 32.7629 44.3995H38.9491C39.2936 44.3995 39.5663 44.6863 39.5663 45.0734Z" fill="#FF7195"/>
<path d="M35.8633 9.04248C27.9404 9.04248 21.4814 15.5519 21.4814 23.5524C21.4814 31.5385 27.9404 38.0623 35.8633 38.0623C43.8005 38.0623 50.2594 31.5385 50.2594 23.5524C50.2594 15.5519 43.8005 9.04248 35.8633 9.04248ZM35.8633 36.5281C28.7872 36.5281 23.0029 30.6926 23.0029 23.5524C23.0029 16.3834 28.7872 10.5623 35.8633 10.5623C42.9537 10.5623 48.7236 16.3978 48.7236 23.5524C48.7236 30.6926 42.9537 36.5281 35.8633 36.5281Z" fill="#0A0708"/>
<path d="M35.8633 10.5623C28.7872 10.5623 23.0029 16.3977 23.0029 23.5523C23.0029 30.6926 28.7872 36.5281 35.8633 36.5281C42.9537 36.5281 48.7237 30.6926 48.7237 23.5523C48.7237 16.3977 42.9537 10.5623 35.8633 10.5623ZM44.6761 25.1008C44.6761 26.5633 43.4848 27.739 42.0495 27.739H40.0113V29.8036C40.0113 31.2661 38.8201 32.4418 37.3847 32.4418H34.3419C32.9066 32.4418 31.7153 31.2518 31.7153 29.8036V27.739H29.6771C28.2418 27.739 27.0505 26.5489 27.0505 25.1008V22.0182C27.0505 20.5557 28.2418 19.38 29.6771 19.38H31.7153V17.3154C31.7153 15.8529 32.9066 14.6485 34.3419 14.6485H37.3847C38.8201 14.6485 40.0113 15.8529 40.0113 17.3154V19.38H42.0495C43.4848 19.38 44.6761 20.5701 44.6761 22.0182V25.1008Z" fill="#B9F7FF"/>
<path d="M42.0495 19.38H40.0113V17.3154C40.0113 15.8529 38.8201 14.6486 37.3848 14.6486H34.3419C32.9066 14.6486 31.7153 15.8529 31.7153 17.3154V19.38H29.6771C28.2418 19.38 27.0505 20.5701 27.0505 22.0182V25.1008C27.0505 26.5633 28.2418 27.739 29.6771 27.739H31.7153V29.8037C31.7153 31.2661 32.9066 32.4418 34.3419 32.4418H37.3848C38.8201 32.4418 40.0113 31.2518 40.0113 29.8037V27.739H42.0495C43.4848 27.739 44.6761 26.549 44.6761 25.1008V22.0182C44.6761 20.5701 43.4848 19.38 42.0495 19.38ZM43.1546 25.1008C43.1546 25.7174 42.6667 26.2192 42.0351 26.2192H39.2219C38.8057 26.2192 38.4755 26.5633 38.4755 26.9791V29.8037C38.4755 30.4202 37.9588 30.9363 37.356 30.9363H34.3131C33.7103 30.9363 33.1936 30.4202 33.1936 29.8037V26.9791C33.1936 26.5633 32.8635 26.2192 32.4472 26.2192H29.6341C29.0313 26.2192 28.5145 25.703 28.5145 25.1008V22.0182C28.5145 21.416 29.0313 20.8855 29.6341 20.8855H32.4472C32.8635 20.8855 33.1936 20.5557 33.1936 20.1399V17.3154C33.1936 16.6845 33.6816 16.1827 34.3131 16.1827H37.356C37.9732 16.1827 38.4755 16.6702 38.4755 17.3154V20.1399C38.4755 20.5557 38.8057 20.8855 39.2219 20.8855H42.0351C42.6523 20.8855 43.1546 21.4017 43.1546 22.0182V25.1008Z" fill="#0A0708"/>
<path d="M43.1548 22.0181V25.1007C43.1548 25.7173 42.6668 26.2191 42.0353 26.2191H39.2221C38.8058 26.2191 38.4757 26.5632 38.4757 26.979V29.8036C38.4757 30.4201 37.959 30.9362 37.3562 30.9362H34.3133C33.7104 30.9362 33.1938 30.4201 33.1938 29.8036V26.979C33.1938 26.5632 32.8636 26.2191 32.4474 26.2191H29.6342C29.0314 26.2191 28.5146 25.7029 28.5146 25.1007V22.0181C28.5146 21.4159 29.0314 20.8854 29.6342 20.8854H32.4474C32.8636 20.8854 33.1938 20.5556 33.1938 20.1398V17.3153C33.1938 16.6844 33.6817 16.1826 34.3133 16.1826H37.3562C37.9733 16.1826 38.4757 16.6701 38.4757 17.3153V20.1398C38.4757 20.5556 38.8058 20.8854 39.2221 20.8854H42.0353C42.6668 20.8998 43.1548 21.4016 43.1548 22.0181Z" fill="#35A0CD"/>
</svg>
