<svg width="17" height="16" viewBox="0 0 17 16" fill="none" xmlns="http://www.w3.org/2000/svg">
<g clip-path="url(#clip0_274_463)">
<g clip-path="url(#clip1_274_463)">
<path d="M8.44195 1.99829H8.53095C9.35295 2.00129 13.5179 2.03129 14.6409 2.33329C14.9804 2.42546 15.2898 2.60511 15.5381 2.8543C15.7864 3.10348 15.965 3.41348 16.0559 3.75329C16.1569 4.13329 16.2279 4.63629 16.2759 5.15529L16.2859 5.25929L16.3079 5.51929L16.3159 5.62329C16.3809 6.53729 16.3889 7.39329 16.3899 7.58029V7.65529C16.3889 7.84929 16.3799 8.76329 16.3079 9.71529L16.2999 9.82029L16.2909 9.92429C16.2409 10.4963 16.1669 11.0643 16.0559 11.4823C15.9653 11.8222 15.7868 12.1324 15.5384 12.3816C15.2901 12.6308 14.9806 12.8104 14.6409 12.9023C13.4809 13.2143 9.07195 13.2363 8.46095 13.2373H8.31895C8.00995 13.2373 6.73195 13.2313 5.39195 13.1853L5.22195 13.1793L5.13495 13.1753L4.96395 13.1683L4.79295 13.1613C3.68295 13.1123 2.62595 13.0333 2.13895 12.9013C1.79944 12.8095 1.49001 12.6301 1.24167 12.381C0.993329 12.132 0.814792 11.8221 0.723945 11.4823C0.612945 11.0653 0.538945 10.4963 0.488945 9.92429L0.480945 9.81929L0.472945 9.71529C0.423593 9.03769 0.396245 8.35867 0.390945 7.67929V7.55629C0.392945 7.34129 0.400945 6.59829 0.454945 5.77829L0.461945 5.67529L0.464945 5.62329L0.472945 5.51929L0.494945 5.25929L0.504945 5.15529C0.552945 4.63629 0.623945 4.13229 0.724945 3.75329C0.815639 3.41334 0.994108 3.1032 1.24246 2.85397C1.49081 2.60474 1.80032 2.42518 2.13995 2.33329C2.62695 2.20329 3.68395 2.12329 4.79395 2.07329L4.96395 2.06629L5.13595 2.06029L5.22195 2.05729L5.39295 2.05029C6.34465 2.01967 7.29675 2.00266 8.24895 1.99929H8.44195V1.99829ZM6.79095 5.20829V10.0263L10.9479 7.61829L6.79095 5.20829Z" fill="#FFB3C6"/>
</g>
</g>
<defs>
<clipPath id="clip0_274_463">
<rect width="16" height="16" fill="white" transform="translate(0.391296)"/>
</clipPath>
<clipPath id="clip1_274_463">
<rect width="16" height="16" fill="white" transform="translate(0.391296)"/>
</clipPath>
</defs>
</svg>
