<svg width="153" height="42" viewBox="0 0 153 42" fill="none" xmlns="http://www.w3.org/2000/svg">
<path d="M35.1086 0H7.10864C3.24265 0 0.108643 3.13401 0.108643 7V35C0.108643 38.866 3.24265 42 7.10864 42H35.1086C38.9746 42 42.1086 38.866 42.1086 35V7C42.1086 3.13401 38.9746 0 35.1086 0Z" fill="#D4B8A8"/>
<path d="M21.8312 31.4768C23.8028 31.3145 25.7328 30.6449 27.3467 29.5634C28.0912 29.0643 28.5072 28.7232 29.1145 28.1117C29.8798 27.3506 30.4497 26.6019 31.007 25.6369C31.6933 24.4431 32.3006 22.6171 32.3838 21.4816C32.4046 21.1987 32.3963 21.1072 32.3173 20.9075C32.1925 20.5748 31.893 20.2545 31.5602 20.1006L31.2982 19.98H20.9203L10.5424 19.98L10.3012 20.1006C10.1681 20.1672 9.97674 20.3127 9.87276 20.425C9.5192 20.8036 9.43601 21.1488 9.54416 21.8101C9.92267 24.1603 11.0748 26.4147 12.7677 28.1117C14.6146 29.9627 17.0978 31.1565 19.6933 31.4393C20.259 31.5017 21.303 31.5184 21.8312 31.4768ZM19.4853 28.1991C18.5827 28.0286 17.9505 27.8123 17.0936 27.3838C15.5463 26.606 14.182 25.2084 13.4083 23.5987C13.2669 23.3034 13.1338 23.0081 13.1213 22.9457L13.0922 22.8292L20.9577 22.8292C25.2836 22.8292 28.8233 22.8417 28.8233 22.8625C28.8233 22.9582 28.162 24.2226 27.9249 24.5762C26.9723 26.0112 25.5914 27.1301 24.0025 27.754C23.5283 27.9412 22.6548 28.17 22.0974 28.2532C21.4985 28.3447 20.0926 28.3156 19.4853 28.1991Z" fill="#FDFCFC"/>
<path d="M32.477 19.0623C32.3148 17.0907 31.6451 15.1607 30.5637 13.5469C30.0645 12.8023 29.7234 12.3864 29.112 11.7791C28.3508 11.0137 27.6021 10.4439 26.6371 9.88652C25.4433 9.20021 23.6173 8.59293 22.4818 8.50974C22.199 8.48894 22.1074 8.49726 21.9078 8.57629C21.575 8.70107 21.2547 9.00055 21.1008 9.33331L20.9802 9.59536L20.9802 19.9732L20.9802 30.3511L21.1008 30.5924C21.1674 30.7255 21.313 30.9168 21.4253 31.0208C21.8038 31.3744 22.149 31.4575 22.8104 31.3494C25.1605 30.9709 27.4149 29.8187 29.112 28.1258C30.963 26.279 32.1567 23.7958 32.4396 21.2003C32.502 20.6346 32.5186 19.5906 32.477 19.0623ZM29.1993 21.4083C29.0288 22.3109 28.8125 22.9431 28.3841 23.8C27.6063 25.3473 26.2087 26.7116 24.599 27.4852C24.3036 27.6267 24.0083 27.7598 23.9459 27.7723L23.8295 27.8014L23.8295 19.9358C23.8295 15.61 23.8419 12.0702 23.8627 12.0702C23.9584 12.0702 25.2229 12.7316 25.5764 12.9687C27.0115 13.9212 28.1304 15.3022 28.7543 16.8911C28.9415 17.3653 29.1702 18.2387 29.2534 18.7961C29.3449 19.3951 29.3158 20.801 29.1993 21.4083Z" fill="#FDFCFC"/>
<path d="M126.252 18.106C125.398 19.9167 125.009 21.9479 125.14 23.9103C125.201 24.8158 125.289 25.3532 125.517 26.1951C125.797 27.2515 126.164 28.1301 126.727 29.1073C127.424 30.3133 128.715 31.7701 129.667 32.4179C129.904 32.5793 129.988 32.6183 130.203 32.6501C130.557 32.7091 130.988 32.6087 131.291 32.3948L131.529 32.2261L136.771 23.127L142.013 14.0279L142.03 13.7554C142.039 13.605 142.008 13.3635 141.962 13.2155C141.81 12.7139 141.55 12.4662 140.916 12.2262C138.669 11.3685 136.115 11.2375 133.775 11.8627C131.222 12.545 128.923 14.1179 127.365 16.2504C127.025 16.7148 126.483 17.6217 126.252 18.106ZM130.305 17.7083C130.91 17.0032 131.419 16.5584 132.226 16.024C133.688 15.0611 135.6 14.5723 137.4 14.7088C137.729 14.7343 138.055 14.7671 138.116 14.7878L138.233 14.8212L134.259 21.7176C132.074 25.5104 130.275 28.6076 130.257 28.5971C130.173 28.5486 129.401 27.3287 129.212 26.9418C128.437 25.3803 128.156 23.6031 128.413 21.8941C128.488 21.3836 128.729 20.502 128.938 19.9712C129.161 19.3997 129.896 18.1818 130.305 17.7083Z" fill="#D4B8A8"/>
<path d="M146.642 16.6007C145.504 14.9542 143.944 13.601 142.182 12.7334C141.369 12.3333 140.861 12.1413 140.019 11.9183C138.966 11.6326 138.024 11.512 136.898 11.5118C135.507 11.5143 133.602 11.9062 132.567 12.4081C132.309 12.533 132.233 12.5867 132.098 12.757C131.87 13.0349 131.741 13.4596 131.775 13.8292L131.801 14.1201L137.044 23.2192L142.286 32.3182L142.513 32.4687C142.639 32.5517 142.863 32.6458 143.013 32.6801C143.523 32.7985 143.867 32.6967 144.391 32.2671C146.256 30.7456 147.647 28.5941 148.276 26.2508C148.963 23.6946 148.753 20.913 147.689 18.4942C147.458 17.9666 146.945 17.0428 146.642 16.6007ZM144.959 20.3168C145.266 21.1945 145.396 21.8583 145.454 22.8264C145.555 24.5768 145.022 26.4805 144.004 27.9737C143.817 28.2472 143.626 28.5134 143.578 28.5559L143.491 28.6404L139.518 21.744C137.332 17.9512 135.555 14.8414 135.573 14.8308C135.657 14.7824 137.098 14.7222 137.527 14.7511C139.263 14.8598 140.94 15.5042 142.288 16.5815C142.692 16.9025 143.333 17.5525 143.687 17.9991C144.07 18.478 144.755 19.7254 144.959 20.3168Z" fill="#D4B8A8"/>
<path d="M116.252 0.0358665C115.754 0.15648 115.341 0.586904 115.235 1.09774C115.211 1.20652 115.199 1.40282 115.199 1.67715C115.199 2.16197 115.23 2.34171 115.358 2.59949C115.674 3.24513 116.526 3.49581 117.229 3.15289C117.46 3.03937 117.727 2.7745 117.835 2.54983C117.956 2.30387 117.984 2.14542 117.984 1.67715C117.984 1.21125 117.956 1.0528 117.838 0.804481C117.734 0.589269 117.396 0.251078 117.179 0.14702C116.889 0.00275683 116.552 -0.0374475 116.252 0.0358665Z" fill="#D4B8A8"/>
<path d="M116.276 4.00892C115.938 4.0917 115.513 4.42516 115.348 4.74206C115.216 4.99039 115.2 5.11336 115.2 5.85596V6.52288L112.752 6.52998L110.303 6.53707L110.147 6.59856C109.916 6.68843 109.784 6.77357 109.628 6.93439C109.206 7.36954 109.13 8.09085 109.451 8.64189C109.548 8.80507 109.774 9.01556 109.963 9.11489C110.263 9.27097 110.187 9.26861 112.823 9.26861H115.2V15.9071C115.2 20.1971 115.209 22.6851 115.223 22.9381C115.346 24.875 115.874 26.7812 116.738 28.3846C117.588 29.9668 118.494 30.9885 119.719 31.7523C120.849 32.4547 121.989 32.8024 123.199 32.8095C123.641 32.8119 123.667 32.8095 123.827 32.7504C124.273 32.5872 124.599 32.2041 124.696 31.7311C124.802 31.2155 124.686 30.8371 124.309 30.4587C123.992 30.1394 123.737 30.0354 123.275 30.033C122.621 30.033 121.975 29.884 121.446 29.6144C121.078 29.4252 120.856 29.2526 120.401 28.7938C119.952 28.3421 119.667 27.9802 119.388 27.5072C118.657 26.2704 118.23 25.0169 118.003 23.4348L117.951 23.0682L117.944 16.1696L117.937 9.26861L120.762 9.26388L123.589 9.25678L123.745 9.1953C123.976 9.10543 124.108 9.02029 124.264 8.85947C124.686 8.42432 124.762 7.703 124.441 7.15196C124.344 6.98878 124.117 6.7783 123.929 6.67897C123.627 6.52052 123.742 6.52525 120.693 6.52525H117.942L117.932 5.80866C117.923 5.13938 117.92 5.08498 117.869 4.94072C117.798 4.7326 117.68 4.55996 117.472 4.35657C117.132 4.02311 116.717 3.9025 116.276 4.00892Z" fill="#D4B8A8"/>
<path d="M109.456 16.0208C109.203 16.0846 109.021 16.1934 108.811 16.4015C108.667 16.5411 108.597 16.6357 108.545 16.7468C108.391 17.0732 108.403 16.5198 108.408 24.4803L108.415 31.7242L108.479 31.9157C108.601 32.2752 108.804 32.5141 109.121 32.6701C109.963 33.0864 110.968 32.6158 111.152 31.7194C111.183 31.5681 111.188 30.6599 111.183 24.3289L111.176 17.1087L111.122 16.9573C110.98 16.5624 110.614 16.2029 110.211 16.061C110.001 15.9877 109.663 15.9688 109.456 16.0208Z" fill="#D4B8A8"/>
<path d="M109.456 11.009C108.958 11.1296 108.545 11.56 108.438 12.0709C108.415 12.1797 108.403 12.376 108.403 12.6503C108.403 13.1351 108.434 13.3149 108.561 13.5726C108.877 14.2183 109.729 14.469 110.433 14.126C110.664 14.0125 110.93 13.7476 111.039 13.523C111.159 13.277 111.188 13.1186 111.188 12.6503C111.188 12.1844 111.159 12.0259 111.041 11.7776C110.938 11.5624 110.6 11.2242 110.383 11.1202C110.093 10.9759 109.755 10.9357 109.456 11.009Z" fill="#D4B8A8"/>
<path d="M103.226 0.0358086C102.728 0.156422 102.315 0.586845 102.208 1.09768C102.178 1.24194 102.173 3.17885 102.173 16.4345C102.173 29.6901 102.178 31.627 102.208 31.7713C102.364 32.5092 103.079 32.9538 103.856 32.7882C104.33 32.6889 104.759 32.2514 104.875 31.7547C104.906 31.6152 104.911 29.9787 104.906 16.3706L104.899 1.14498L104.844 0.991255C104.814 0.906116 104.752 0.778408 104.71 0.707458C104.597 0.520626 104.304 0.232101 104.134 0.142231C103.879 0.00743103 103.521 -0.035141 103.226 0.0358086Z" fill="#D4B8A8"/>
<path d="M89.5239 32.685C91.9048 32.7298 94.0786 32.0761 96.0046 30.7301C96.3237 30.51 96.9371 29.9965 97.2769 29.6689C97.931 29.0377 98.73 28.0294 98.8725 27.6545C99.0362 27.2244 98.9296 26.7124 98.6026 26.3457C98.4207 26.1406 98.2369 26.0161 97.9929 25.9316C97.6431 25.8099 97.2798 25.8222 96.9053 25.9689C96.516 26.1215 96.325 26.2835 95.9091 26.8135C95.3342 27.5463 94.5506 28.2259 93.7444 28.6949C92.5924 29.3628 91.3197 29.7168 89.9579 29.7477C89.5759 29.7561 88.7487 29.6799 88.3597 29.6023C86.8976 29.3021 85.6016 28.6266 84.5015 27.5901C84.3675 27.465 84.0551 27.1208 83.8074 26.8249C83.5123 26.4727 83.3103 26.2541 83.2276 26.195C82.5699 25.7318 81.8023 25.7365 81.2492 26.2076C80.8133 26.5793 80.6542 27.1261 80.8362 27.6421C80.9608 27.9942 81.6688 28.9054 82.3354 29.5734C83.8326 31.0749 85.772 32.0985 87.8932 32.5036C88.2219 32.5667 89.2378 32.6801 89.5239 32.685Z" fill="#D4B8A8"/>
<path d="M88.8838 11.5602C87.0646 11.7102 85.2836 12.3294 83.7944 13.3295C83.1074 13.791 82.7236 14.1064 82.1632 14.6719C81.457 15.3757 80.9312 16.0681 80.4169 16.9604C79.7836 18.0643 79.2232 19.7528 79.1464 20.8029C79.1272 21.0644 79.1349 21.1491 79.2078 21.3337C79.323 21.6414 79.5993 21.9375 79.9064 22.0799L80.1482 22.1914H89.7244H99.3006L99.5232 22.0799C99.646 22.0183 99.8226 21.8837 99.9185 21.7799C100.245 21.4298 100.322 21.1106 100.222 20.499C99.8725 18.3259 98.8093 16.2412 97.2472 14.6719C95.543 12.9602 93.2517 11.8563 90.8567 11.5948C90.3347 11.5371 89.3713 11.5217 88.8838 11.5602ZM91.0486 14.5911C91.8814 14.7488 92.4648 14.9488 93.2555 15.345C94.6833 16.0642 95.9422 17.3566 96.6561 18.8451C96.7866 19.1182 96.9094 19.3913 96.9209 19.449L96.9478 19.5567H89.6899C85.6982 19.5567 82.4319 19.5451 82.4319 19.5259C82.4319 19.4374 83.0422 18.2682 83.2609 17.9412C84.1399 16.6142 85.4141 15.5796 86.8803 15.0026C87.3179 14.8296 88.1239 14.618 88.6382 14.5411C89.1909 14.4565 90.4882 14.4834 91.0486 14.5911Z" fill="#D4B8A8"/>
<path d="M65.9612 11.5649C64.4981 11.6761 63.2191 12.0379 61.9023 12.7096C60.8451 13.2488 60.0097 13.8684 59.1389 14.7576C58.3082 15.609 57.6947 16.4746 57.1472 17.5672C56.5714 18.7213 56.2268 20.0457 56.1324 21.4599C56.1183 21.6846 56.1088 25.2628 56.1088 31.2745C56.1088 41.704 56.097 40.8645 56.2552 41.1932C56.359 41.4084 56.6964 41.7466 56.9136 41.8507C57.4492 42.1132 58.0132 42.0257 58.4191 41.6189C58.6268 41.4061 58.7401 41.2381 58.8203 41.0206L58.8817 40.8527L58.8887 35.0869L58.8935 29.3234L59.2191 29.6404C60.1442 30.5461 61.1707 31.3006 62.1123 31.7641C64.1135 32.7479 66.4119 33.0554 68.7104 32.6439C70.8131 32.2678 72.7434 31.2201 74.3269 29.5931C75.4219 28.4697 76.203 27.2186 76.7457 25.7121C77.3475 24.0543 77.5009 22.1292 77.1823 20.3129C76.9298 18.8916 76.2195 17.2054 75.3605 16.0016C74.5865 14.9113 73.5175 13.8991 72.4225 13.2157C71.0184 12.3359 69.4963 11.7943 67.9199 11.6075C67.455 11.5531 66.4096 11.5294 65.9612 11.5649ZM67.3818 14.3556C69.0573 14.4951 70.6809 15.2022 71.9316 16.3327C72.8024 17.1202 73.4514 18.0142 73.9021 19.0453C74.3812 20.1403 74.5912 21.2163 74.5558 22.4177C74.5204 23.6239 74.2702 24.6384 73.7464 25.6885C72.8095 27.5615 71.2331 28.9309 69.2178 29.6214C67.9411 30.0613 66.5299 30.1488 65.1612 29.8768C63.8916 29.6238 62.6527 29.0255 61.5979 28.1552C60.8474 27.5355 60.2103 26.6936 59.6958 25.6459C59.3654 24.9743 59.1979 24.4895 59.061 23.832C58.6268 21.7106 59.0327 19.6247 60.2339 17.7848C61.1943 16.3161 62.8132 15.1289 64.5311 14.637C64.9937 14.5046 65.6851 14.3816 66.1618 14.3461C66.4214 14.3272 67.1057 14.3319 67.3818 14.3556Z" fill="#D4B8A8"/>
</svg>
