<svg width="153" height="42" viewBox="0 0 153 42" fill="none" xmlns="http://www.w3.org/2000/svg">
<path d="M35.1087 0H7.10876C3.24277 0 0.108765 3.13401 0.108765 7V35C0.108765 38.866 3.24277 42 7.10876 42H35.1087C38.9747 42 42.1087 38.866 42.1087 35V7C42.1087 3.13401 38.9747 0 35.1087 0Z" fill="#FFB3C6"/>
<path d="M21.8313 31.4769C23.8029 31.3147 25.7329 30.645 27.3468 29.5635C28.0913 29.0644 28.5073 28.7233 29.1145 28.1119C29.8799 27.3507 30.4497 26.602 31.0071 25.637C31.6934 24.4432 32.3007 22.6172 32.3839 21.4817C32.4047 21.1988 32.3964 21.1073 32.3173 20.9077C32.1925 20.5749 31.8931 20.2546 31.5603 20.1007L31.2983 19.9801H20.9204L10.5425 19.9801L10.3012 20.1007C10.1681 20.1673 9.9768 20.3129 9.87282 20.4252C9.51926 20.8037 9.43607 21.1489 9.54422 21.8103C9.92273 24.1604 11.0749 26.4148 12.7678 28.1119C14.6146 29.9628 17.0978 31.1566 19.6933 31.4395C20.259 31.5018 21.303 31.5185 21.8313 31.4769ZM19.4854 28.1992C18.5828 28.0287 17.9505 27.8124 17.0937 27.384C15.5463 26.6061 14.182 25.2086 13.4084 23.5988C13.2669 23.3035 13.1338 23.0082 13.1214 22.9458L13.0922 22.8293L20.9578 22.8293C25.2837 22.8293 28.8234 22.8418 28.8234 22.8626C28.8234 22.9583 28.162 24.2228 27.9249 24.5763C26.9724 26.0113 25.5915 27.1302 24.0025 27.7542C23.5284 27.9413 22.6549 28.1701 22.0975 28.2533C21.4985 28.3448 20.0926 28.3157 19.4854 28.1992Z" fill="#FDFCFC"/>
<path d="M32.4769 19.0623C32.3147 17.0907 31.6451 15.1607 30.5636 13.5469C30.0645 12.8023 29.7234 12.3864 29.1119 11.7791C28.3507 11.0137 27.602 10.4439 26.637 9.88652C25.4433 9.20021 23.6173 8.59293 22.4817 8.50974C22.1989 8.48894 22.1074 8.49726 21.9077 8.57629C21.575 8.70107 21.2547 9.00055 21.1008 9.33331L20.9802 9.59536L20.9802 19.9732L20.9802 30.3511L21.1008 30.5924C21.1673 30.7255 21.3129 30.9168 21.4252 31.0208C21.8037 31.3744 22.149 31.4575 22.8103 31.3494C25.1604 30.9709 27.4149 29.8187 29.1119 28.1258C30.9629 26.279 32.1567 23.7958 32.4395 21.2003C32.5019 20.6346 32.5185 19.5906 32.4769 19.0623ZM29.1993 21.4083C29.0287 22.3109 28.8125 22.9431 28.384 23.8C27.6062 25.3473 26.2086 26.7116 24.5989 27.4852C24.3036 27.6267 24.0083 27.7598 23.9459 27.7723L23.8294 27.8014L23.8294 19.9358C23.8294 15.61 23.8419 12.0702 23.8627 12.0702C23.9583 12.0702 25.2228 12.7316 25.5764 12.9687C27.0114 13.9212 28.1303 15.3022 28.7542 16.8911C28.9414 17.3653 29.1702 18.2387 29.2534 18.7961C29.3449 19.3951 29.3157 20.801 29.1993 21.4083Z" fill="#FDFCFC"/>
<path d="M126.252 18.1059C125.398 19.9166 125.009 21.9478 125.14 23.9103C125.201 24.8157 125.289 25.3531 125.517 26.195C125.797 27.2514 126.164 28.13 126.727 29.1072C127.424 30.3132 128.715 31.77 129.667 32.4178C129.904 32.5792 129.988 32.6182 130.203 32.65C130.557 32.709 130.988 32.6086 131.291 32.3947L131.529 32.226L136.771 23.1269L142.013 14.0279L142.03 13.7553C142.039 13.6049 142.008 13.3634 141.962 13.2154C141.81 12.7138 141.55 12.4661 140.916 12.2261C138.669 11.3684 136.115 11.2374 133.775 11.8626C131.222 12.5449 128.923 14.1178 127.365 16.2503C127.025 16.7147 126.483 17.6217 126.252 18.1059ZM130.305 17.7082C130.91 17.0031 131.419 16.5583 132.226 16.0239C133.688 15.061 135.6 14.5722 137.4 14.7088C137.729 14.7343 138.055 14.767 138.116 14.7877L138.233 14.8211L134.259 21.7175C132.074 25.5103 130.275 28.6075 130.257 28.597C130.173 28.5485 129.401 27.3286 129.212 26.9417C128.437 25.3802 128.156 23.603 128.413 21.894C128.488 21.3835 128.729 20.5019 128.938 19.9711C129.161 19.3996 129.896 18.1817 130.305 17.7082Z" fill="#FFB3C6"/>
<path d="M146.642 16.6006C145.504 14.9541 143.944 13.6009 142.182 12.7333C141.369 12.3332 140.861 12.1411 140.019 11.9182C138.967 11.6325 138.024 11.5119 136.898 11.5117C135.507 11.5142 133.602 11.9061 132.567 12.408C132.309 12.5329 132.233 12.5865 132.098 12.7569C131.87 13.0347 131.741 13.4595 131.775 13.8291L131.802 14.1199L137.044 23.219L142.286 32.3181L142.513 32.4686C142.639 32.5516 142.863 32.6457 143.014 32.68C143.523 32.7984 143.867 32.6965 144.391 32.2669C146.256 30.7454 147.647 28.594 148.277 26.2507C148.963 23.6944 148.753 20.9129 147.69 18.4941C147.458 17.9665 146.946 17.0427 146.642 16.6006ZM144.96 20.3166C145.266 21.1944 145.397 21.8582 145.455 22.8263C145.556 24.5767 145.022 26.4804 144.004 27.9736C143.817 28.247 143.626 28.5132 143.578 28.5558L143.491 28.6402L139.518 21.7439C137.333 17.9511 135.555 14.8412 135.574 14.8307C135.657 14.7823 137.098 14.7221 137.527 14.751C139.263 14.8597 140.94 15.5041 142.288 16.5814C142.692 16.9024 143.333 17.5524 143.687 17.999C144.07 18.4778 144.755 19.7252 144.96 20.3166Z" fill="#FFB3C6"/>
<path d="M116.252 0.035836C115.754 0.156449 115.341 0.586873 115.235 1.09771C115.212 1.20649 115.2 1.40279 115.2 1.67712C115.2 2.16194 115.23 2.34168 115.358 2.59946C115.674 3.2451 116.526 3.49578 117.229 3.15286C117.46 3.03934 117.727 2.77447 117.836 2.5498C117.956 2.30384 117.984 2.14539 117.984 1.67712C117.984 1.21122 117.956 1.05277 117.838 0.80445C117.734 0.589238 117.397 0.251048 117.18 0.146989C116.889 0.00272632 116.552 -0.037478 116.252 0.035836Z" fill="#FFB3C6"/>
<path d="M116.276 4.00889C115.938 4.09167 115.513 4.42513 115.348 4.74203C115.216 4.99035 115.2 5.11333 115.2 5.85593V6.52285L112.752 6.52995L110.303 6.53704L110.147 6.59853C109.916 6.6884 109.784 6.77354 109.628 6.93436C109.206 7.36951 109.13 8.09082 109.451 8.64186C109.548 8.80504 109.774 9.01553 109.963 9.11485C110.263 9.27094 110.187 9.26858 112.823 9.26858H115.2V15.907C115.2 20.1971 115.209 22.685 115.223 22.9381C115.346 24.875 115.874 26.7812 116.738 28.3846C117.588 29.9668 118.494 30.9884 119.719 31.7523C120.849 32.4547 121.989 32.8024 123.199 32.8095C123.641 32.8118 123.667 32.8095 123.827 32.7503C124.273 32.5871 124.599 32.204 124.696 31.731C124.802 31.2155 124.686 30.8371 124.309 30.4587C123.992 30.1394 123.737 30.0353 123.275 30.033C122.621 30.033 121.975 29.884 121.446 29.6144C121.078 29.4252 120.856 29.2525 120.401 28.7937C119.952 28.342 119.667 27.9802 119.388 27.5072C118.657 26.2703 118.23 25.0169 118.003 23.4347L117.951 23.0682L117.944 16.1695L117.937 9.26858L120.762 9.26385L123.589 9.25675L123.745 9.19526C123.976 9.1054 124.108 9.02026 124.264 8.85944C124.686 8.42429 124.762 7.70297 124.441 7.15193C124.344 6.98875 124.117 6.77827 123.929 6.67894C123.627 6.52049 123.742 6.52522 120.693 6.52522H117.942L117.932 5.80863C117.923 5.13935 117.92 5.08495 117.869 4.94069C117.798 4.73257 117.68 4.55993 117.472 4.35654C117.132 4.02308 116.717 3.90247 116.276 4.00889Z" fill="#FFB3C6"/>
<path d="M109.456 16.0206C109.203 16.0845 109.021 16.1932 108.811 16.4014C108.667 16.5409 108.597 16.6355 108.545 16.7466C108.391 17.073 108.403 16.5196 108.408 24.4801L108.415 31.724L108.479 31.9155C108.601 32.275 108.804 32.5139 109.121 32.67C109.963 33.0862 110.968 32.6156 111.152 31.7192C111.183 31.5679 111.188 30.6597 111.183 24.3287L111.176 17.1085L111.122 16.9571C110.98 16.5622 110.614 16.2027 110.211 16.0608C110.001 15.9875 109.663 15.9686 109.456 16.0206Z" fill="#FFB3C6"/>
<path d="M109.456 11.0091C108.958 11.1297 108.545 11.5601 108.439 12.071C108.415 12.1798 108.403 12.3761 108.403 12.6504C108.403 13.1352 108.434 13.3149 108.561 13.5727C108.878 14.2184 109.729 14.469 110.433 14.1261C110.664 14.0126 110.931 13.7477 111.039 13.5231C111.16 13.2771 111.188 13.1187 111.188 12.6504C111.188 12.1845 111.16 12.026 111.042 11.7777C110.938 11.5625 110.6 11.2243 110.383 11.1203C110.093 10.976 109.755 10.9358 109.456 11.0091Z" fill="#FFB3C6"/>
<path d="M103.226 0.0356865C102.728 0.1563 102.315 0.586723 102.209 1.09756C102.178 1.24182 102.173 3.17873 102.173 16.4344C102.173 29.69 102.178 31.6269 102.209 31.7712C102.364 32.509 103.079 32.9537 103.856 32.7881C104.33 32.6888 104.76 32.2513 104.875 31.7546C104.906 31.6151 104.911 29.9785 104.906 16.3705L104.899 1.14486L104.845 0.991133C104.814 0.905994 104.753 0.778286 104.71 0.707336C104.597 0.520504 104.304 0.231979 104.134 0.142109C103.879 0.00730896 103.521 -0.0352631 103.226 0.0356865Z" fill="#FFB3C6"/>
<path d="M89.5241 32.6851C91.905 32.7298 94.0788 32.0762 96.0047 30.7302C96.3238 30.51 96.9372 29.9965 97.2771 29.6689C97.9311 29.0377 98.7301 28.0295 98.8726 27.6546C99.0363 27.2245 98.9298 26.7124 98.6027 26.3457C98.4208 26.1407 98.237 26.0161 97.9931 25.9317C97.6432 25.8099 97.2799 25.8222 96.9054 25.9689C96.5162 26.1215 96.3251 26.2835 95.9092 26.8136C95.3343 27.5463 94.5508 28.226 93.7445 28.6949C92.5925 29.3628 91.3198 29.7168 89.958 29.7477C89.576 29.7562 88.7488 29.6799 88.3598 29.6023C86.8977 29.3021 85.6017 28.6266 84.5016 27.5901C84.3676 27.465 84.0552 27.1209 83.8075 26.8249C83.5124 26.4727 83.3104 26.2541 83.2277 26.195C82.57 25.7318 81.8024 25.7365 81.2493 26.2076C80.8134 26.5794 80.6543 27.1261 80.8363 27.6421C80.9609 27.9942 81.6689 28.9054 82.3356 29.5734C83.8327 31.075 85.7722 32.0986 87.8934 32.5037C88.222 32.5667 89.2379 32.6801 89.5241 32.6851Z" fill="#FFB3C6"/>
<path d="M88.884 11.5602C87.0647 11.7102 85.2838 12.3295 83.7946 13.3295C83.1075 13.7911 82.7237 14.1065 82.1633 14.6719C81.4571 15.3758 80.9313 16.0681 80.417 16.9604C79.7837 18.0643 79.2233 19.7529 79.1466 20.8029C79.1274 21.0645 79.135 21.1491 79.208 21.3337C79.3231 21.6414 79.5995 21.9376 79.9065 22.0799L80.1483 22.1914H89.7245H99.3007L99.5233 22.0799C99.6462 22.0184 99.8227 21.8837 99.9187 21.7799C100.245 21.4299 100.322 21.1106 100.222 20.4991C99.8726 18.3259 98.8094 16.2412 97.2473 14.6719C95.5432 12.9603 93.2518 11.8564 90.8568 11.5948C90.3348 11.5371 89.3714 11.5217 88.884 11.5602ZM91.0487 14.5911C91.8816 14.7488 92.465 14.9488 93.2556 15.345C94.6834 16.0643 95.9423 17.3566 96.6562 18.8451C96.7867 19.1182 96.9095 19.3913 96.9211 19.449L96.9479 19.5567H89.69C85.6983 19.5567 82.432 19.5452 82.432 19.5259C82.432 19.4375 83.0423 18.2682 83.2611 17.9413C84.14 16.6143 85.4143 15.5796 86.8804 15.0027C87.318 14.8296 88.124 14.618 88.6383 14.5411C89.191 14.4565 90.4883 14.4834 91.0487 14.5911Z" fill="#FFB3C6"/>
<path d="M65.9613 11.5649C64.4982 11.676 63.2192 12.0379 61.9024 12.7095C60.8452 13.2487 60.0098 13.8684 59.139 14.7576C58.3083 15.609 57.6948 16.4746 57.1473 17.5672C56.5715 18.7213 56.227 20.0457 56.1326 21.4599C56.1184 21.6846 56.109 25.2628 56.109 31.2745C56.109 41.704 56.0972 40.8645 56.2553 41.1932C56.3591 41.4084 56.6966 41.7466 56.9137 41.8506C57.4494 42.1132 58.0134 42.0257 58.4193 41.6189C58.6269 41.406 58.7402 41.2381 58.8204 41.0205L58.8818 40.8526L58.8889 35.0868L58.8936 29.3234L59.2192 29.6403C60.1443 30.5461 61.1708 31.3005 62.1124 31.7641C64.1136 32.7479 66.4121 33.0553 68.7106 32.6438C70.8132 32.2678 72.7435 31.2201 74.327 29.593C75.422 28.4697 76.2031 27.2186 76.7458 25.7121C77.3476 24.0543 77.501 22.1292 77.1824 20.3129C76.9299 18.8915 76.2196 17.2053 75.3606 16.0016C74.5866 14.9113 73.5176 13.8991 72.4226 13.2156C71.0185 12.3359 69.4964 11.7943 67.92 11.6075C67.4551 11.5531 66.4097 11.5294 65.9613 11.5649ZM67.382 14.3555C69.0575 14.4951 70.681 15.2022 71.9318 16.3327C72.8025 17.1202 73.4515 18.0141 73.9022 19.0453C74.3813 20.1403 74.5913 21.2163 74.5559 22.4177C74.5205 23.6238 74.2704 24.6384 73.7465 25.6885C72.8096 27.5615 71.2332 28.9308 69.2179 29.6214C67.9412 30.0613 66.5301 30.1488 65.1613 29.8768C63.8917 29.6238 62.6528 29.0254 61.598 28.1551C60.8475 27.5355 60.2104 26.6936 59.6959 25.6459C59.3656 24.9742 59.198 24.4894 59.0611 23.832C58.6269 21.7106 59.0328 19.6247 60.234 17.7847C61.1944 16.3161 62.8133 15.1289 64.5313 14.637C64.9938 14.5045 65.6852 14.3816 66.1619 14.3461C66.4215 14.3272 67.1059 14.3319 67.382 14.3555Z" fill="#FFB3C6"/>
</svg>
